<svg xmlns="http://www.w3.org/2000/svg" xmlns:xlink="http://www.w3.org/1999/xlink" viewBox="0 0 3353.05 902.75"><defs><style>.cls-1{fill:url(#linear-gradient);}.cls-2{fill:url(#linear-gradient-2);}.cls-3{fill:url(#linear-gradient-3);}.cls-4{fill:url(#linear-gradient-4);}.cls-5{fill:url(#linear-gradient-5);}.cls-6{fill:url(#linear-gradient-9);}.cls-7{fill:url(#linear-gradient-12);}.cls-8{fill:url(#linear-gradient-15);}.cls-9{fill:url(#linear-gradient-17);}.cls-10{fill:url(#linear-gradient-18);}.cls-11{fill:url(#linear-gradient-19);}.cls-12{fill:url(#linear-gradient-20);}</style><linearGradient id="linear-gradient" x1="3354.91" y1="480.25" x2="4.63" y2="480.25" gradientUnits="userSpaceOnUse"><stop offset="0" stop-color="#3fa4dc"/><stop offset="1" stop-color="#1c489f"/></linearGradient><linearGradient id="linear-gradient-2" x1="3354.91" y1="602.59" x2="4.63" y2="602.59" xlink:href="#linear-gradient"/><linearGradient id="linear-gradient-3" x1="3354.91" y1="471.36" x2="4.63" y2="471.36" xlink:href="#linear-gradient"/><linearGradient id="linear-gradient-4" x1="3354.91" y1="536.75" x2="4.63" y2="536.75" xlink:href="#linear-gradient"/><linearGradient id="linear-gradient-5" x1="3354.91" y1="533.73" x2="4.63" y2="533.73" xlink:href="#linear-gradient"/><linearGradient id="linear-gradient-9" x1="3354.91" y1="311.13" x2="4.63" y2="311.13" xlink:href="#linear-gradient"/><linearGradient id="linear-gradient-12" x1="3354.91" y1="762.36" x2="4.63" y2="762.36" xlink:href="#linear-gradient"/><linearGradient id="linear-gradient-15" x1="3354.91" y1="536.75" x2="4.63" y2="536.75" xlink:href="#linear-gradient"/><linearGradient id="linear-gradient-17" x1="3354.91" y1="834.99" x2="4.63" y2="834.99" xlink:href="#linear-gradient"/><linearGradient id="linear-gradient-18" x1="3354.91" y1="451.38" x2="4.63" y2="451.38" xlink:href="#linear-gradient"/><linearGradient id="linear-gradient-19" x1="3354.91" y1="258.24" x2="4.63" y2="258.24" xlink:href="#linear-gradient"/><linearGradient id="linear-gradient-20" x1="3354.91" y1="644.51" x2="4.63" y2="644.51" xlink:href="#linear-gradient"/></defs><g id="Layer_2" data-name="Layer 2"><g id="Layer_1-2" data-name="Layer 1"><path class="cls-1" d="M1079.19,411.09q-2.7-49.72-20.79-84.67t-51.53-53.34q-33.45-18.37-82.56-18.38-35.87,0-64.64,12.65a130.21,130.21,0,0,0-49,37.37q-20.19,24.7-31,60.27t-10.85,81.36v68.1q0,45.81,10.24,81.21t30.14,60A129.29,129.29,0,0,0,858,693q28.93,12.81,66.3,12.81,47,0,81.21-17.63a124.53,124.53,0,0,0,53-51.83q18.83-34.2,19.74-83.92H983.07q0,30.44-6.48,46.7t-19.44,22.45q-13,6.18-32.84,6.18-18.09,0-29.53-5.87T876.7,602.59q-6.63-13.41-9.19-35.11t-2.57-53V445.74q0-31.33,3.32-52.88t10.24-35.11q6.93-13.56,18.39-19.28t27.42-5.73q22.29,0,35.1,7.08t18.53,24.11q5.73,17,5.43,47.16Z"/><path class="cls-2" d="M1237.1,548.38l-35.79-174.65h-98.54l93.86,331.35-6.47,20a64.79,64.79,0,0,1-7.54,17.18,28.65,28.65,0,0,1-12.5,10.55q-8,3.62-21.85,3.61c-1.81,0-3.36,0-4.67-.15s-3.06-.15-5.27-.15l.3,69.61q11.44,3.32,17.63,4.52t18.83,1.2q22.89,0,39-8.13a79.17,79.17,0,0,0,26.52-21.1A122.77,122.77,0,0,0,1257.35,775a217.79,217.79,0,0,0,10-26.66l107.58-374.56h-97Z"/><path class="cls-3" d="M1497.65,667.41a89.89,89.89,0,0,0,24.2,26.48q16.73,11.91,40.83,11.91,27.42,0,47.61-9.49a80.63,80.63,0,0,0,33.15-28.93q12.94-19.44,19.14-48.82t6.17-69.46V523.49q0-38.57-6.17-67.8T1643.44,407a84,84,0,0,0-33.15-29.38q-20.19-9.94-47.91-9.94-24.11,0-41,11.9a84.23,84.23,0,0,0-19,18.7V236.92h-91.31V699.77h83.17Zm6-206.15a40.16,40.16,0,0,1,13.56-14.16q8.14-5,20.19-5,12.95,0,20.94,4.82t12.06,14.77q4.07,9.93,5.57,25.16t1.51,36.61V549.1q0,23.21-1.36,39.18t-5.42,25.31q-4.07,9.35-11.75,13.56t-21,4.22q-17.48,0-27.12-8.59a38.56,38.56,0,0,1-8.43-11V463.44C1502.8,462.7,1503.2,462,1503.62,461.26Z"/><path class="cls-4" d="M1749,666.77q18.07,19.14,44.45,29.08t60.72,9.95q28,0,49.72-6.93t37.36-17.63q15.66-10.69,24.11-21.55l-37.07-56.35a83.39,83.39,0,0,1-30.13,21.1,97.57,97.57,0,0,1-37.67,7.23,73.81,73.81,0,0,1-24.25-3.62,40.75,40.75,0,0,1-17.63-11.9q-7.23-8.28-10.85-22.6a132.1,132.1,0,0,1-3.42-26.67h166.74V523.79q0-39.46-8.28-68.7t-24.26-48.67a98.9,98.9,0,0,0-39.47-29.08q-23.5-9.64-54.25-9.64-32.25,0-57.1,10.09a105.15,105.15,0,0,0-41.58,30q-16.72,19.88-25.32,49.57t-8.58,69.15v30.74q0,35.57,9.34,63T1749,666.77Zm62.68-205.36q4.21-9.95,12.2-14.61t20.64-4.67q13,0,21,5.12t11.9,17q3.92,11.91,3.92,31.79v9h-76.71q.4-9.5,1.22-17.48Q1807.43,471.35,1811.66,461.41Z"/><path class="cls-5" d="M2111,487.64a52.63,52.63,0,0,1,6.78-12.52,38.62,38.62,0,0,1,15.82-12.5q9.63-4.22,23.5-4.22,6,0,14.77.6a100.87,100.87,0,0,1,14.16,1.81l1.2-89.8a56.1,56.1,0,0,0-11-2.41,97.41,97.41,0,0,0-12.8-.9,48.88,48.88,0,0,0-31.19,10.85q-13.72,10.84-23.5,30.43c-.25.5-.48,1-.73,1.53l-2.74-36.78h-85.88v326H2111Z"/><path class="cls-1" d="M2267.42,655.62A129.24,129.24,0,0,0,2316.24,693q28.92,12.81,66.29,12.81,47,0,81.21-17.63a124.55,124.55,0,0,0,53-51.83q18.82-34.2,19.73-83.92h-95.22q0,30.44-6.48,46.7t-19.43,22.45q-13,6.18-32.85,6.18-18.08,0-29.53-5.87t-18.08-19.29q-6.63-13.41-9.19-35.11t-2.56-53V445.74q0-31.33,3.31-52.88t10.25-35.11q6.93-13.56,18.38-19.28t27.42-5.73q22.3,0,35.11,7.08t18.53,24.11q5.72,17,5.42,47.16h95.83q-2.72-49.72-20.8-84.67t-51.52-53.34q-33.45-18.37-82.57-18.38-35.87,0-64.64,12.65a130.1,130.1,0,0,0-49,37.37q-20.19,24.7-31,60.27T2227,446.35v68.1q0,45.81,10.25,81.21T2267.42,655.62Z"/><path class="cls-5" d="M3039.59,367.7a48.88,48.88,0,0,0-31.19,10.85q-13.71,10.84-23.5,30.43c-.25.5-.48,1-.73,1.53l-2.74-36.78h-85.88v326h91.61V487.64a52.63,52.63,0,0,1,6.78-12.52,38.62,38.62,0,0,1,15.82-12.5q9.64-4.22,23.5-4.22,6,0,14.77.6a100.87,100.87,0,0,1,14.16,1.81l1.2-89.8a56,56,0,0,0-11-2.41A97.56,97.56,0,0,0,3039.59,367.7Z"/><path class="cls-4" d="M3353.05,523.79q0-39.46-8.29-68.7t-24.25-48.67A98.94,98.94,0,0,0,3281,377.34q-23.51-9.64-54.24-9.64-32.25,0-57.1,10.09a105.12,105.12,0,0,0-41.59,30q-16.72,19.88-25.31,49.57t-8.59,69.15v30.74q0,35.57,9.34,63T3131,666.77q18.08,19.14,44.44,29.08t60.72,9.95q28,0,49.72-6.93t37.37-17.63q15.66-10.69,24.1-21.55l-37.06-56.35a83.56,83.56,0,0,1-30.13,21.1,97.64,97.64,0,0,1-37.67,7.23,73.87,73.87,0,0,1-24.26-3.62,40.8,40.8,0,0,1-17.63-11.9q-7.23-8.28-10.84-22.6a132.76,132.76,0,0,1-3.43-26.67h166.75Zm-89.8-18.68h-76.71q.42-9.5,1.23-17.48,1.65-16.28,5.87-26.22t12.21-14.61q8-4.67,20.64-4.67,12.95,0,20.94,5.12t11.9,17q3.91,11.91,3.92,31.79Z"/><rect class="cls-6" x="2625.51" y="283.05" width="31" height="56.17" rx="6.99"/><rect class="cls-6" x="2694.35" y="283.05" width="31" height="56.17" rx="6.99"/><rect class="cls-6" x="2763.2" y="283.05" width="31" height="56.17" rx="6.99"/><rect class="cls-7" x="2625.51" y="734.28" width="31" height="56.17" rx="6.99"/><rect class="cls-7" x="2694.35" y="734.28" width="31" height="56.17" rx="6.99"/><rect class="cls-7" x="2763.2" y="734.28" width="31" height="56.17" rx="6.99"/><path class="cls-8" d="M2807.16,367.7H2612.55a36.18,36.18,0,0,0-36.19,36.18V669.62a36.18,36.18,0,0,0,36.19,36.18h194.61a36.18,36.18,0,0,0,36.19-36.18V403.88A36.18,36.18,0,0,0,2807.16,367.7Zm-20.91,229.61a36.18,36.18,0,0,1-36.18,36.19h-80.43a36.18,36.18,0,0,1-36.18-36.19V476.18A36.18,36.18,0,0,1,2669.64,440h80.43a36.18,36.18,0,0,1,36.18,36.18Z"/><rect class="cls-7" x="1437.03" y="734.28" width="31" height="56.17" rx="6.99"/><path class="cls-9" d="M2712.4,818.92h-5.13a1.72,1.72,0,0,0-1.72,1.72v14.83a7,7,0,0,1-7,7H1463.82a7,7,0,0,1-7-7V820.64a1.72,1.72,0,0,0-1.72-1.72h-5.13a1.72,1.72,0,0,0-1.72,1.72V844a7,7,0,0,0,7,7H2707.09a7,7,0,0,0,7-7v-23.4A1.72,1.72,0,0,0,2712.4,818.92Z"/><path class="cls-10" d="M530,462q-20.64-34-59.17-61c-32.24-22.57-64.36-36.12-96.4-40.38a156.23,156.23,0,0,0-92.05,15.07l-1.23.63V303.21h-8.57V381c-4.55,2.61-9,5.46-13.46,8.59A188.64,188.64,0,0,0,239,405.63a256.46,256.46,0,0,0-19.26,19.43,69.4,69.4,0,0,1-6,4.47c-12.36,8.07-24.37,11.11-36.26,9.11s-24.68-7.81-38.29-17.34Q120.51,408.22,112.92,394c-5-9.57-6.56-20.53-4.72-32.93s7.22-26.68,15.91-42.84,20.54-35,35.64-56.54l49.55-70.76q22.63-32.34,41.61-52.1c12.69-13.23,24.55-22.84,35.88-28.86s22.26-8.11,32.91-6.58,21.37,6.14,32.41,13.88c15.28,10.7,25.65,21.65,31,32.63s6,23.8,1.7,38.19-13.72,32-28.37,52.54l98.77,69.16q33-53.1,39.58-102.23c4.46-32.68-.43-63.49-14.55-92.21S442.15,60.47,408.4,36.84C383.75,19.58,358.46,8.32,332.64,3.27a163.2,163.2,0,0,0-77.44,3c-25.81,7.34-50.89,20.59-75.53,39.8s-47.82,44.6-69.84,76.05L60.72,192.3c-22.09,31.54-38.13,61.78-48.13,91.11s-14,57.07-12.14,83.53a161.26,161.26,0,0,0,23.29,73.72q20.54,34.13,59.1,61.13,48.38,33.87,96.4,40.38T271.35,527l1.23-.63v73.17h8.57V521.74c4.55-2.61,9.05-5.46,13.47-8.59a194,194,0,0,0,20.08-16.08A231.28,231.28,0,0,0,334,477.64a71,71,0,0,1,6-4.47c12.3-8,24.31-11,36.2-9s24.75,7.72,38.35,17.25q18.69,13.08,26.21,27.43c5,9.57,6.56,20.53,4.72,32.93s-7.22,26.68-15.9,42.84S409,619.58,394,641.05L344.38,711.9c-15.1,21.56-28.93,38.87-41.61,52.1S278.22,786.83,267,792.77,244.62,801,234,799.35s-21.46-6.21-32.42-13.88c-15.28-10.7-25.71-21.56-31.06-32.54s-6-23.8-1.72-38.34q6.41-21.57,28.45-52.48L98.53,593Q65.4,646.19,58.88,695.26c-4.46,32.69.49,63.41,14.62,92.13s38,54.93,71.77,78.56c24.65,17.26,49.95,28.52,75.77,33.57a163.48,163.48,0,0,0,77.5-3.13c25.74-7.25,50.82-20.51,75.47-39.72q36.74-28.77,69.83-76L493,710.4q33-47.17,48.07-91,15-44,12.2-83.62A163.31,163.31,0,0,0,530,462Z"/><rect class="cls-11" x="261.37" y="230.16" width="31" height="56.17" rx="6.99"/><rect class="cls-12" x="261.37" y="616.43" width="31" height="56.17" rx="6.99"/></g></g></svg>