<svg xmlns="http://www.w3.org/2000/svg" xmlns:xlink="http://www.w3.org/1999/xlink" viewBox="0 0 419 317.26"><defs><style>.cls-1,.cls-2{opacity:0.3;}.cls-1{fill:url(#linear-gradient);}.cls-2{fill:url(#linear-gradient-2);}.cls-3{fill:url(#linear-gradient-3);}.cls-4{fill:url(#linear-gradient-4);}.cls-5{fill:url(#linear-gradient-5);}.cls-6{fill:url(#linear-gradient-6);}.cls-7{fill:url(#linear-gradient-7);}.cls-8{fill:url(#linear-gradient-8);}.cls-9{fill:url(#linear-gradient-9);}.cls-10{fill:url(#linear-gradient-10);}.cls-11{fill:url(#linear-gradient-11);}.cls-12{fill:url(#linear-gradient-12);}.cls-13{fill:url(#linear-gradient-13);}</style><linearGradient id="linear-gradient" x1="641.17" y1="-393.39" x2="769.17" y2="-393.39" gradientTransform="translate(-664.72 514.38)" gradientUnits="userSpaceOnUse"><stop offset="0" stop-color="#3fa4dc"/><stop offset="1" stop-color="#1c489f"/></linearGradient><linearGradient id="linear-gradient-2" x1="301.83" y1="232.71" x2="477.83" y2="232.71" gradientTransform="translate(-4.38 -14.72)" xlink:href="#linear-gradient"/><linearGradient id="linear-gradient-3" x1="34.27" y1="28.04" x2="366.7" y2="317.57" gradientTransform="matrix(1, 0, 0, 1, 0, 0)" xlink:href="#linear-gradient"/><linearGradient id="linear-gradient-4" x1="120.19" y1="-70.61" x2="452.62" y2="218.92" gradientTransform="matrix(1, 0, 0, 1, 0, 0)" xlink:href="#linear-gradient"/><linearGradient id="linear-gradient-5" x1="71.07" y1="-14.21" x2="403.49" y2="275.32" gradientTransform="matrix(1, 0, 0, 1, 0, 0)" xlink:href="#linear-gradient"/><linearGradient id="linear-gradient-6" x1="120.63" y1="-71.12" x2="453.06" y2="218.42" gradientTransform="matrix(1, 0, 0, 1, 0, 0)" xlink:href="#linear-gradient"/><linearGradient id="linear-gradient-7" x1="-50.94" y1="125.88" x2="281.49" y2="415.41" gradientTransform="matrix(1, 0, 0, 1, 0, 0)" xlink:href="#linear-gradient"/><linearGradient id="linear-gradient-8" x1="-10.9" y1="79.91" x2="321.52" y2="369.44" gradientTransform="matrix(1, 0, 0, 1, 0, 0)" xlink:href="#linear-gradient"/><linearGradient id="linear-gradient-9" x1="-5.12" y1="73.27" x2="327.3" y2="362.81" gradientTransform="matrix(1, 0, 0, 1, 0, 0)" xlink:href="#linear-gradient"/><linearGradient id="linear-gradient-10" x1="24" y1="39.83" x2="356.43" y2="329.37" gradientTransform="matrix(1, 0, 0, 1, 0, 0)" xlink:href="#linear-gradient"/><linearGradient id="linear-gradient-11" x1="74.71" y1="-18.39" x2="407.14" y2="271.14" gradientTransform="matrix(1, 0, 0, 1, 0, 0)" xlink:href="#linear-gradient"/><linearGradient id="linear-gradient-12" x1="-12.37" y1="210.8" x2="424.23" y2="98.97" gradientTransform="matrix(1, 0, 0, 1, 0, 0)" xlink:href="#linear-gradient"/><linearGradient id="linear-gradient-13" x1="-14.74" y1="201.53" x2="421.85" y2="89.7" gradientTransform="matrix(1, 0, 0, 1, 0, 0)" xlink:href="#linear-gradient"/></defs><g id="Layer_2" data-name="Layer 2"><g id="Layer_1-2" data-name="Layer 1"><rect class="cls-1" x="-23.55" y="104.99" width="128" height="32" transform="translate(-80.54 161.44) rotate(-90)"/><rect class="cls-2" x="297.45" y="201.99" width="176" height="32" transform="translate(603.44 -167.46) rotate(90)"/><path class="cls-3" d="M147.92,98.14a20.23,20.23,0,0,0-8-9.8A17.91,17.91,0,0,0,134.69,86a19.66,19.66,0,0,0,2.54-1.32A21.9,21.9,0,0,0,146,74.92a31.26,31.26,0,0,0,2.7-13,34.33,34.33,0,0,0-2.59-13.87,25.79,25.79,0,0,0-7.48-9.82,31.65,31.65,0,0,0-11.82-5.84A60.43,60.43,0,0,0,111,30.53H75.34v114h38.59q12,0,20-3.81a26.18,26.18,0,0,0,12.18-11.27q4.11-7.47,4.1-18.59A35,35,0,0,0,147.92,98.14ZM100.24,50.73H111a16.72,16.72,0,0,1,7.37,1.4,8.59,8.59,0,0,1,4.1,4.5,21.21,21.21,0,0,1,1.29,8.11,18.39,18.39,0,0,1-1.29,7.37,9.08,9.08,0,0,1-4.19,4.5,16.26,16.26,0,0,1-7.59,1.51H100.24Zm24.16,66.85a10.34,10.34,0,0,1-3.65,5,11.13,11.13,0,0,1-6.82,1.85H100.24v-29H114.8a9.88,9.88,0,0,1,6.3,1.84,10.63,10.63,0,0,1,3.37,5.24,27.15,27.15,0,0,1,1,8A20.87,20.87,0,0,1,124.4,117.58Z"/><path class="cls-4" d="M209.92,0l-15.5,24.43h20L236.15,0Z"/><path class="cls-5" d="M217,30.53H194.19l-35.47,114h26.54l5.59-22.4h29.67l5.61,22.4h26.54ZM195.89,102l9.77-39.13,9.8,39.13Z"/><path class="cls-6" d="M343.26,30.53v114H318.83L286.57,73.59v70.93H262.3v-114h24.35l32.41,71.32V30.53Z"/><path class="cls-7" d="M84.89,250.24h24.74q-.22,12.92-5.13,21.8a32.32,32.32,0,0,1-13.78,13.47q-8.88,4.58-21.1,4.58a42.12,42.12,0,0,1-17.22-3.33,33.51,33.51,0,0,1-12.68-9.71,43.5,43.5,0,0,1-7.83-15.58,75.81,75.81,0,0,1-2.66-21.1V222.68A72.78,72.78,0,0,1,32,201.54a45.32,45.32,0,0,1,8.07-15.66,33.75,33.75,0,0,1,12.72-9.71,41.3,41.3,0,0,1,16.79-3.29q12.76,0,21.46,4.78a32.34,32.34,0,0,1,13.38,13.86q4.71,9.07,5.41,22H85q.07-7.83-1.41-12.25A10.68,10.68,0,0,0,78.75,195c-2.22-1.22-5.26-1.84-9.13-1.84a15.79,15.79,0,0,0-7.12,1.49,10.89,10.89,0,0,0-4.78,5,30.58,30.58,0,0,0-2.66,9.12,92.94,92.94,0,0,0-.86,13.74v17.85a118.72,118.72,0,0,0,.67,13.78,28.38,28.38,0,0,0,2.38,9.12,10.69,10.69,0,0,0,4.7,5,16.77,16.77,0,0,0,7.67,1.53,19.87,19.87,0,0,0,8.54-1.6,10.35,10.35,0,0,0,5-5.84Q84.89,258.14,84.89,250.24Z"/><polygon class="cls-8" points="203.74 174.53 203.74 288.53 178.99 288.53 178.99 240.38 147.53 240.38 147.53 288.53 122.63 288.53 122.63 174.53 147.53 174.53 147.53 220.25 178.99 220.25 178.99 174.53 203.74 174.53"/><path class="cls-9" d="M272,298a16.67,16.67,0,0,0-19.78,0,10.32,10.32,0,0,0-3.74,8.11,10.13,10.13,0,0,0,3.74,8,16.84,16.84,0,0,0,19.78,0,10,10,0,0,0,3.81-8A10.23,10.23,0,0,0,272,298Z"/><path class="cls-10" d="M273.26,174.53H250.39l-35.45,114h26.54l5.59-22.4h29.67l5.61,22.4h26.54ZM252.11,246l9.77-39.13,9.8,39.13Z"/><path class="cls-11" d="M330.65,174.53,346.54,225l16-50.42h26.85l-30.22,72.89v41.1H333.94v-41.1l-30.22-72.89Z"/><polygon class="cls-12" points="412.88 70.3 343.26 86.26 343.26 91.39 414 75.17 414 80.21 414 124.75 414 129.78 203.74 177.97 203.74 183.1 415.12 134.66 419 133.76 419 129.78 419 124.75 419 80.21 419 75.17 419 68.9 412.88 70.3"/><path class="cls-13" d="M29.23,222.68c0-1.62.05-3.2.12-4.74L5,223.52V168.91l106.38-24.38H89L3.88,164,0,164.93V229.8l6.12-1.41,23.11-5.29Z"/></g></g></svg>