<svg xmlns="http://www.w3.org/2000/svg" viewBox="0 0 92.92 171.23"><defs><style>.cls-1{fill:#3fa4dc;}.cls-2{fill:#1c489f;}.cls-3{fill:#4689c8;}</style></defs><g id="Layer_2" data-name="Layer 2"><g id="Layer_1-2" data-name="Layer 1"><path class="cls-1" d="M26,77.48c-.21-1.84,1-3.22,1.67-4.71,6.54-14,13.18-28,19.8-42.06,1.67-3.54,3.41-7.06,5-10.63a2.61,2.61,0,0,1,2.56-1.63c2.08-.12,4.15-.37,6.23-.55A1.85,1.85,0,0,0,63,16.77c2-4.39,4.2-8.73,6.14-13.16A3,3,0,0,1,72.2,1.42C77.4,1.12,82.58.53,87.77.11a3.84,3.84,0,0,1,2.34.15C89.64,2.72,88.24,4.79,87.25,7c-1.06,2.42-2.25,4.79-3.36,7.19-.29.64-.65,1.16.33,1.61s.48,1.39.16,2.05c-1.73,3.67-3.32,7.4-5.06,11.07-5,10.55-9.95,21.14-15,31.69-2,4.22-3.91,8.48-6,12.65a4.43,4.43,0,0,1-1,1.56,82.37,82.37,0,0,1-8.72.93c-7.07.63-14.16,1-21.21,1.78A4.46,4.46,0,0,1,26,77.48Z"/><path class="cls-2" d="M57.25,74.66q3.95-8.39,7.88-16.78,6.5-13.79,13-27.58c2.15-4.59,4.28-9.19,6.52-14-2.85.05-1.66-1.26-1.06-2.52,2-4.25,4-8.54,6-12.8a4.7,4.7,0,0,1,.52-.74c3.61,5,3.59,5,.82,10.57-1.19,2.41-2.27,4.89-3.47,7.3a1.75,1.75,0,0,0,.24,2C89,22,90.27,23.9,91.61,25.74a2.22,2.22,0,0,1,.26,2.53Q81.44,50.19,71.08,72.11c-1.78,3.77-3.53,7.55-5.31,11.32a4.33,4.33,0,0,1-1.17,1.84c-1.31-.4-1.83-1.59-2.47-2.59-1.24-2-2.63-3.82-4-5.71A3,3,0,0,1,57.25,74.66Z"/><path class="cls-1" d="M0,167.72l8.63-18.45q6.62-14,13.24-28.07c2.64-5.59,5.25-11.2,8-16.74.64-1.32.9-2.4-.2-3.5-2.67-2.68-3.07-5.43-.8-8.7,1.31-1.88,2-4.18,3-6.29.16-2.3,1.4-4.15,2.52-6a2.15,2.15,0,0,1,1.77-.86c4.33-.47,8.67-.84,13-1,.68,0,1.42-.06,1.43,1-1.37,3.81-3.36,7.34-5,11a21.45,21.45,0,0,1-2.8,5.34,6.8,6.8,0,0,1-3.38.65c-3.24.17-6.46.63-9.7.83-1.17.07-1.57.37-.83,1.54,1.75,2.75,1.71,2.77,3.39,0,1.15-1.89,2.7-2.31,4.68-1.23a2.9,2.9,0,0,1,1.43,4.09c-2,3-3.18,6.33-4.73,9.51-3.43,7.05-6.71,14.17-10.05,21.26Q18,143.81,12.44,155.59c-2.25,4.75-4.26,9.63-6.9,14.19a.64.64,0,0,1-.51-.16C3.76,167.91,2,167.58,0,167.72Z"/><path class="cls-3" d="M50.35,79c-.06-.41-.2-.61-.71-.57-4.45.38-8.91.75-13.36,1.07A2.25,2.25,0,0,0,34.2,81c-.75,1.68-1.56,3.33-2.35,5L26,77.48c2.67-.84,5.45-.77,8.18-1,7.26-.63,14.53-1.21,21.79-1.8.43,0,.86,0,1.29,0L64.6,85.27a77,77,0,0,1-11,.94c-.11-.06-.26-.17-.24-.25C54.09,82.88,52.16,81,50.35,79Z"/><path class="cls-2" d="M50.35,79c2,.57,4.12,4.13,3.48,6a2.08,2.08,0,0,0-.26,1.22c-1.73,2.33-2.55,5.11-3.91,7.63-1.1,2-1.78,4.27-3.07,6.21a.91.91,0,0,1-1.31-.09c-1.36-1.34-2.79-2.68-2.61-4.86Z"/><path class="cls-3" d="M42.67,95.1A16.22,16.22,0,0,0,44.94,99a2.22,2.22,0,0,0,1.64,1c0,.64-.52.76-1,.78-2.39.09-4.77.6-7.19.4a3.62,3.62,0,0,0-.64-2.93c-1.67-1.92-4-1.66-5.28.69-1.64,3-1.66,3-3.57.13-.49-.73-1.64-1.46-1.18-2.29s1.66-.4,2.57-.49C34.4,96,38.53,95.52,42.67,95.1Z"/><path class="cls-3" d="M0,167.72c2.34-1.06,3.59-.59,5.53,2.06,0,1.13-.63,1.49-1.65,1.45C1.36,171.14-.15,169.78,0,167.72Z"/><path class="cls-3" d="M80.54,8.32c.54-1.16,1-2.2,1.49-3.22A.7.7,0,0,1,83,4.73c.48.23.26.67,0,.91C82.19,6.47,82.62,8.4,80.54,8.32Z"/><path class="cls-3" d="M80.65,5.12c.24.4-1.31,3.46-1.67,3.5a.51.51,0,0,1-.59-.3c-.17-.4,1.23-3.15,1.68-3.24A1.55,1.55,0,0,1,80.65,5.12Z"/><path class="cls-3" d="M73.44,5.73c.31.51-1.16,3.41-1.7,3.44a.56.56,0,0,1-.45-.2C71,8.55,72.53,5.59,73,5.58A1.3,1.3,0,0,1,73.44,5.73Z"/><path class="cls-3" d="M75.91,5.29c.21,1.17-.69,1.86-.91,2.79a.85.85,0,0,1-.89.75c-.29,0-.51-.22-.39-.46a12,12,0,0,1,1.53-3.06C75.35,5.2,75.68,5.29,75.91,5.29Z"/><path class="cls-3" d="M75.63,8.89c.7-1.39,1.17-2.36,1.69-3.31a.6.6,0,0,1,.78-.27c.12.05.25.35.19.44C77.68,6.81,77.74,8.39,75.63,8.89Z"/></g></g></svg>