<svg xmlns="http://www.w3.org/2000/svg" viewBox="0 0 18.97 26.09"><defs><style>.cls-1{fill:#1d2449;fill-rule:evenodd;}</style></defs><g id="Layer_2" data-name="Layer 2"><g id="Layer_1-2" data-name="Layer 1"><g id="Layer_2-2" data-name="Layer 2"><g id="Layer_1-2-2" data-name="Layer 1-2"><g id="Layer_2-2-2" data-name="Layer 2-2"><g id="Layer_1-2-2-2" data-name="Layer 1-2-2"><path class="cls-1" d="M9.46,26.09a1,1,0,0,1-1.06-.94v-22L1.73,9A1.14,1.14,0,0,1,.29,9h0a.84.84,0,0,1,0-1.27h0L8.76.26a1.12,1.12,0,0,1,1.44,0h0l8.47,7.47a.85.85,0,0,1,0,1.3,1.14,1.14,0,0,1-1.49,0l-6.66-5.9v22a1,1,0,0,1-1.06.94"/></g></g></g></g></g></g></svg>