<svg xmlns="http://www.w3.org/2000/svg" viewBox="0 0 16 16"><defs><style>.cls-1{fill:#fff;fill-rule:evenodd;}</style></defs><g id="Layer_2" data-name="Layer 2"><g id="Layer_1-2" data-name="Layer 1"><path class="cls-1" d="M1.89.51a1.74,1.74,0,0,1,2.46,0L4.5.67,6.29,3a1.73,1.73,0,0,1,.32,1.49L6.06,6.66a.68.68,0,0,0,.18.65L8.69,9.76a.68.68,0,0,0,.65.18l2.19-.55A1.73,1.73,0,0,1,13,9.71l2.31,1.79a1.74,1.74,0,0,1,.16,2.61l-1,1a2.79,2.79,0,0,1-2.88.7,18.61,18.61,0,0,1-7-4.42,18.61,18.61,0,0,1-4.42-7,2.79,2.79,0,0,1,.7-2.88Z"/></g></g></svg>