<svg xmlns="http://www.w3.org/2000/svg" viewBox="0 0 300.59 127.47"><defs><style>.cls-1{fill:#4689c8;}</style></defs><g id="Layer_2" data-name="Layer 2"><g id="Layer_1-2" data-name="Layer 1"><path class="cls-1" d="M67.44,129.66v9.28H3.23v-6.65L43,70.7h9.22L42.36,88.53,16.05,129.66Zm-12.39-59v88.87H43.76V70.7Z" transform="translate(-3.23 -33.33)"/><path class="cls-1" d="M97.17,117.27l-9-2.31L92.59,70.7h45.59V81.14h-36l-2.68,24.17a33.34,33.34,0,0,1,6.19-2.62,30.58,30.58,0,0,1,19.69.88,23.41,23.41,0,0,1,8.33,6A26.87,26.87,0,0,1,139,119a38.7,38.7,0,0,1,1.83,12.27A38.06,38.06,0,0,1,139.07,143a26.51,26.51,0,0,1-5.22,9.37,23.26,23.26,0,0,1-8.76,6.2,32.28,32.28,0,0,1-12.42,2.19,34.11,34.11,0,0,1-10.16-1.49A25.29,25.29,0,0,1,94,154.72a23.82,23.82,0,0,1-6.1-7.69,30.13,30.13,0,0,1-3-10.83H95.64a21.18,21.18,0,0,0,2.93,8.42,14.13,14.13,0,0,0,5.77,5.16,18.81,18.81,0,0,0,8.33,1.74,17.1,17.1,0,0,0,7.14-1.41,14.07,14.07,0,0,0,5.25-4,18.39,18.39,0,0,0,3.27-6.34,28.92,28.92,0,0,0,1.13-8.37,25.47,25.47,0,0,0-1.16-7.81,18.47,18.47,0,0,0-3.45-6.29,15.9,15.9,0,0,0-5.59-4.18,18.21,18.21,0,0,0-7.56-1.49q-5.69,0-8.58,1.52A32.91,32.91,0,0,0,97.17,117.27Z" transform="translate(-3.23 -33.33)"/><path class="cls-1" d="M187.26,93.53v8.67H151.55V93.53Zm-23.62-16h11.29v65.73a9.84,9.84,0,0,0,1,5.07,5,5,0,0,0,2.68,2.26,11.32,11.32,0,0,0,3.54.55,16.41,16.41,0,0,0,3-.28c1-.18,1.82-.33,2.35-.45l.06,9.21a28.89,28.89,0,0,1-3.51.83,29.9,29.9,0,0,1-5.22.39,17.53,17.53,0,0,1-7.62-1.65,12,12,0,0,1-5.53-5.52q-2-3.87-2-10.47Z" transform="translate(-3.23 -33.33)"/><path class="cls-1" d="M217,103.91v55.66H205.75v-66h11Zm20.63-10.74-.06,10.49a19.3,19.3,0,0,0-2.65-.39c-.84-.06-1.78-.09-2.84-.09a18.08,18.08,0,0,0-6.9,1.22,14.26,14.26,0,0,0-5.06,3.41,16.05,16.05,0,0,0-3.27,5.22,25.26,25.26,0,0,0-1.56,6.62l-3.17,1.84a50.89,50.89,0,0,1,1.19-11.23A30.47,30.47,0,0,1,217,101a18.54,18.54,0,0,1,6.38-6.35,17.85,17.85,0,0,1,9.25-2.29,16.13,16.13,0,0,1,2.81.28A8.43,8.43,0,0,1,237.67,93.17Z" transform="translate(-3.23 -33.33)"/><path class="cls-1" d="M303.82,59.27V69.89H242.91V59.27ZM279,33.33V98H267.75V33.33Z" transform="translate(-3.23 -33.33)"/></g></g></svg>