<svg xmlns="http://www.w3.org/2000/svg" viewBox="0 0 16 15.48"><defs><style>.cls-1{fill:#fff;}</style></defs><g id="Layer_2" data-name="Layer 2"><g id="Layer_1-2" data-name="Layer 1"><g id="Layer_2-2" data-name="Layer 2"><g id="Layer_1-2-2" data-name="Layer 1-2"><g id="Layer_2-2-2" data-name="Layer 2-2"><g id="Layer_1-2-2-2" data-name="Layer 1-2-2"><path class="cls-1" d="M15.5,5.23H14.07L14,5.1h0L11.14.34a.76.76,0,0,0-1-.25.74.74,0,0,0-.25,1l1.55,2.59h0l.91,1.52H3.68L4.79,3.38h0L6.15,1.12a.77.77,0,0,0-.26-1,.77.77,0,0,0-1,.26L2,5.1H2l-.08.13H.5a.5.5,0,0,0-.5.5v1a.5.5,0,0,0,.5.5h15a.5.5,0,0,0,.5-.5v-1A.5.5,0,0,0,15.5,5.23Z"/></g></g></g></g><path class="cls-1" d="M15.26,8.48,13.8,14.72a1,1,0,0,1-1,.76H3.2a1,1,0,0,1-1-.76L.71,8.48Z"/></g></g></svg>