<svg xmlns="http://www.w3.org/2000/svg" xmlns:xlink="http://www.w3.org/1999/xlink" viewBox="0 0 1920 1413"><defs><style>.cls-1{fill:url(#linear-gradient);}.cls-2{opacity:0.3;}.cls-3{fill:#fff;}.cls-4{fill:url(#linear-gradient-2);}.cls-5{fill:url(#linear-gradient-3);}.cls-6{fill:url(#linear-gradient-4);}.cls-7{fill:#1d2449;}.cls-8{fill:url(#linear-gradient-5);}.cls-9{fill:url(#linear-gradient-6);}.cls-10{fill:url(#linear-gradient-7);}.cls-11{fill:url(#linear-gradient-8);}.cls-12{fill:none;stroke:#ed1c24;stroke-miterlimit:10;}.cls-13{fill:url(#linear-gradient-9);}.cls-14{fill:url(#linear-gradient-10);}.cls-15{fill:url(#linear-gradient-11);}.cls-16{fill:url(#linear-gradient-12);}.cls-17{fill:url(#linear-gradient-13);}.cls-18{fill:url(#linear-gradient-14);}.cls-19{fill:url(#linear-gradient-15);}.cls-20{fill:url(#linear-gradient-16);}.cls-21{fill:url(#linear-gradient-17);}.cls-22{fill:url(#linear-gradient-18);}.cls-23{fill:url(#linear-gradient-19);}.cls-24{fill:url(#linear-gradient-20);}</style><linearGradient id="linear-gradient" x1="-14.43" y1="279.48" x2="1844.94" y2="1094.31" gradientUnits="userSpaceOnUse"><stop offset="0" stop-color="#3fa4dc"/><stop offset="1" stop-color="#1c489f"/></linearGradient><linearGradient id="linear-gradient-2" x1="1152.37" y1="531.69" x2="1147.31" y2="419.87" gradientUnits="userSpaceOnUse"><stop offset="0" stop-color="#b0e7ff"/><stop offset="1" stop-color="#3fa4dc"/></linearGradient><linearGradient id="linear-gradient-3" x1="1154.05" y1="525.05" x2="1150.83" y2="413.46" gradientUnits="userSpaceOnUse"><stop offset="0" stop-color="#3fa4dc"/><stop offset="1" stop-color="#4689c8"/></linearGradient><linearGradient id="linear-gradient-4" x1="1054.31" y1="456.85" x2="815.49" y2="290.73" xlink:href="#linear-gradient-3"/><linearGradient id="linear-gradient-5" x1="829.09" y1="352.96" x2="872.8" y2="317.99" xlink:href="#linear-gradient-3"/><linearGradient id="linear-gradient-6" x1="1154.8" y1="492.78" x2="764.47" y2="465.17" gradientUnits="userSpaceOnUse"><stop offset="0" stop-color="#4689c8"/><stop offset="1" stop-color="#1d2449"/></linearGradient><linearGradient id="linear-gradient-7" x1="856.23" y1="353.58" x2="846.26" y2="420.15" xlink:href="#linear-gradient"/><linearGradient id="linear-gradient-8" x1="852.99" y1="373.29" x2="851.61" y2="434.26" xlink:href="#linear-gradient"/><linearGradient id="linear-gradient-9" x1="1139.55" y1="529.35" x2="784.77" y2="473.67" gradientUnits="userSpaceOnUse"><stop offset="0" stop-color="#3fa4dc"/><stop offset="1" stop-color="#1d2449"/></linearGradient><linearGradient id="linear-gradient-10" x1="953.24" y1="703.38" x2="986.72" y2="530.48" xlink:href="#linear-gradient-2"/><linearGradient id="linear-gradient-11" x1="963.86" y1="708.49" x2="996.53" y2="560.78" xlink:href="#linear-gradient-3"/><linearGradient id="linear-gradient-12" x1="757.15" y1="578.26" x2="783.84" y2="436.07" xlink:href="#linear-gradient-2"/><linearGradient id="linear-gradient-13" x1="777.38" y1="506.38" x2="802.69" y2="440.81" xlink:href="#linear-gradient-3"/><linearGradient id="linear-gradient-14" x1="758.31" y1="575.39" x2="769.05" y2="501.15" xlink:href="#linear-gradient-3"/><linearGradient id="linear-gradient-15" x1="819.7" y1="621.76" x2="846.62" y2="479.23" xlink:href="#linear-gradient-2"/><linearGradient id="linear-gradient-16" x1="848.71" y1="550.97" x2="864.58" y2="500.35" xlink:href="#linear-gradient-3"/><linearGradient id="linear-gradient-17" x1="826.19" y1="622.79" x2="841.14" y2="532.83" xlink:href="#linear-gradient-3"/><linearGradient id="linear-gradient-18" x1="889.36" y1="673.94" x2="919.39" y2="501.73" xlink:href="#linear-gradient-2"/><linearGradient id="linear-gradient-19" x1="930.99" y1="592.19" x2="929.69" y2="547.09" xlink:href="#linear-gradient-3"/><linearGradient id="linear-gradient-20" x1="897.18" y1="661.89" x2="909.14" y2="580.45" xlink:href="#linear-gradient-3"/></defs><g id="Layer_2" data-name="Layer 2"><g id="Layer_1-2" data-name="Layer 1"><rect class="cls-1" width="1920" height="1413"/><g class="cls-2"><rect class="cls-3" x="834.68" y="196.89" width="235.97" height="539.22"/></g><path class="cls-4" d="M1154.93,520.1c.08,2.89-1.78,3.81-4.11,4.26-3-.31-4.64-2.2-4.44-6.37L1145,465.64h0l.68-16.77.18-4.31,1-23.37a11.52,11.52,0,0,1,4.37,2.13h0c.94,1.37,1.66,4.24,2,9.81l.46,6.39,0,1.27v1l0,4.1v0Z"/><path class="cls-5" d="M1156.27,518.14c-.1,4.07-1.75,6.34-5.45,6.22,2.33-.45,4.19-1.37,4.11-4.26l-1.24-74.22v0l0-4.1v-1l0-1.27-.46-6.39c-.32-5.57-1-8.44-2-9.81,2.1,1.73,3.33,4.36,3.38,8.22Z"/><path class="cls-6" d="M1137.1,402.67h0a17.41,17.41,0,0,0-2.59-1.78L915,263.41c-3.95-2.75-7.65-2.91-11,.15l-27.76,26.77a5.85,5.85,0,0,0-.38.49h0c-2,2.78-1.51,5.37-.19,7.91,6.54,13.19,4.88,24-1.36,31.9-9.58,12.16-29.95,17.53-47.95,14.4q-1.82-.31-3.6-.75c-2.56-.82-5-.7-7,1.27l-30.41,30.1c-1.79,2.1-2,4.26.84,6.52l226.32,143.57c4.2,2.74,8,2.83,11.51,0L1133.46,419.4C1140.17,413.14,1142.72,407.4,1137.1,402.67ZM879.9,389.94c-5.76,6.65-15.76,11.06-27.14,11.06s-21.39-4.41-27.15-11.07a20,20,0,0,1-5.18-13.16c0-13.37,14.48-24.22,32.33-24.22s32.33,10.85,32.33,24.22A20,20,0,0,1,879.9,389.94Z"/><path class="cls-7" d="M874.29,330.63c3.33-7.49,3.85-15.08-7-23.09,3.17-8.82,6-14.08,8.55-16.72-2,2.78-1.51,5.37-.19,7.91C882.19,311.92,880.53,322.72,874.29,330.63Z"/><path class="cls-8" d="M874.29,330.63c-9.58,12.16-29.95,17.53-47.95,14.4l40.95-37.49C878.14,315.55,877.62,323.14,874.29,330.63Z"/><path class="cls-9" d="M1152.36,438,1019.07,572.14c-2.12,2.19-4.73,2.48-8.06,0l-12-7.93h0l-20.9-13.86-34.57-22.92h0l-34.63-23L770.62,412.73l8.92-29c.57-1.86,2.27-4.42,5.77-8.09-1.79,2.1-2,4.26.84,6.52l226.32,143.57c4.2,2.74,8,2.83,11.51,0L1133.46,419.4c6.71-6.26,9.26-12,3.64-16.73,2.72,1.68,4.63,3.28,5.14,4.73l4.56,13.79Z"/><path class="cls-10" d="M852.76,352.55c-17.85,0-32.33,10.85-32.33,24.22a20,20,0,0,0,5.18,13.16c5.76,6.66,15.77,11.07,27.15,11.07s21.38-4.41,27.14-11.06a20,20,0,0,0,5.19-13.17C885.09,363.4,870.61,352.55,852.76,352.55Zm25.65,30.92c-3.7,7.94-13.79,13.65-25.65,13.65s-22-5.71-25.64-13.65a15.74,15.74,0,0,1-1.51-6.7c0-11.23,12.16-20.34,27.15-20.34s27.15,9.11,27.15,20.34A15.88,15.88,0,0,1,878.41,383.47Z"/><path class="cls-7" d="M879.91,376.77a15.88,15.88,0,0,1-1.5,6.7c-3.7-8-13.78-13.66-25.65-13.66s-22,5.71-25.64,13.66a15.74,15.74,0,0,1-1.51-6.7c0-11.23,12.16-20.34,27.15-20.34S879.91,365.54,879.91,376.77Z"/><ellipse class="cls-11" cx="852.76" cy="383.47" rx="25.65" ry="13.65"/><path class="cls-7" d="M1154.2,440.22,1019.38,576.89c-2.43,2.45-5.39,2.77-9.13,0l-9.08-6.09-28.81-19.33L944.77,533l-43.15-29h0l-30-20.15h0l-35-23.5L802.47,437.5l-18.19-12.2h0l-17.53-11.76,3.87-.81,138.32,91.72,34.63,23h0l34.57,22.92,20.9,13.86h0l12,7.93c3.33,2.48,5.94,2.19,8.06,0L1152.36,438l1.26,1.52h0Z"/><path class="cls-12" d="M909,504.45h0"/><path class="cls-13" d="M1154.2,440.22,1145,465.64h0l-2,5.49L1018.53,598.75c-2.61,2.56-5.95,2.91-10.12.69l-18.83-12.13L986,585l-28.4-18.29-25.36-16.33-1.29-.83-45.21-29.12-24.59-15.83-1.5-1-41-26.43-27.08-17.44-1.92-1.24-6.48-4.17-10.69-25.54-.25-.66-5.47-14.63,17.53,11.76h0l18.19,12.2,34.06,22.85,35,23.5h0l30,20.15h0l43.15,29,27.59,18.51,28.81,19.33,9.08,6.09c3.74,2.77,6.7,2.45,9.13,0Z"/><path class="cls-14" d="M1001.17,570.8a14,14,0,0,1-1.73,4.32L988.32,583a21.41,21.41,0,0,0-2.3,2c-2.82,2.84-3.89,6-4.45,10.74L965.08,711.94l-7.14-5.6,5.3-58.82c.69-9.78,1.44-17.75-5.3-23.47-4.46-4.24-6.62-11.35-5-23.15l3.68-29.31a19.15,19.15,0,0,1,1-4.87,24.84,24.84,0,0,1,14.75-15.25,20.1,20.1,0,0,1,5.78-1.13l20.9,13.86A6.77,6.77,0,0,1,1001.17,570.8Z"/><path class="cls-15" d="M999.44,575.12,992.08,585a21.85,21.85,0,0,0-2.5,2.3,14.55,14.55,0,0,0-4,8.06l-14.34,113-6.21,3.53,16.49-116.19c.56-4.77,1.63-7.9,4.45-10.74a21.41,21.41,0,0,1,2.3-2Z"/><path class="cls-16" d="M803.07,443.44,790.3,457.71c-.23.27-.45.55-.66.83-2.38,3.15-3.7,6.88-3.87,12.43l-.54,28.92a3.33,3.33,0,0,1-1.91,3.45l-13.62,1.19c-2.51.31-3.71,2.42-4,5.75l-5.41,65.92-3.8,4.25-4.25-17.72L760,454.14c.77-9.17.83-12.72,10.59-24.27a16.06,16.06,0,0,1,1.59-1.7c2.89-2.69,6.7-4.14,12.06-2.88h0l18.19,12.21A4.78,4.78,0,0,1,803.07,443.44Z"/><path class="cls-17" d="M803.07,443.44l-7.48,12a15.35,15.35,0,0,0-4,4.37c-1.36,2.28-2.15,5.21-2.3,9.43l-1.88,27c-.51,5.92-2.13,7.17-4.06,7.15a3.33,3.33,0,0,0,1.91-3.45l.54-28.92c.17-5.55,1.49-9.28,3.87-12.43.21-.28.43-.56.66-.83Z"/><path class="cls-18" d="M769.7,504.53l-9.43,71.67,5.41-65.92C766,507,767.19,504.84,769.7,504.53Z"/><path class="cls-19" d="M870.59,493.6l-6.67,6a23.7,23.7,0,0,0-4.24,4.06c-2.06,2.63-3,5.5-3.43,9.51l-3.14,31.14c-.31,2.43-1.82,3.72-4,4.38a16.47,16.47,0,0,1-3.23,0l-5.29-.11h-2.34c-2,.19-3,1.55-3.3,4.83l-8.41,70.78-3.32.54-5.87-11.39,5.41-62.23c.5-5.68-.43-8.78-3.22-11.62-3.43-3.65-3.7-10-3.45-16.8l2.06-37.62c.09-3,.24-5.61.51-7.86.6-4.86,1.78-8.09,4.15-10.48l5.41-4.89c2.8-2.24,5.57-2.16,8.32-1.51h0l35,23.51h0C874.18,487,873.79,490.25,870.59,493.6Z"/><path class="cls-20" d="M863.92,499.58a8.59,8.59,0,0,0-2.75,5q-.15.67-.24,1.41l-4.25,33.83c-.49,5.92-3.37,8.34-7.59,8.82,2.2-.66,3.71-1.95,4-4.38l3.14-31.14c.39-4,1.37-6.88,3.43-9.51A23.7,23.7,0,0,1,863.92,499.58Z"/><path class="cls-21" d="M840.57,548.59l-11.73,75.23-2.32.38,8.41-70.78c.35-3.28,1.35-4.64,3.3-4.83Z"/><path class="cls-22" d="M944.77,533a8.57,8.57,0,0,1-3.31,6.37L933.71,547c-1.08.94-2,1.78-2.74,2.58a9.86,9.86,0,0,0-3.09,7L927,592.3c-2.15,2.25-5.31,3.17-9.36,2.92l-9.51-.54c-3.17,0-5.64,2.37-5.93,8.26L899,661.55h0l-7.6,4.83-6.68-7.48,6.91-52.34c.66-4.34.42-7.26-.69-9.21,1.23-12.88,1.35-14.26-3.57-19.21-6-5.16-7.55-10.16-6.37-21.43l3.07-29.31a21,21,0,0,1,1.67-7c1.15-2.39,3.09-4.63,6.77-9.12,3.41-4.47,6.37-6.54,9.09-7.31a12.63,12.63,0,0,1,7.33.44l34.62,23A12.64,12.64,0,0,1,944.77,533Z"/><path class="cls-23" d="M933.71,547a16.87,16.87,0,0,0-1.44,3.42,48.53,48.53,0,0,0-.78,8.85l-1.31,24.85c-.36,3.66-1.45,6.38-3.21,8.2l.91-35.73a9.86,9.86,0,0,1,3.09-7C931.72,548.76,932.63,547.92,933.71,547Z"/><path class="cls-24" d="M908.1,594.68l-6.91,65.5L899,661.55l3.15-58.61C902.46,597.05,904.93,594.65,908.1,594.68Z"/><path class="cls-3" d="M557.09,464h16.34a52.24,52.24,0,0,1-6.72,21,39,39,0,0,1-15.4,14.67q-10,5.4-24.84,5.4A46.88,46.88,0,0,1,506.69,501a43.61,43.61,0,0,1-15.27-11.61,53.18,53.18,0,0,1-9.83-18.12,76.26,76.26,0,0,1-3.44-23.61V435.34a76.26,76.26,0,0,1,3.44-23.61,52.29,52.29,0,0,1,10-18.16,43.91,43.91,0,0,1,15.69-11.66,50.44,50.44,0,0,1,20.67-4.08q14,0,23.74,5.27a38.21,38.21,0,0,1,15.1,14.59,53.54,53.54,0,0,1,6.68,21.57H557.09a46,46,0,0,0-4.42-14.93,23.1,23.1,0,0,0-9.19-9.66q-6-3.41-15.57-3.4a31.82,31.82,0,0,0-14.5,3.15A28.72,28.72,0,0,0,503,403.35a41.09,41.09,0,0,0-6.34,13.87,70.36,70.36,0,0,0-2.13,17.95v12.5a73.07,73.07,0,0,0,1.92,17.1,44.64,44.64,0,0,0,5.82,14,28.65,28.65,0,0,0,10,9.48,28.31,28.31,0,0,0,14.29,3.45q10.46,0,16.67-3.32a21.9,21.9,0,0,0,9.4-9.53A48.87,48.87,0,0,0,557.09,464Z"/><path class="cls-3" d="M601.42,379.53l32.15,62.19,32.24-62.19h18.63l-42.7,77.58v46.28H625.32V457.11l-42.7-77.58Z"/><path class="cls-3" d="M744.5,445.46H713.11l-.17-13.19h28.5a29.73,29.73,0,0,0,12.34-2.38,18.19,18.19,0,0,0,11.14-17.52q0-6.81-2.59-11.1a15,15,0,0,0-7.91-6.3,38.86,38.86,0,0,0-13.49-2H716.77V503.39H700.35V379.53h40.58a69.29,69.29,0,0,1,17,1.91,34.56,34.56,0,0,1,12.71,6,25.84,25.84,0,0,1,8,10.25,37,37,0,0,1,2.72,14.89,25.33,25.33,0,0,1-3.91,13.82,30.08,30.08,0,0,1-10.85,10.08,43.05,43.05,0,0,1-16.21,5Zm-.76,57.93H706.65L715.92,490h27.82a29.63,29.63,0,0,0,13.31-2.73,19.38,19.38,0,0,0,8.38-7.69,23.05,23.05,0,0,0,2.89-11.79,26.82,26.82,0,0,0-2.46-11.91,17.15,17.15,0,0,0-7.74-7.74q-5.28-2.71-13.62-2.72H721.11l.17-13.19h32l3.48,4.77a30.78,30.78,0,0,1,15.15,5.06A28.35,28.35,0,0,1,781.38,453a32.63,32.63,0,0,1,3.28,14.63q0,11.58-5.06,19.53a32,32,0,0,1-14.25,12.08Q756.16,503.4,743.74,503.39Z"/><path class="cls-3" d="M825.32,379.53V503.39H808.9V379.53Zm61.42,0V393H822V379.53Zm-7.82,53.25v13.36H822V432.78ZM887.59,490v13.35H822V490Z"/><path class="cls-3" d="M907.92,379.53h41q14,0,23.61,4.25a31.65,31.65,0,0,1,14.71,12.55q5.07,8.3,5.06,20.38a34.69,34.69,0,0,1-3.44,15.52A33.27,33.27,0,0,1,979,444.14a43.39,43.39,0,0,1-15.36,7.27l-4.59,1.79H920.51l-.17-13.36h29.1q8.85,0,14.72-3.1a21.21,21.21,0,0,0,8.84-8.38,23.25,23.25,0,0,0,3-11.65,26.59,26.59,0,0,0-2.81-12.51,18.94,18.94,0,0,0-8.8-8.29q-6-2.94-15.44-2.94H924.34V503.39H907.92Zm72.4,123.86L950.2,447.25l17.1-.09,30.54,55.21v1Z"/><path class="cls-3" d="M1090.06,464h16.33a52.09,52.09,0,0,1-6.72,21,39,39,0,0,1-15.39,14.67q-10,5.4-24.85,5.4a46.8,46.8,0,0,1-19.77-4.08,43.61,43.61,0,0,1-15.27-11.61,53,53,0,0,1-9.83-18.12,76,76,0,0,1-3.45-23.61V435.34a76,76,0,0,1,3.45-23.61,52.27,52.27,0,0,1,10-18.16,43.94,43.94,0,0,1,15.7-11.66,50.37,50.37,0,0,1,20.67-4.08q14,0,23.74,5.27a38.27,38.27,0,0,1,15.1,14.59,53.53,53.53,0,0,1,6.67,21.57h-16.33a46,46,0,0,0-4.42-14.93,23.1,23.1,0,0,0-9.19-9.66q-6-3.41-15.57-3.4a31.79,31.79,0,0,0-14.5,3.15,28.83,28.83,0,0,0-10.47,8.93,41.08,41.08,0,0,0-6.33,13.87,70.36,70.36,0,0,0-2.13,17.95v12.5a73.61,73.61,0,0,0,1.91,17.1,44.88,44.88,0,0,0,5.83,14,28.71,28.71,0,0,0,10,9.48,28.34,28.34,0,0,0,14.29,3.45q10.47,0,16.68-3.32a22,22,0,0,0,9.4-9.53A49.15,49.15,0,0,0,1090.06,464Z"/><path class="cls-3" d="M1224.05,437.55v7.82a83.25,83.25,0,0,1-3.49,25,53.77,53.77,0,0,1-10,18.8A43.67,43.67,0,0,1,1194.83,501a49.7,49.7,0,0,1-20.46,4.08,48.79,48.79,0,0,1-20.12-4.08,44.86,44.86,0,0,1-15.83-11.82,54.58,54.58,0,0,1-10.33-18.8,79.46,79.46,0,0,1-3.66-25v-7.82a80,80,0,0,1,3.61-25,55,55,0,0,1,10.26-18.8,44.12,44.12,0,0,1,15.78-11.87,48.79,48.79,0,0,1,20.12-4.08,49.62,49.62,0,0,1,20.45,4.08,43.72,43.72,0,0,1,15.74,11.87,54.46,54.46,0,0,1,10.13,18.8A81.84,81.84,0,0,1,1224.05,437.55Zm-16.25,7.82v-8a76.38,76.38,0,0,0-2.26-19.57,41.13,41.13,0,0,0-6.59-14.29,28.23,28.23,0,0,0-10.59-8.76,32.48,32.48,0,0,0-14.16-3,31.32,31.32,0,0,0-13.83,3,28.81,28.81,0,0,0-10.55,8.76,42.41,42.41,0,0,0-6.76,14.29,72.74,72.74,0,0,0-2.38,19.57v8a73.58,73.58,0,0,0,2.38,19.7,41.88,41.88,0,0,0,6.85,14.38,29.38,29.38,0,0,0,10.63,8.8,31.32,31.32,0,0,0,13.83,3,32.38,32.38,0,0,0,14.2-3,28,28,0,0,0,10.51-8.8,41.72,41.72,0,0,0,6.51-14.38A79.25,79.25,0,0,0,1207.8,445.37Z"/><path class="cls-3" d="M1248.55,379.53h41q14,0,23.61,4.25a31.72,31.72,0,0,1,14.72,12.55q5.05,8.3,5.06,20.38a34.7,34.7,0,0,1-3.45,15.52,33.27,33.27,0,0,1-9.87,11.91,43.43,43.43,0,0,1-15.35,7.27l-4.6,1.79h-38.53l-.17-13.36h29.09q8.85,0,14.72-3.1a21.3,21.3,0,0,0,8.85-8.38,23.34,23.34,0,0,0,3-11.65,26.59,26.59,0,0,0-2.8-12.51,19,19,0,0,0-8.81-8.29q-6-2.94-15.44-2.94H1265V503.39h-16.42Zm72.39,123.86-30.11-56.14,17.1-.09,30.54,55.21v1Z"/><path class="cls-3" d="M1372.32,379.53V503.39h-16.41V379.53Zm61.43,0V393H1369V379.53Zm-7.83,53.25v13.36H1369V432.78ZM1434.6,490v13.35H1369V490Z"/><rect class="cls-3" x="485" y="820.5" width="82" height="10" rx="5"/><rect class="cls-3" x="586" y="824" width="496" height="3" rx="1.5"/><rect class="cls-3" x="1364" y="819" width="82" height="10" rx="5"/><g class="cls-2"><rect class="cls-3" x="297.42" y="449.51" width="300.54" height="74.92"/></g><polygon class="cls-3" points="297.42 486.97 259.7 552.31 335.14 552.31 297.42 486.97"/><g class="cls-2"><rect class="cls-3" x="1344.51" y="352.82" width="182.94" height="53.14"/></g><rect class="cls-3" x="1496.65" y="578.13" width="61.6" height="61.6" transform="translate(16.8 1258.42) rotate(-45)"/></g></g></svg>