<svg xmlns="http://www.w3.org/2000/svg" viewBox="0 0 16 15.45"><defs><style>.cls-1{fill:#fff;}</style></defs><g id="Layer_2" data-name="Layer 2"><g id="Layer_1-2" data-name="Layer 1"><g id="Layer_2-2" data-name="Layer 2"><g id="Layer_1-2-2" data-name="Layer 1-2"><g id="Layer_2-2-2" data-name="Layer 2-2"><g id="Layer_1-2-2-2" data-name="Layer 1-2-2"><path class="cls-1" d="M16,5.7v1a.5.5,0,0,1-.5.5H.5A.5.5,0,0,1,0,6.7v-1a.5.5,0,0,1,.5-.5H1.92L2,5.07,4.89.35a.76.76,0,0,1,1-.26.77.77,0,0,1,.26,1L4.79,3.35,3.68,5.17H15.5a.5.5,0,0,1,.5.5Z"/><path class="cls-1" d="M15.26,8.45,13.8,14.69a1,1,0,0,1-1,.76H3.2a1,1,0,0,1-1-.76L.71,8.45Z"/></g></g></g></g></g></g></svg>