<svg xmlns="http://www.w3.org/2000/svg" xmlns:xlink="http://www.w3.org/1999/xlink" viewBox="0 0 272 414"><defs><style>.cls-1{fill:url(#linear-gradient);}.cls-2,.cls-3{fill:#fff;}.cls-2{opacity:0.3;}</style><linearGradient id="linear-gradient" x1="10.98" y1="10.76" x2="258.39" y2="399.1" gradientUnits="userSpaceOnUse"><stop offset="0" stop-color="#3fa4dc"/><stop offset="1" stop-color="#1c489f"/></linearGradient></defs><g id="Layer_2" data-name="Layer 2"><g id="Layer_1-2" data-name="Layer 1"><rect class="cls-1" width="272" height="414" rx="33.69"/><rect class="cls-2" x="99.86" y="70.5" width="76" height="290"/><path class="cls-3" d="M84.6,237.32a20.58,20.58,0,0,0-2-3.63,7.93,7.93,0,0,0-2.91-2.48A15.73,15.73,0,0,0,75,229.79a45.33,45.33,0,0,0-7.16-.51c-3.39,0-6.73-.11-10-.34a41.56,41.56,0,0,1-9.32-1.69A22.08,22.08,0,0,1,40.69,223a20.57,20.57,0,0,1-5.58-7.93,23.59,23.59,0,0,1-2-9.67,21,21,0,0,1,2.18-9,25,25,0,0,1,5.91-7.68A32.79,32.79,0,0,1,50.51,183a28.05,28.05,0,0,1,14.25-2.36,23.75,23.75,0,0,1,12.07,4.91,27.16,27.16,0,0,1,8.23,11.11L69.53,203.2a18.12,18.12,0,0,0-3.39-5.43,8.93,8.93,0,0,0-4.63-2.7,9.57,9.57,0,0,0-5.83.77,10.08,10.08,0,0,0-4.44,3.28,8,8,0,0,0-1.52,4.44,11.76,11.76,0,0,0,1,5,6.82,6.82,0,0,0,2.38,3,11.05,11.05,0,0,0,3.73,1.63,28.32,28.32,0,0,0,4.91.69q2.74.17,5.92.09a64.41,64.41,0,0,1,11.26.63A32.12,32.12,0,0,1,88,217.3a22.86,22.86,0,0,1,7,5.18,27.8,27.8,0,0,1,5.08,8.17,24.53,24.53,0,0,1,2,9.54,20.47,20.47,0,0,1-2,8.89,24,24,0,0,1-5.86,7.66,33.39,33.39,0,0,1-9.4,5.78,36.49,36.49,0,0,1-10.84,2.78,26.3,26.3,0,0,1-10.42-1.08,23.32,23.32,0,0,1-9.09-5.54,31.27,31.27,0,0,1-6.9-10.57l15.64-6.59a24.23,24.23,0,0,0,3.22,5.71,9.71,9.71,0,0,0,3.8,3.05,9.34,9.34,0,0,0,4.46.67,16.84,16.84,0,0,0,5.12-1.34,10.09,10.09,0,0,0,4.46-3.23,7,7,0,0,0,1.31-4.26A13,13,0,0,0,84.6,237.32Z"/><path class="cls-3" d="M131,200.31l3.83,8.95-5.49,2.31a9.9,9.9,0,0,0-3.42,2.26,7.89,7.89,0,0,0-1.82,3.06,8.72,8.72,0,0,0-.35,3.57,12.86,12.86,0,0,0,1,3.74,10.05,10.05,0,0,0,2.07,3.28,4.93,4.93,0,0,0,2.68,1.44,5.48,5.48,0,0,0,3.09-.42,9.33,9.33,0,0,0,3.84-2.81,7.84,7.84,0,0,0,1.67-3.59,3.71,3.71,0,0,0-.57-2.91l5.87,4.38a27.86,27.86,0,0,1,0,4.82,22.2,22.2,0,0,1-1.09,5.11,13.53,13.53,0,0,1-2.77,4.69,14.49,14.49,0,0,1-5.28,3.58,18.7,18.7,0,0,1-9.38,1.44,16.93,16.93,0,0,1-8.59-3.46,19.4,19.4,0,0,1-6-8.16,22.57,22.57,0,0,1-1.91-8.56,17.39,17.39,0,0,1,1.71-7.8,20.6,20.6,0,0,1,5.52-6.81,37.19,37.19,0,0,1,9.58-5.61Zm7.45,22.76-11.24-26.69a12.73,12.73,0,0,0-2.37-3.9A4.8,4.8,0,0,0,122,191a6.06,6.06,0,0,0-3.21.51,6.43,6.43,0,0,0-2.87,2.15,5.13,5.13,0,0,0-.93,3.09,10.23,10.23,0,0,0,.9,3.83l-15,6.32a19.2,19.2,0,0,1-1.54-7.68,18.17,18.17,0,0,1,1.77-7.65,22.16,22.16,0,0,1,5-6.8,27.14,27.14,0,0,1,8.15-5.13,27.71,27.71,0,0,1,11.1-2.38,16.54,16.54,0,0,1,9.69,3.17q4.37,3.12,7.2,9.85L153.16,216a53.28,53.28,0,0,0,3.84,7.68,21.92,21.92,0,0,0,3.72,4.59l.38.91-15,6.34a26.19,26.19,0,0,1-4.05-5.36A57.83,57.83,0,0,1,138.42,223.07Z"/><path class="cls-3" d="M151.22,136.79l34.54,82-15,6.32-34.54-82Z"/><path class="cls-3" d="M221.33,205a30.69,30.69,0,0,1-11.25,2.61,22.42,22.42,0,0,1-9.93-2,25.09,25.09,0,0,1-8.33-6.36,38.15,38.15,0,0,1-6.37-10.48l-2-4.75a46.38,46.38,0,0,1-3.6-13,28,28,0,0,1,.77-10.85,19.52,19.52,0,0,1,4.95-8.46,27.06,27.06,0,0,1,9-5.89,26,26,0,0,1,10.34-2.25A18.54,18.54,0,0,1,214,146a26.29,26.29,0,0,1,7.82,7.07,52.37,52.37,0,0,1,6.47,11.55l2.9,6.88-38.7,16.31-4.45-10.57,24-10.12-.56-1.33a21.63,21.63,0,0,0-3.22-5.56,7.44,7.44,0,0,0-3.85-2.56,7.53,7.53,0,0,0-4.77.6,7.79,7.79,0,0,0-3.4,2.53,6.91,6.91,0,0,0-1.25,3.89,18.73,18.73,0,0,0,.76,5.52,56.65,56.65,0,0,0,2.65,7.5l2,4.75a29.21,29.21,0,0,0,3.53,6.37,12.93,12.93,0,0,0,3.91,3.53,8,8,0,0,0,4.32,1,14.56,14.56,0,0,0,4.9-1.21,18.78,18.78,0,0,0,6.53-4.42,18.06,18.06,0,0,0,3.84-6.17l9.8,6.55a24,24,0,0,1-2.63,5.85,26.07,26.07,0,0,1-5.11,6A29,29,0,0,1,221.33,205Z"/><path class="cls-3" d="M67.88,292.77l6,22.66-4.36,1.16-4.6-17.32-3.88,2.81-1-3.63,7.3-5.55Z"/><path class="cls-3" d="M84.13,288.24l.58-.16,1,3.7-.2.05a6.27,6.27,0,0,0-2.44,1.2A5.06,5.06,0,0,0,81.62,295a6.78,6.78,0,0,0-.47,2.58,11.91,11.91,0,0,0,.45,3.1l1,3.8a13,13,0,0,0,.71,2,5.32,5.32,0,0,0,.89,1.37,2.6,2.6,0,0,0,1,.69,1.74,1.74,0,0,0,1,0,1.72,1.72,0,0,0,.88-.56A2.57,2.57,0,0,0,87.6,307a4.84,4.84,0,0,0,.13-1.41,7.7,7.7,0,0,0-.27-1.68,7.6,7.6,0,0,0-.61-1.61A4.86,4.86,0,0,0,86,301.1a2.62,2.62,0,0,0-1-.65,1.82,1.82,0,0,0-1.06,0,2.06,2.06,0,0,0-1.22.83,3.33,3.33,0,0,0-.53,1.44,4.54,4.54,0,0,0,.08,1.64l-1.56-.59a8.48,8.48,0,0,1-.15-2.34,6.86,6.86,0,0,1,.55-2.17,5,5,0,0,1,1.25-1.74,5,5,0,0,1,4.48-1.05A5.39,5.39,0,0,1,89,297.64a8,8,0,0,1,1.65,2.18,13.27,13.27,0,0,1,1.11,2.88,10.37,10.37,0,0,1,.36,3.18,8,8,0,0,1-.66,2.81,6.23,6.23,0,0,1-1.63,2.2,6.43,6.43,0,0,1-2.59,1.32,6,6,0,0,1-3,.09A6.49,6.49,0,0,1,81.65,311a9.31,9.31,0,0,1-2.12-2.49A13.94,13.94,0,0,1,78.1,305l-.46-1.76a19,19,0,0,1-.7-5.17,12.1,12.1,0,0,1,.84-4.44,9,9,0,0,1,2.39-3.39A9.65,9.65,0,0,1,84.13,288.24Z"/><path class="cls-3" d="M91.9,292.37l-.32-1.19a5.82,5.82,0,0,1-.15-2.47,4.13,4.13,0,0,1,1-2.07,4.19,4.19,0,0,1,2.14-1.25,4.41,4.41,0,0,1,2.55,0A4.07,4.07,0,0,1,99,286.71a6.05,6.05,0,0,1,1.08,2.22l.32,1.2a6,6,0,0,1,.15,2.44,4.13,4.13,0,0,1-1,2.06,4.81,4.81,0,0,1-4.68,1.25A4.07,4.07,0,0,1,93,294.56,5.64,5.64,0,0,1,91.9,292.37Zm2.52-1.95.32,1.2a3.19,3.19,0,0,0,.42,1,1.85,1.85,0,0,0,.67.64,1.15,1.15,0,0,0,.84.08,1.17,1.17,0,0,0,.71-.5,1.71,1.71,0,0,0,.24-.87,4.17,4.17,0,0,0-.13-1l-.32-1.2a3.45,3.45,0,0,0-.42-1,1.69,1.69,0,0,0-.65-.65,1.15,1.15,0,0,0-.88-.08,1.11,1.11,0,0,0-.67.49,1.76,1.76,0,0,0-.25.89A3.53,3.53,0,0,0,94.42,290.42Zm11.17-4.15L101,306.41l-2.4-.63,4.58-20.13Zm-1.4,16.45-.31-1.19a5.59,5.59,0,0,1-.13-2.46,4.48,4.48,0,0,1,5.65-3.32,4.09,4.09,0,0,1,1.86,1.32,5.75,5.75,0,0,1,1.09,2.2l.32,1.2a5.88,5.88,0,0,1,.16,2.45,4.13,4.13,0,0,1-1,2.07,4.24,4.24,0,0,1-2.17,1.26,4.3,4.3,0,0,1-2.52,0,4.08,4.08,0,0,1-1.89-1.31A5.92,5.92,0,0,1,104.19,302.72Zm2.54-2,.32,1.19a2.84,2.84,0,0,0,.46,1,2,2,0,0,0,.7.64,1.12,1.12,0,0,0,.8.09,1.23,1.23,0,0,0,.78-.51,1.49,1.49,0,0,0,.19-.88,4.81,4.81,0,0,0-.17-1l-.31-1.2a3.76,3.76,0,0,0-.42-1,1.8,1.8,0,0,0-.65-.64,1.15,1.15,0,0,0-.86-.08,1.12,1.12,0,0,0-.7.5,1.82,1.82,0,0,0-.25.88A3.58,3.58,0,0,0,106.73,300.77Z"/><path class="cls-3" d="M165.25,278.23l1.32,5-18.89,5-1.31-3.82,5.11-23.15L156.2,260l-2.39,10.35-1.9,11.42Zm-7.76-18.58,8.23,30.94-6,1.59-8.23-30.94Z"/><path class="cls-3" d="M173.53,273.5l-5.08.08-2.63-16.14,14.94-4,1.36,5.12-10.05,2.67,1.19,6.78a8.51,8.51,0,0,1,1.26-1.13,5.65,5.65,0,0,1,2-1,8,8,0,0,1,3.59-.21,6.89,6.89,0,0,1,3,1.38,9.58,9.58,0,0,1,2.42,2.86,16.74,16.74,0,0,1,1.7,4.23,14.35,14.35,0,0,1,.49,4.07A10.15,10.15,0,0,1,187,282a8.44,8.44,0,0,1-2.23,3A9.08,9.08,0,0,1,181,287a9.7,9.7,0,0,1-3.47.29,8.77,8.77,0,0,1-3.33-1,9.54,9.54,0,0,1-2.8-2.3,9.34,9.34,0,0,1-1.79-3.61l5.89-1.56a7.31,7.31,0,0,0,1.07,2,3.5,3.5,0,0,0,1.43,1.13,2.55,2.55,0,0,0,1.66.1,2.61,2.61,0,0,0,1.37-.83,3.17,3.17,0,0,0,.64-1.48,7.19,7.19,0,0,0,0-2,16.23,16.23,0,0,0-.44-2.3,10.83,10.83,0,0,0-.81-2.16,5.4,5.4,0,0,0-1.11-1.55,3.12,3.12,0,0,0-1.46-.81,3.45,3.45,0,0,0-1.74.06,3.16,3.16,0,0,0-1.83,1.06A7.08,7.08,0,0,0,173.53,273.5Z"/><path class="cls-3" d="M187.71,259.74l-.44-1.63a8,8,0,0,1-.2-3.38,5.57,5.57,0,0,1,1.31-2.83,5.7,5.7,0,0,1,2.93-1.71,5.91,5.91,0,0,1,3.49,0,5.39,5.39,0,0,1,2.55,1.8,8.34,8.34,0,0,1,1.48,3l.43,1.63a8,8,0,0,1,.21,3.34,5.53,5.53,0,0,1-1.31,2.82,6.55,6.55,0,0,1-6.4,1.71,5.51,5.51,0,0,1-2.56-1.8A7.83,7.83,0,0,1,187.71,259.74Zm3.45-2.67.43,1.64a4.43,4.43,0,0,0,.58,1.31,2.48,2.48,0,0,0,.92.88,1.54,1.54,0,0,0,1.14.11,1.52,1.52,0,0,0,1-.68,2.28,2.28,0,0,0,.33-1.2,5.4,5.4,0,0,0-.17-1.42l-.44-1.64a4.88,4.88,0,0,0-.57-1.34,2.47,2.47,0,0,0-.9-.89,1.58,1.58,0,0,0-1.2-.1,1.43,1.43,0,0,0-.91.66,2.36,2.36,0,0,0-.35,1.22A4.87,4.87,0,0,0,191.16,257.07Zm15.28-5.67L200.18,279l-3.27-.86,6.25-27.55Zm-1.91,22.5-.44-1.63a7.75,7.75,0,0,1-.17-3.37,6.12,6.12,0,0,1,7.73-4.53,5.59,5.59,0,0,1,2.55,1.8,7.81,7.81,0,0,1,1.49,3l.44,1.64a8.05,8.05,0,0,1,.21,3.36A5.53,5.53,0,0,1,215,277a5.76,5.76,0,0,1-3,1.73,5.93,5.93,0,0,1-3.45,0,5.7,5.7,0,0,1-2.59-1.79A7.94,7.94,0,0,1,204.53,273.9Zm3.47-2.67.44,1.63a3.91,3.91,0,0,0,.62,1.32,2.92,2.92,0,0,0,1,.87,1.54,1.54,0,0,0,1.09.13,1.68,1.68,0,0,0,1.07-.71,2.08,2.08,0,0,0,.26-1.19,7.12,7.12,0,0,0-.23-1.42l-.44-1.64a4.69,4.69,0,0,0-.57-1.33,2.41,2.41,0,0,0-.89-.88,1.53,1.53,0,0,0-1.18-.11,1.5,1.5,0,0,0-.94.67,2.46,2.46,0,0,0-.35,1.21A4.57,4.57,0,0,0,208,271.23Z"/><path class="cls-3" d="M132.18,285.37l.82,1.83-9.91,4.44-.82-1.83Z"/><path class="cls-3" d="M132.6,286.5l-4.81,0-1-2.18,7.08.28.71,1.57Zm-3.37,3.25,3.22-3.59,1.57-1.25.7,1.58-4.51,5.45Z"/><rect class="cls-3" x="167.86" y="325.5" width="50" height="50" transform="translate(363.91 -11.14) rotate(54.13)"/><rect class="cls-2" x="55.86" y="25.5" width="23" height="89"/><rect class="cls-2" x="215.86" y="299.5" width="23" height="89"/><polygon class="cls-3" points="136.06 54.6 49.6 49.49 88.41 126.91 136.06 54.6"/></g></g></svg>