<svg xmlns="http://www.w3.org/2000/svg" xmlns:xlink="http://www.w3.org/1999/xlink" viewBox="0 0 1809.09 449.86"><defs><style>.cls-1{fill:url(#linear-gradient);}.cls-2{fill:url(#linear-gradient-3);}</style><linearGradient id="linear-gradient" x1="-8.12" y1="224.93" x2="1805.73" y2="224.93" gradientUnits="userSpaceOnUse"><stop offset="0" stop-color="#fff"/><stop offset="0.2" stop-color="#3fa4dc"/><stop offset="0.5" stop-color="#3fa4dc" stop-opacity="0.5"/><stop offset="0.8" stop-color="#3fa4dc"/><stop offset="1" stop-color="#fff"/></linearGradient><linearGradient id="linear-gradient-3" x1="-8.12" y1="225.4" x2="1805.73" y2="225.4" xlink:href="#linear-gradient"/></defs><g id="Layer_2" data-name="Layer 2"><g id="Layer_1-2" data-name="Layer 1"><rect class="cls-1" x="270.5" y="214.43" width="36" height="21" rx="4.91"/><rect class="cls-1" x="1500.5" y="214.43" width="36" height="21" rx="4.91"/><rect class="cls-2" x="329.5" y="222.9" width="1150" height="5"/><path class="cls-1" d="M201.94,222.36c-.95,0-1.89,0-2.83.07A76,76,0,0,1,126,146.56V80.94A81,81,0,0,0,45.06,0H0V5H45.06A76,76,0,0,1,121,80.94v65.62a81.09,81.09,0,0,0,60.67,78.37A81.08,81.08,0,0,0,121,303.3v65.62a76,76,0,0,1-75.94,75.94H0v5H45.06A81,81,0,0,0,126,368.92V303.3a76,76,0,0,1,73.11-75.87c.94,0,1.88.07,2.83.07H246.5v-5.14Z"/><path class="cls-1" d="M1607.15,222.36c.95,0,1.89,0,2.83.07a76,76,0,0,0,73.11-75.87V80.94A81,81,0,0,1,1764,0h45.06V5H1764a76,76,0,0,0-75.94,75.94v65.62a81.09,81.09,0,0,1-60.67,78.37,81.08,81.08,0,0,1,60.67,78.37v65.62A76,76,0,0,0,1764,444.86h45.06v5H1764a81,81,0,0,1-80.94-80.94V303.3A76,76,0,0,0,1610,227.43c-.94,0-1.88.07-2.83.07h-44.56v-5.14Z"/></g></g></svg>