<svg xmlns="http://www.w3.org/2000/svg" xmlns:xlink="http://www.w3.org/1999/xlink" viewBox="0 0 131.49 146.65"><defs><style>.cls-1{fill:url(#linear-gradient);}.cls-2{fill:url(#linear-gradient-2);}.cls-3{fill:url(#linear-gradient-3);}.cls-4{fill:#1d2449;}.cls-5{fill:url(#linear-gradient-4);}.cls-6{fill:url(#linear-gradient-5);}.cls-7{fill:url(#linear-gradient-6);}.cls-8{fill:url(#linear-gradient-7);}.cls-9{fill:none;stroke:#ed1c24;stroke-miterlimit:10;}.cls-10{fill:url(#linear-gradient-8);}.cls-11{fill:url(#linear-gradient-9);}.cls-12{fill:url(#linear-gradient-10);}.cls-13{fill:url(#linear-gradient-11);}.cls-14{fill:url(#linear-gradient-12);}.cls-15{fill:url(#linear-gradient-13);}.cls-16{fill:url(#linear-gradient-14);}.cls-17{fill:url(#linear-gradient-15);}.cls-18{fill:url(#linear-gradient-16);}.cls-19{fill:url(#linear-gradient-17);}.cls-20{fill:url(#linear-gradient-18);}.cls-21{fill:url(#linear-gradient-19);}</style><linearGradient id="linear-gradient" x1="130.22" y1="87.99" x2="128.57" y2="51.6" gradientUnits="userSpaceOnUse"><stop offset="0" stop-color="#b0e7ff"/><stop offset="1" stop-color="#3fa4dc"/></linearGradient><linearGradient id="linear-gradient-2" x1="130.77" y1="85.83" x2="129.72" y2="49.52" gradientUnits="userSpaceOnUse"><stop offset="0" stop-color="#3fa4dc"/><stop offset="1" stop-color="#4689c8"/></linearGradient><linearGradient id="linear-gradient-3" x1="98.31" y1="63.64" x2="20.59" y2="9.58" xlink:href="#linear-gradient-2"/><linearGradient id="linear-gradient-4" x1="25.01" y1="29.83" x2="39.24" y2="18.45" xlink:href="#linear-gradient-2"/><linearGradient id="linear-gradient-5" x1="131.01" y1="75.33" x2="3.99" y2="66.34" gradientUnits="userSpaceOnUse"><stop offset="0" stop-color="#4689c8"/><stop offset="1" stop-color="#1d2449"/></linearGradient><linearGradient id="linear-gradient-6" x1="33.85" y1="30.03" x2="30.6" y2="51.69" gradientUnits="userSpaceOnUse"><stop offset="0" stop-color="#3fa4dc"/><stop offset="1" stop-color="#1c489f"/></linearGradient><linearGradient id="linear-gradient-7" x1="32.79" y1="36.44" x2="32.35" y2="56.28" xlink:href="#linear-gradient-6"/><linearGradient id="linear-gradient-8" x1="126.05" y1="87.23" x2="10.59" y2="69.11" gradientUnits="userSpaceOnUse"><stop offset="0" stop-color="#3fa4dc"/><stop offset="1" stop-color="#1d2449"/></linearGradient><linearGradient id="linear-gradient-9" x1="65.42" y1="143.86" x2="76.31" y2="87.6" xlink:href="#linear-gradient"/><linearGradient id="linear-gradient-10" x1="68.87" y1="145.53" x2="79.51" y2="97.46" xlink:href="#linear-gradient-2"/><linearGradient id="linear-gradient-11" x1="1.61" y1="103.15" x2="10.29" y2="56.87" xlink:href="#linear-gradient"/><linearGradient id="linear-gradient-12" x1="8.19" y1="79.75" x2="16.42" y2="58.41" xlink:href="#linear-gradient-2"/><linearGradient id="linear-gradient-13" x1="1.98" y1="102.21" x2="5.48" y2="78.05" xlink:href="#linear-gradient-2"/><linearGradient id="linear-gradient-14" x1="21.96" y1="117.3" x2="30.72" y2="70.92" xlink:href="#linear-gradient"/><linearGradient id="linear-gradient-15" x1="31.4" y1="94.26" x2="36.57" y2="77.79" xlink:href="#linear-gradient-2"/><linearGradient id="linear-gradient-16" x1="24.07" y1="117.64" x2="28.94" y2="88.36" xlink:href="#linear-gradient-2"/><linearGradient id="linear-gradient-17" x1="44.63" y1="134.29" x2="54.4" y2="78.24" xlink:href="#linear-gradient"/><linearGradient id="linear-gradient-18" x1="58.18" y1="107.68" x2="57.75" y2="93" xlink:href="#linear-gradient-2"/><linearGradient id="linear-gradient-19" x1="47.17" y1="130.36" x2="51.07" y2="103.86" xlink:href="#linear-gradient-2"/></defs><g id="Layer_2" data-name="Layer 2"><g id="Layer_1-2" data-name="Layer 1"><path class="cls-1" d="M131.05,84.22c0,.94-.57,1.24-1.33,1.38-1-.1-1.51-.71-1.45-2.07l-.45-17h0L128,61l.06-1.41.31-7.6a3.77,3.77,0,0,1,1.42.69h0a7,7,0,0,1,.65,3.2l.15,2.08v2.06h0Z"/><path class="cls-2" d="M131.49,83.58c0,1.33-.57,2.06-1.77,2,.76-.14,1.36-.44,1.33-1.38l-.4-24.16h0V58l-.15-2.08a7,7,0,0,0-.65-3.2,3.31,3.31,0,0,1,1.11,2.68Z"/><path class="cls-3" d="M125.25,46h0a6,6,0,0,0-.85-.58L53,.68a2.65,2.65,0,0,0-3.6,0l-9,8.71-.13.16h0a2.24,2.24,0,0,0-.06,2.58c2.13,4.29,1.58,7.8-.44,10.38-3.12,4-9.75,5.7-15.61,4.69-.39-.07-.78-.15-1.17-.25a2.15,2.15,0,0,0-2.28.41l-9.9,9.8A1.31,1.31,0,0,0,11,39.33L84.7,86.05a2.9,2.9,0,0,0,3.74,0l35.63-34.6C126.25,49.41,127.08,47.54,125.25,46Zm-83.7-4.14a11.68,11.68,0,0,1-8.83,3.6,11.68,11.68,0,0,1-8.83-3.6,6.51,6.51,0,0,1-1.69-4.28c0-4.36,4.71-7.89,10.52-7.89s10.52,3.53,10.52,7.89A6.49,6.49,0,0,1,41.55,41.86Z"/><path class="cls-4" d="M39.73,22.56c1.08-2.44,1.25-4.91-2.28-7.51,1-2.87,1.94-4.59,2.78-5.45a2.24,2.24,0,0,0-.06,2.58C42.3,16.47,41.75,20,39.73,22.56Z"/><path class="cls-5" d="M39.73,22.56c-3.12,4-9.75,5.7-15.61,4.69l13.33-12.2C41,17.65,40.81,20.12,39.73,22.56Z"/><path class="cls-6" d="M130.22,57.5,86.84,101.15c-.69.72-1.54.81-2.62,0l-3.89-2.58h0l-6.81-4.51L62.27,86.6h0L51,79.13,6,49.28l2.9-9.44a7.83,7.83,0,0,1,1.88-2.63A1.31,1.31,0,0,0,11,39.33L84.7,86.05a2.9,2.9,0,0,0,3.74,0l35.63-34.6c2.18-2,3-3.91,1.18-5.45a3.88,3.88,0,0,1,1.67,1.54L128.41,52Z"/><path class="cls-7" d="M32.72,29.69c-5.81,0-10.52,3.53-10.52,7.89a6.51,6.51,0,0,0,1.69,4.28,11.68,11.68,0,0,0,8.83,3.6,11.68,11.68,0,0,0,8.83-3.6,6.49,6.49,0,0,0,1.69-4.28C43.24,33.22,38.53,29.69,32.72,29.69Zm8.35,10.06c-1.21,2.59-4.49,4.45-8.35,4.45s-7.15-1.86-8.35-4.45a5.22,5.22,0,0,1-.49-2.17c0-3.66,4-6.62,8.84-6.62s8.83,3,8.83,6.62A5.21,5.21,0,0,1,41.07,39.75Z"/><path class="cls-4" d="M41.55,37.58a5.21,5.21,0,0,1-.48,2.17c-1.21-2.58-4.49-4.44-8.35-4.44s-7.15,1.86-8.35,4.44a5.22,5.22,0,0,1-.49-2.17c0-3.66,4-6.62,8.84-6.62S41.55,33.92,41.55,37.58Z"/><ellipse class="cls-8" cx="32.72" cy="39.75" rx="8.35" ry="4.44"/><path class="cls-4" d="M130.82,58.23,86.94,102.7c-.79.8-1.75.9-3,0l-3-2-9.38-6.29-9-6L48.62,79h0l-9.78-6.57h0l-11.4-7.65L16.35,57.34l-5.92-4h0l-5.7-3.83L6,49.28,51,79.13,62.27,86.6h0l11.25,7.46,6.81,4.51h0l3.89,2.58c1.08.81,1.93.72,2.62,0L130.22,57.5l.41.5h0Z"/><path class="cls-9" d="M51,79.13h0"/><path class="cls-10" d="M130.82,58.23l-3,8.27h0l-.65,1.78-40.5,41.53c-.85.84-1.94,1-3.3.23l-6.13-4-1.15-.75-9.25-6-8.25-5.31-.42-.27L43.46,84.33l-8-5.15L35,78.86,21.62,70.27,12.8,64.59l-.62-.4-2.11-1.36L6.59,54.52l-.08-.22L4.73,49.54l5.7,3.83h0l5.92,4,11.09,7.43,11.4,7.65h0L48.62,79h0l14,9.42,9,6L81,100.72l3,2c1.22.9,2.18.8,3,0Z"/><path class="cls-11" d="M81,100.72a4.73,4.73,0,0,1-.57,1.41l-3.62,2.57a6,6,0,0,0-.74.65,5.3,5.3,0,0,0-1.45,3.49l-5.37,37.81L67,144.83l1.72-19.14c.23-3.19.47-5.78-1.72-7.64-1.45-1.38-2.16-3.69-1.62-7.53l1.2-9.54a6.48,6.48,0,0,1,.31-1.59,8.08,8.08,0,0,1,4.8-5,6.6,6.6,0,0,1,1.88-.37l6.81,4.51A2.22,2.22,0,0,1,81,100.72Z"/><path class="cls-12" d="M80.45,102.13l-2.39,3.22a6,6,0,0,0-.82.74A4.76,4.76,0,0,0,76,108.71L71.29,145.5l-2,1.15,5.37-37.81a5.3,5.3,0,0,1,1.45-3.49,6,6,0,0,1,.74-.65Z"/><path class="cls-13" d="M16.55,59.27l-4.16,4.65a3.17,3.17,0,0,0-.21.27,6.55,6.55,0,0,0-1.26,4l-.18,9.41a1.07,1.07,0,0,1-.62,1.12l-4.43.39c-.82.1-1.21.79-1.31,1.87L2.62,102.48l-1.24,1.38L0,98.09,2.55,62.75c.24-3,.27-4.14,3.44-7.89a4.6,4.6,0,0,1,.52-.56,4,4,0,0,1,3.92-.93h0l5.92,4A1.54,1.54,0,0,1,16.55,59.27Z"/><path class="cls-14" d="M16.55,59.27l-2.44,3.9a5.06,5.06,0,0,0-1.31,1.42,6.28,6.28,0,0,0-.75,3.07l-.61,8.78c-.16,1.93-.69,2.33-1.32,2.32a1.07,1.07,0,0,0,.62-1.12l.18-9.41a6.55,6.55,0,0,1,1.26-4,3.17,3.17,0,0,1,.21-.27Z"/><path class="cls-15" d="M5.69,79.15,2.62,102.48,4.38,81C4.48,79.94,4.87,79.25,5.69,79.15Z"/><path class="cls-16" d="M38.52,75.6l-2.17,1.94A8,8,0,0,0,35,78.86,5.51,5.51,0,0,0,33.86,82l-1,10.13a1.65,1.65,0,0,1-1.3,1.43,6.2,6.2,0,0,1-1.06,0l-1.72,0H28c-.63.06-1,.51-1.07,1.57l-2.74,23-1.08.17-1.91-3.7L23,94.31c.16-1.84-.14-2.85-1.05-3.78-1.11-1.18-1.2-3.25-1.12-5.46l.67-12.25c0-1,.08-1.82.17-2.56A5.5,5.5,0,0,1,23,66.85l1.76-1.59a2.93,2.93,0,0,1,2.71-.49h0l11.4,7.65h0C39.69,73.45,39.56,74.5,38.52,75.6Z"/><path class="cls-17" d="M36.35,77.54a2.8,2.8,0,0,0-.89,1.64,3.14,3.14,0,0,0-.08.46L34,90.65c-.15,1.92-1.09,2.71-2.46,2.87a1.65,1.65,0,0,0,1.3-1.43l1-10.13A5.51,5.51,0,0,1,35,78.86,8,8,0,0,1,36.35,77.54Z"/><path class="cls-18" d="M28.75,93.49,24.93,118l-.75.13,2.74-23C27,94,27.36,93.55,28,93.49Z"/><path class="cls-19" d="M62.66,88.41a2.79,2.79,0,0,1-1.08,2.07L59.06,93c-.35.3-.64.58-.89.84a3.19,3.19,0,0,0-1,2.28l-.3,11.63a3.67,3.67,0,0,1-3,.94l-3.09-.17c-1,0-1.84.77-1.93,2.69l-1,19.07h0l-2.47,1.58-2.17-2.44,2.24-17a4.72,4.72,0,0,0-.22-3c.4-4.19.44-4.64-1.16-6.25-2-1.68-2.46-3.3-2.07-7l1-9.54a6.86,6.86,0,0,1,.54-2.27,17.18,17.18,0,0,1,2.2-3,6,6,0,0,1,3-2.38,4.2,4.2,0,0,1,2.39.15L62.27,86.6A4,4,0,0,1,62.66,88.41Z"/><path class="cls-20" d="M59.06,93a5.92,5.92,0,0,0-.47,1.11A15.9,15.9,0,0,0,58.34,97l-.42,8.09a4.4,4.4,0,0,1-1.05,2.67l.3-11.63a3.19,3.19,0,0,1,1-2.28C58.42,93.55,58.71,93.27,59.06,93Z"/><path class="cls-21" d="M50.73,108.49,48.48,129.8l-.71.45,1-19.07C48.89,109.26,49.7,108.48,50.73,108.49Z"/></g></g></svg>