<svg xmlns="http://www.w3.org/2000/svg" viewBox="0 0 76.34 167.29"><defs><style>.cls-1{fill:#414143;opacity:0.5;}.cls-2{fill:#4689c8;}.cls-3{fill:#1d2449;}.cls-4{fill:#3fa4dc;}.cls-5{fill:#1c489f;}</style></defs><g id="Layer_2" data-name="Layer 2"><g id="Layer_1-2" data-name="Layer 1"><path class="cls-1" d="M70.37,86.76a3.84,3.84,0,0,1,2.91-4.58L56.43,6.32A8.07,8.07,0,0,0,46.81.19l-40.49,9A8.07,8.07,0,0,0,.19,18.81L17.05,94.67a3.84,3.84,0,0,1,1.66,7.5l1.39,6.25L76.34,95.93,75,89.68A3.84,3.84,0,0,1,70.37,86.76Z"/><path class="cls-2" d="M70.37,86.76a3.84,3.84,0,0,1,2.91-4.58L56.43,6.32A8.07,8.07,0,0,0,46.81.19l-40.49,9A8.07,8.07,0,0,0,.19,18.81L17.05,94.67a3.84,3.84,0,0,1,1.66,7.5l1.39,6.25L76.34,95.93,75,89.68A3.84,3.84,0,0,1,70.37,86.76Z"/><path class="cls-3" d="M22.46,101.34l-.28-1.25a2.56,2.56,0,1,0-1.11-5l-.28-1.25-1.11-5L3.94,18a8.07,8.07,0,0,1,6.13-9.62l-3.75.83A8.07,8.07,0,0,0,.19,18.81L17.05,94.67a3.84,3.84,0,0,1,1.66,7.5l1.39,6.25,3.75-.83-1.11-5Z"/><path class="cls-4" d="M42,103.91h3.84a0,0,0,0,1,0,0v62.51a1.5,1.5,0,0,1-1.5,1.5h-.84a1.5,1.5,0,0,1-1.5-1.5V103.91A0,0,0,0,1,42,103.91Z" transform="translate(-28.43 12.76) rotate(-12.52)"/><path class="cls-4" d="M65.74,98.63h3.84a0,0,0,0,1,0,0v62.51a1.5,1.5,0,0,1-1.5,1.5h-.84a1.5,1.5,0,0,1-1.5-1.5V98.63a0,0,0,0,1,0,0Z" transform="translate(-26.72 17.78) rotate(-12.52)"/><path class="cls-4" d="M73.28,82.18,56.43,6.32A8.07,8.07,0,0,0,46.81.19L34.69,2.89l21.65,97.48,20-4.44L75,89.68a3.84,3.84,0,0,1-1.67-7.5Z"/><path class="cls-5" d="M45.19,8.82,62.31,85.93a2.56,2.56,0,0,0,1.11,5l1.67,7.49L32.6,105.64l-1.67-7.5a2.56,2.56,0,1,0-1.11-5L12.69,16a8.08,8.08,0,0,1,6.13-9.63L35.56,2.69A8.08,8.08,0,0,1,45.19,8.82Z"/></g></g></svg>