<svg xmlns="http://www.w3.org/2000/svg" viewBox="0 0 151.04 91.88"><defs><style>.cls-1{fill:#1c489f;}.cls-2{fill:#1d2449;}.cls-3{fill:#4689c8;}.cls-4{fill:#3fa4dc;}.cls-5{fill:#babcbe;}.cls-6{fill:#204364;}.cls-7{fill:#21466a;}.cls-8{fill:#23486b;}.cls-9{fill:#22486b;}.cls-10{fill:#204769;}.cls-11{fill:#1c466d;}</style></defs><g id="Layer_2" data-name="Layer 2"><g id="Layer_1-2" data-name="Layer 1"><path class="cls-1" d="M.18,48.31a19.35,19.35,0,0,1,0-5.48,3,3,0,0,1,1.79-2L19.73,30.55q25-14.44,50-28.88a10.88,10.88,0,0,1,11.57,0q24.66,14.15,49.26,28.43c5.88,3.4,11.75,6.82,17.66,10.18,2,1.12,3.07,2.61,2.83,5a22.91,22.91,0,0,1-.13,3.31c-.59-1.1-.23-2.25-.18-3.24a4.1,4.1,0,0,1-1.57,1.42c-6.9,4-13.76,8-20.66,11.92-3,1.69-5.93,3.34-8.85,5.08-9.57,5.68-19.28,11.12-28.89,16.74-3.47,2-6.91,4.15-10.49,6a10.24,10.24,0,0,1-10-.31c-6.08-3.35-12-6.92-18.07-10.36-1-.6-2.08-1.25-3.14-1.84-.37-.2-.76-.41-1.12,0a.56.56,0,0,1-.83.14c-.29-.21-.57-.47-.44-.86.18-.54-.12-.74-.52-1-3.24-1.89-6.51-3.71-9.73-5.64a.92.92,0,0,0-1.49.36c-.26.41-.5.81-1,.37s-.87-.74-.38-1.29c.62-.71.19-1-.38-1.34-2.82-1.65-5.67-3.24-8.49-4.88-4.88-2.85-9.8-5.66-14.69-8.5C7.47,49.92,5,48.46,2.55,47.05A7,7,0,0,1,.46,45.17C.32,46.17.76,47.28.18,48.31Z"/><path class="cls-2" d="M.18,48.31V44.67c2.44,2.61,5.61,3.91,8.48,5.64,3.82,2.31,7.73,4.46,11.6,6.69s7.63,4.49,11.52,6.59c.73.39,1.39.91,2.11,1.32.52.3.55.6.11.94-1,.8-.2,1.13.58,1.79-.46-1,.74-1,.62-1.77,0-.11.43,0,.63.14l9.7,5.62c.36.21.72.41,1.09.6s.89.37.31.93c-.38.36.07.54.26.73s.42.12.56-.2c.28-.65.74-.34,1.13-.13l5.76,3.3,12,7c1.23.71,2.42,1.48,3.68,2.13a12.22,12.22,0,0,0,6.83,1.2c2.6-.24,4.52-1.84,6.64-3,4.41-2.45,8.76-5,13.13-7.54,4-2.33,8.07-4.69,12.1-7l7.18-4.17,10.08-5.8,14.74-8.48c2.73-1.57,5.46-3.12,8.16-4.73a12.71,12.71,0,0,0,1.67-1.45v3.61A2.86,2.86,0,0,1,149.06,51l-15.92,9.2L110.48,73.28c-.56.33-1.13.62-1.7.93-.36-.44,0-.76.18-1.12.07-.17.31-.32.06-.53s-.37-.07-.56,0A6.13,6.13,0,0,0,106.93,74c-.86.93-2,1.62-2.56,2.8-8.06,4.67-16.06,9.44-24.21,14-3.4,1.88-7,1.3-10.35-.58-6.06-3.43-12.07-6.94-18.1-10.42L2.88,51.5C1.61,50.77.36,50,.18,48.31Z"/><path class="cls-2" d="M104.37,76.77c-.31-.39-.05-.64.22-.87,1.33-1.14,2.41-2.54,3.82-3.61.49-.37.47-.26.72.07.11.13.37.14.62.23a2.65,2.65,0,0,0-1,1.62Z"/><path class="cls-3" d="M148.77,43.62a2.08,2.08,0,0,1-1.18,1.61l-11.2,6.33c-2,1.11-3.91,2.22-5.86,3.35a1.61,1.61,0,0,1-1.76,0c-2.07-1.25-4.16-2.48-6.21-3.76-1-.64-1-1.3-.16-2.18.58-.59,1.19-1.16,1.77-1.76a1,1,0,0,0-.24-1.79c-.84-.54-1.68-1.08-2.54-1.58A2.6,2.6,0,0,1,120,41.31c0-4.3,0-8.6,0-12.9,0-1.4.77-1.88,2-1.18,3.73,2.12,7.44,4.29,11.16,6.42l13.57,7.81c.78.44,1.63.81,1.95,1.76A1.87,1.87,0,0,1,148.77,43.62Z"/><path class="cls-3" d="M58.33,40.79l.41-.41c.09-.32.37-.44.6-.62,2.34-1.47,4.76-2.8,7.16-4.17A7.34,7.34,0,0,0,67.62,35a21.09,21.09,0,0,0,2.92-1.75,5.77,5.77,0,0,1,.91-.32,10,10,0,0,0,2.38-1.24.88.88,0,0,1,1-.11l7.28,4.25c.17-.18.32-.4.62-.28a7.82,7.82,0,0,0,1,.79c.83.57,1.74,1,2.58,1.57.32.21.66.39.71.83s-.34.49-.61.64c-2.86,1.63-5.68,3.33-8.54,5-.64.36-.92,1-1.68,1.31s-1,1.09-1.73,1.26c-.09,0,0,.14.07.2a.45.45,0,0,1-.27.74c-.34.11-.74.23-.91-.32s-.52-.25-.79-.12a9.65,9.65,0,0,1-1.76.88c-.77,0-1.24-.57-1.85-.89-.85-.45-1.71-.91-2.53-1.44a1.2,1.2,0,0,1-.69-1c-.07-1.06-.47-1.49-1.48-1.27a3.54,3.54,0,0,1-3-.76c-.7-.5-1.54-.8-2.25-1.3C58.67,41.41,58.23,41.3,58.33,40.79Z"/><path class="cls-3" d="M75.35,85.39c-2.14.22-3.76-1-5.47-2-2.78-1.55-5.52-3.17-8.29-4.74-1-.58-1.06-1-.07-1.6,2.79-1.75,5.59-3.46,8.37-5.21a21.65,21.65,0,0,1,1.92-1.15,1.6,1.6,0,0,1,1.81,0c2,1.25,3.94,2.45,5.92,3.66.9.55.92.84.08,1.49l-2.87,2.21c-.61.48-.69.94.1,1.33a2.9,2.9,0,0,1,.52.34c1.2,1,2.38,1.39,3.78.21.64-.54,2.38.27,2.73,1.08a.57.57,0,0,1-.29.79c-2.13,1.2-4.07,2.76-6.48,3.41A10.49,10.49,0,0,1,75.35,85.39Z"/><path class="cls-2" d="M49.76,69.54l-1.37-.83a1.31,1.31,0,0,1-.67-.66c0-.66-.36-1-1.07-1a2.34,2.34,0,0,1-.83,0c-.37-.08-.68-.32-1-.42L41.92,65a2.48,2.48,0,0,1-.82-.69c-.3-1.22-.31-1.23-1.8-1a3.43,3.43,0,0,1-1-.37L35,61c-.27-.23-.64-.36-.81-.71-.08-1.22-1.08-.79-1.75-1a4.93,4.93,0,0,1-1-.42l-2.9-1.67c-.34-.38-1-.43-1.13-1,.18-.77-.48-.75-.9-1a.29.29,0,0,1,0-.37c.17-.28.29-.57-.05-.8s-.49.07-.69.25a2.17,2.17,0,0,1-1,.63h-.15a4,4,0,0,1-1.44-.92c-.3-.63.23-1.08.37-1.61a8.11,8.11,0,0,1,.58-1.4c.28-.22.53,0,.77.07a3.57,3.57,0,0,0,2.63,0c.34-.12.79-.45,1,0s-.27.69-.5,1-1,.61-.92,1.39c.41,0,.47-.55.87-.48a2.07,2.07,0,0,1,.81.44,19.45,19.45,0,0,0,2.73,1.49,3.27,3.27,0,0,0,3.36-.15c.77-.46,1.56-.89,2.33-1.35.3-.18.58-.54,1-.27a.75.75,0,0,1,0,.75c-.86.64-1.88,1-2.76,1.64s-.93,1.19.06,1.79c.8.48,1.61,1,2.45,1.38a3.55,3.55,0,0,0,3.39,0,26.64,26.64,0,0,0,2.8-1.6c.21-.14.41-.43.72-.16a1.17,1.17,0,0,1,0,1.09,16.94,16.94,0,0,0-2.65,1.35c-.9.64-.91,1.23,0,1.85l.27.16c3.84,2.24,3.84,2.24,7.71,0A3,3,0,0,1,51,61c.56-.13.7.12.53.62a9.8,9.8,0,0,1-2.34,1.52c-1.16.77-1.18,1.26,0,2a24.16,24.16,0,0,0,2.54,1.41,3,3,0,0,0,3.08-.1c.8-.48,1.64-.89,2.45-1.36.28-.15.68-.43.92,0s-.15.68-.47.89-.64.41-1,.6a14,14,0,0,0-1.33.82c-.55.4-.59.9,0,1.26a15.31,15.31,0,0,0,3.22,1.88,3.79,3.79,0,0,0,3.12-.21c.76-.42,1.49-.89,2.24-1.31.32-.18.61-.49,1-.3a9,9,0,0,1,.2,2.53c-.07.43.14,1-.47,1.2l-2.39,1.47a4.22,4.22,0,0,1-4.25.41l-2.83-1.66a2.51,2.51,0,0,1-.82-.7c-.1-1.22-1.1-.79-1.77-1a4.72,4.72,0,0,1-1-.42l-.27-.2C50.82,70.11,50.28,69.84,49.76,69.54Z"/><path class="cls-3" d="M83.26,15.84a5.78,5.78,0,0,0-4.72,1.28,1.23,1.23,0,0,1-1.91-.23,1.51,1.51,0,0,0-2.28-.34c-1.38,1-2.56.7-3.9-.2-2-1.34-4.14-2.48-6.2-3.75a2,2,0,0,0-2.23.09,2.3,2.3,0,0,1-3-1.34,1.18,1.18,0,0,1,.61-1.4c4-2.34,7.87-4.77,11.88-7A8,8,0,0,1,80,3.12c3.66,2.17,7.34,4.29,11,6.47.78.46,1.91.78,1.92,1.85S91.72,12.63,91,13.06c-1.38.85-2.86,1.56-4.26,2.38C85.67,16.07,84.51,15.65,83.26,15.84Z"/><path class="cls-1" d="M36.46,36.27l.41.35c0,.59-.55.65-.89.88-.59.41-1.23.75-1.92,1.17a10.3,10.3,0,0,0,2.24,1.41L41.24,43a1.58,1.58,0,0,0,1.82,0c.55-.33,1.07-.8,1.8-.66a8.92,8.92,0,0,0,5.56,1.14c1.34-.06,2.69,0,4,0A1.82,1.82,0,0,1,56,44c.23.58-.29.68-.59.92-.75.58-1.75.81-2.34,1.63a.54.54,0,0,1-.24.35,4.43,4.43,0,0,0-4-.3,5.27,5.27,0,0,0-1.93-.3,42.2,42.2,0,0,1-5.51-.12c-.52-.3-.34-.88-.53-1.3-.79-1-1.65-.64-2.53-.15a1.51,1.51,0,0,1-.3,0,8.55,8.55,0,0,1-3.15-1.84,6.18,6.18,0,0,1-.7-1.91c-1.14-.9-1.34-.9-2.44,0a.74.74,0,0,0-.16.27c-.11,1.32,0,2.63-.05,4s-.27,1.47-1.56.92c-1.7-.72-2.64-1.73-2.4-3.78a26,26,0,0,0,0-5.07c-1.12-1.17-1.53-1.17-2.64,0-.09,1.38,0,2.75,0,4.11a3,3,0,0,1-.14,1.12c-.34.46-.69.15-1,0-.82-.45-1.61-1-2.45-1.39a1.28,1.28,0,0,1-.73-1.17c0-.31,0-.63,0-.93A2.21,2.21,0,0,1,22,36.5c1.28-.61,2.44-1.46,3.74-2a1.94,1.94,0,0,1,1.35.43c1.42.83,2.91,1.57,4.28,2.49a2,2,0,0,0,2.62,0c.37-.3.85-.45,1.21-.78a2.07,2.07,0,0,1,.24-.17C35.74,36.36,36,36,36.46,36.27Z"/><path class="cls-3" d="M1.67,43.39A1.4,1.4,0,0,1,2.53,42c2.54-1.54,5.1-3,7.67-4.55.54-.32.77-.13.86.51a12.69,12.69,0,0,1,.14,3.93c-.31,2,.83,2.88,2.38,3.68,2.09,1.07,4.1,2.29,6.12,3.48a.79.79,0,0,1,.11,1.44c-.91.74-1.86,1.43-2.79,2.14-.48.38-.9.16-1.33-.09L6.83,47.3Q4.67,46,2.54,44.77C2,44.46,1.56,44.09,1.67,43.39Z"/><path class="cls-2" d="M58.33,40.79c1.31,1.15,3,1.73,4.39,2.7.36.25.75,0,1.1-.05,1.53-.32,2.05.05,2.09,1.58a.52.52,0,0,0,.33.47,48.19,48.19,0,0,0,4.59,2.59,11.38,11.38,0,0,1,.7,3.21c.07.82-.41,1.57-.38,2.39-.47.84-1,.27-1.46,0-1.86-1.1-3.76-2.12-5.6-3.26l-1.69-1c-1.35-.7-2.57-1.61-3.95-2.26A1.39,1.39,0,0,1,57.64,46a10,10,0,0,0-.37-1.6,2.17,2.17,0,0,1-.07-.24,1.46,1.46,0,0,1,0-.36,1.3,1.3,0,0,0,.07-.33A17.82,17.82,0,0,0,58,41.08C58,40.87,58.15,40.82,58.33,40.79Z"/><path class="cls-1" d="M38.09,53.09a21.69,21.69,0,0,1-4.21,2.35,2.66,2.66,0,0,1-2-.1,21.49,21.49,0,0,1-3.29-1.73c-.25-.17-.38-.55-.77-.43s0,.63-.26.87c-1.19-.71-1.2-.82-.24-1.71a8.88,8.88,0,0,0,1.15-1.21c-1.47.51-2.9.91-4.29-.12A4.42,4.42,0,0,1,21,49.12l-.2-.39c-.05-1.25,1.07-1.36,1.81-1.85.75.08,1.2-.73,1.94-.69a1.21,1.21,0,0,1,.25,1.06A1.64,1.64,0,0,0,26,49.06c1-.1,1.34-.41,1.4-1.35a3.88,3.88,0,0,1,.16-1.51.65.65,0,0,1,.9-.25,6.71,6.71,0,0,1,3.13,2.43,11.49,11.49,0,0,1,.1,2.87A1.52,1.52,0,0,0,32.88,53c1.24-.35,1.39-.53,1.43-1.77a2.08,2.08,0,0,1,.21-1.2c.39-.23.74,0,1,.15a14.24,14.24,0,0,1,2.71,1.61A1.18,1.18,0,0,1,38.09,53.09Z"/><path class="cls-1" d="M56.67,66.41c.37-.52,1.17-.55,1.59-1.49-1.19.64-2.18,1.09-3.08,1.66a3.37,3.37,0,0,1-3.87.08c-.8-.47-1.66-.86-2.45-1.35-1.27-.8-1.24-1.56,0-2.3l2.52-1.42.13.09a2,2,0,0,1,.18,1.09c0,1.26.16,1.43,1.42,1.86a1.58,1.58,0,0,0,1.38-1.85,1.1,1.1,0,0,1,.26-1c1.21,0,1.91,1,2.93,1.38a4,4,0,0,1,.53.3c.46.25.35.7.37,1.09,0,.72,0,1.45,0,2.17a1.59,1.59,0,0,0,.83,1.63c.41.33.76.07,1.11-.13s.63-.4,1-.57a7,7,0,0,1,1.63-.35.72.72,0,0,1,.86.41.68.68,0,0,1-.28.83c-.63.35-1,1-1.49,1.42a1.85,1.85,0,0,1-2.46.25,3.37,3.37,0,0,0-1-.48c-1.43-.22-1.72-1.46-2.24-2.49A.76.76,0,0,1,56.67,66.41Z"/><path class="cls-3" d="M42.28,27.8c-.42-.76-1.24-.95-1.93-1.3a2,2,0,0,1-1.21-2c.08-2.86,0-2.81,2.5-4.2,3.68-2.08,7.31-4.22,11-6.35a2.82,2.82,0,0,1,1.46-.43c1.77,0,3.55-.17,5.05,1.09.16.14.45.13.68.18a2.13,2.13,0,0,1-1.86,1.16,5.1,5.1,0,0,0-5.65.27c-3.36,2.13-6.92,3.94-10.33,6-1.49.89-1.5,2.15,0,3.07a21.05,21.05,0,0,1,2.23,1.32A1.78,1.78,0,0,1,42.28,27.8Z"/><path class="cls-3" d="M112.71,24.34a3.55,3.55,0,0,0,2.22,1.55c2.18.84,2.77,2.27,2.65,4.54-.21,3.83,0,7.68-.08,11.52a1.87,1.87,0,0,0,.92,1.78,16.48,16.48,0,0,1,2.64,1.61,2.71,2.71,0,0,1-1.27.88,28.75,28.75,0,0,1-3.35-1.85c-.48-.24-.39-.76-.39-1.21,0-4.55,0-9.09,0-13.64a1.54,1.54,0,0,0-.91-1.64c-1.16-.59-2.28-1.27-3.39-2a2.32,2.32,0,0,0-1.16-.36C111.17,24.91,112,24.77,112.71,24.34Z"/><path class="cls-3" d="M82.92,34.91a29.29,29.29,0,0,0-4.93-3A2.76,2.76,0,0,1,76.2,29c.06-1.38.28-2.28,1.64-3,2-1,3.89-2.24,5.83-3.36a5.14,5.14,0,0,1,4.67.56,1.33,1.33,0,0,1-1.23,1.07,3.93,3.93,0,0,0-3.35.18c-1.76,1-3.54,2-5.28,3.07a1.8,1.8,0,0,0,0,2.77c2,1.19,4,2.36,6.06,3.54A1.6,1.6,0,0,1,82.92,34.91Z"/><path class="cls-3" d="M121.44,54.91c.43.52,1.42.58,1.27,1.58-.08.54.27,1.29-.19,1.58a6.42,6.42,0,0,1-2.69,1.26,8,8,0,0,1-5.47-1.42c-2.48-1.63-5.12-3-7.7-4.51a1.5,1.5,0,0,0-1.37-.18c-.78.27-1.61.4-2.41.62a1.48,1.48,0,0,1-1.2-.13,3.79,3.79,0,0,1,2.71-1.62c.09,0,.2.16.26.14,1.84-.63,3.13.56,4.53,1.36,2.42,1.4,4.81,2.85,7.28,4.15a5.42,5.42,0,0,0,4.13.13c1.19-.37,1.24-1.19.26-1.95-.15-.13-.29-.28-.43-.42A.72.72,0,0,1,121.44,54.91Z"/><path class="cls-1" d="M101.46,55.75c1.05-.64,2.08-1.3,3.15-1.9.49-.27.82.23,1.18.45a46.63,46.63,0,0,1,5.7,3.37l-.06.14a.66.66,0,0,1-.14.15c-2.87,1.93-2.86,1.92-5.86.16-1.25-.73-2.51-1.45-3.78-2.14A.6.6,0,0,1,101.46,55.75Z"/><path class="cls-1" d="M93.13,60.59A17.89,17.89,0,0,1,95.74,59a.86.86,0,0,1,.9,0c2,1.29,4.22,2.14,6.06,3.66a8.7,8.7,0,0,1-2.58,1.7,1.49,1.49,0,0,1-1.4-.09c-1.79-.93-3.48-2-5.21-3C93.28,61.11,93,60.94,93.13,60.59Z"/><path class="cls-3" d="M110.59,36.2c.39.28.24.69.24,1,0,3.24.12,6.49,0,9.72a2.57,2.57,0,0,0,1.93,2.79,1.47,1.47,0,0,1-1.68,1,2.85,2.85,0,0,1-1.91-3.2c.15-3.07.05-6.16,0-9.24,0-.36.14-.77-.22-1.07A1.81,1.81,0,0,1,110.59,36.2Z"/><path class="cls-3" d="M95,16.25c-2.46.28-4.24,2-6.31,3.07a4.2,4.2,0,0,1-2.23.65c-1.11,0-2.22.09-3.32,0a6.36,6.36,0,0,0-4.21,1.36c-1.41.9-2.94,1.63-4.42,2.43a.34.34,0,0,1-.36,0,2.59,2.59,0,0,1-.34-.52.5.5,0,0,1-.12-.33c2-1.13,4-2.25,6-3.41a3.46,3.46,0,0,1,2.14-.61c.44.05.89,0,1.34,0,4.24,0,4.24,0,7.83-2.2.56-.34,1.15-.63,1.72-.94A4.33,4.33,0,0,1,95,16.25Z"/><path class="cls-2" d="M93.13,60.59a43.56,43.56,0,0,0,6.09,3.64c.48.24.93-.09,1.34-.34a11.55,11.55,0,0,1,2.14-1.21l0,0a1.92,1.92,0,0,1,.18.31,4.53,4.53,0,0,1,0,1.72.79.79,0,0,1-.65.79c-.52,0-.34-.92-1-.68s-.19.85-.35,1.27c0,.06,0,.12-.07.19-1,1-1.39,1-2.56.38-1.62-.86-3.15-1.87-4.77-2.73a1.64,1.64,0,0,1-.87-.85,3.66,3.66,0,0,1-.1-1,3.43,3.43,0,0,1,.09-1,1.75,1.75,0,0,1,.18-.29Z"/><path class="cls-3" d="M67.71,35.16l-1,.59c-.29-.15-.57-.4-.54-.71.1-1-.62-1.31-1.26-1.7-1.47-.92-3-1.69-4.51-2.59a2.62,2.62,0,0,1,0-4.62c.57-.32,1.14-.66,1.7-1,.88-.58.89-.77.16-1.6a.87.87,0,0,1,1.25-.66c.53,0,.64.38.67.85s-.2,1,.2,1.48c0,.5-.46.51-.73.72-.47.36-1.12.49-1.43,1.06-.62.38-1.54.49-1.5,1.5s.86,1.1,1.47,1.44c1.59.9,3.15,1.87,4.73,2.78C68.08,33.36,68.23,33.87,67.71,35.16Z"/><path class="cls-3" d="M54.79,61.82c0,.3,0,.61,0,.92,0,1.59-.06,1.67-1.64,2.21a1.27,1.27,0,0,1-.3-.86c0-3.49-.12-7,0-10.46.23-.77,1-1,1.51-1.44a.59.59,0,0,1,.57.36,5.37,5.37,0,0,1,.13,1.74c0,.82,0,1.64,0,2.46a1.87,1.87,0,0,1-.1.74,1.56,1.56,0,0,0,0,1.89A1.13,1.13,0,0,1,55,61.16.7.7,0,0,0,54.79,61.82Z"/><path class="cls-4" d="M57.46,43.67l-.15.46a24.6,24.6,0,0,1-3.67,2.23c-.15,0,0,.17,0,0s0-.08.08-.06a9.65,9.65,0,0,1,2.55,1.32c1.27.7,2.5,1.45,3.77,2.14a9.88,9.88,0,0,0,1.13.67l11,6.34a1.12,1.12,0,0,0,1.26,0c1-.61,2.05-1.15,3.05-1.77,5.41-3,10.75-6.2,16.15-9.26.4-.22.81-.45.09-.8a10.37,10.37,0,0,0-1.25-.72c-1.21-.85-2.65-1.33-3.74-2.37a.51.51,0,0,1,0-.3c.3-.47.61-.09.87,0,1.26.63,2.42,1.43,3.66,2.1.36.31.92.37,1.14.87l1,.68c-.1.34-.39.4-.62.54Q83.56,51.64,73.43,57.48a1.31,1.31,0,0,1-1.5-.06c-3.74-2.17-7.5-4.3-11.25-6.45a5,5,0,0,1-2-.92c-1.62-.88-3.16-1.89-4.79-2.74a2.68,2.68,0,0,1-1-.86c-.21-.55.34-.5.56-.65.83-.54,1.7-1,2.55-1.52A1.2,1.2,0,0,1,57.46,43.67Z"/><path class="cls-3" d="M16.67,35.82c-.55.67-1.42.81-2.1,1.28a1.25,1.25,0,0,0-.63,1.19c0,1.17,0,2.34,0,3.52a1.32,1.32,0,0,0,.74,1.34c1.93,1.1,3.84,2.24,5.76,3.37a3.74,3.74,0,0,1,.4.32c-.06.51-.37.67-.84.62-2.13-1.21-4.29-2.35-6.35-3.67a1.82,1.82,0,0,1-.94-1.7c0-1.35,0-2.7,0-4a1.77,1.77,0,0,1,1.14-1.79,5.63,5.63,0,0,0,1.83-1.14A1.06,1.06,0,0,1,16.67,35.82Z"/><path class="cls-3" d="M26,49.37a1.74,1.74,0,0,1-1.39-2.15,4.47,4.47,0,0,0,0-1V43.92a.92.92,0,0,1,0-1.25c0-1.61,0-3.21.05-4.82,0-.32-.15-.69.17-1,.67.25,1.48.26,1.78,1.11,0,3.33,0,6.66,0,10C26.56,48.49,26.74,49.13,26,49.37Z"/><path class="cls-1" d="M56.67,66.41a3.19,3.19,0,0,0,2.1,3,8,8,0,0,1,1,.45c1.25.75,2.31.47,2.86-.88.15-.36.29-.31.56-.36a.74.74,0,0,0,.61-.81c-.08-.35-.47-.36-.86-.23a9.1,9.1,0,0,1-1.49.26,2.44,2.44,0,0,1-.21-2.12c.28-.49.68-.37,1.07-.2a8.41,8.41,0,0,1,1.69,1c.31.25.82.34.77.91A2.17,2.17,0,0,1,65,68.72c-.77.45-1.57.85-2.31,1.37a4.69,4.69,0,0,1-5.92-.22c-.48-.35-1-.56-1.49-.91-.87-.65-.89-1.26,0-1.84A13.65,13.65,0,0,1,56.67,66.41Z"/><path class="cls-4" d="M42.28,27.8l1.89-1.16c.08-.43.43-.6.77-.77a3.6,3.6,0,0,0,.66-.3c1.66-1.42,3.62-1.42,5.58-1.06a13,13,0,0,1,4.25,2.08,6.67,6.67,0,0,0,1.07.68A3.44,3.44,0,0,1,59.05,31a3,3,0,0,0,.12.71,1.63,1.63,0,0,1-1,2c-.54.24-1,.61-1.54.86s-.75.54-1.26.5c-1.09.59-2.2,1.15-3.25,1.81a4,4,0,0,1-2.07.45,8.75,8.75,0,0,1-5.29-1.77,35.74,35.74,0,0,0-3.24-1.86,1.55,1.55,0,0,1-1-1.52c-.24-.25,0-.57-.14-.84,0,0,0-.07,0-.1C39.89,29.52,40.58,28.4,42.28,27.8Z"/><path class="cls-4" d="M78.75,57.52c-.27-.18-.56-.34-.06-.61.72-.37,1.43-.77,2.14-1.16.12.73-.49.93-.92,1.26-.2.1-.38.22-.07.41,2.23,1.33,4.45,2.65,6.73,3.9.44.24.71,0,1-.24A35.4,35.4,0,0,1,91,59.14c.23-.14.51-.2.67-.51-.34-.32-.78-.51-1.14-.8s-.18-.74-.46-1a.39.39,0,0,1,.15-.23c.71,0,1.17.5,1.75.78s1,.63,1.64.29c1.31-.63,2.46-1.53,3.74-2.21.17-.15.43-.19.59-.39A4.19,4.19,0,0,1,96.42,54c0-.4-.22-.33-.45-.21-.57.29-1.11.65-1.67,1a2.35,2.35,0,0,1-1.43.44.76.76,0,0,1-.62-.39c0-.48.34-.62.65-.82.84-.52,1.7-1,2.51-1.57,1,0,1.62.73,2.4,1.15a3.33,3.33,0,0,0,2.23.65.39.39,0,0,1,.23.19l-3.62,2.23a1.12,1.12,0,0,1-1,.61,58.22,58.22,0,0,0-5.19,3c-.15.24-.29.48-.64.39a19.86,19.86,0,0,0-2,1.1,1.48,1.48,0,0,1-1.86,0c-2.1-1.25-4.24-2.43-6.36-3.63A1.11,1.11,0,0,1,78.75,57.52Z"/><path class="cls-3" d="M59.55,68.75a1.69,1.69,0,0,1-1.27-2,28.83,28.83,0,0,0,0-3.22c0-2.12,0-4.23.07-6.35,0-.31-.19-.7.23-.93.61.32,1.27.57,1.49,1.33.25,3.45,0,6.9.05,10.35C60.09,68.24,60.11,68.7,59.55,68.75Z"/><path class="cls-1" d="M97.33,46.82c.7-.21,1.16.31,1.66.6.92.52,1.8,1.12,2.69,1.69-.36.84-1.25,1-1.9,1.43a4.24,4.24,0,0,1-1.17.62,1.08,1.08,0,0,1-.31,0,20.45,20.45,0,0,1-4.18-2.41.54.54,0,0,1,0-.31A6.44,6.44,0,0,1,97.33,46.82Z"/><path class="cls-1" d="M65.63,24.24a27.14,27.14,0,0,1,4.31-2.41A5.21,5.21,0,0,1,73,23.66a.89.89,0,0,1-.58.78,24.35,24.35,0,0,1-3.4,1.86,1.15,1.15,0,0,1-.45-.11,26.16,26.16,0,0,1-2.5-1.35C65.87,24.71,65.62,24.58,65.63,24.24Z"/><path class="cls-3" d="M24.59,42.67v1.25L20.18,41.4l-.26-.17c-.67-.61-.46-4.13.31-4.6,1-.6,2-1.12,3-1.71.51-.31,1.19-.45,1.39-1.14a1,1,0,0,1,1.25.77c-1.42.84-2.82,1.72-4.27,2.51a1.23,1.23,0,0,0-.75,1.32,6.67,6.67,0,0,1,0,1.34A1.12,1.12,0,0,0,21.53,41C22.57,41.48,23.57,42.09,24.59,42.67Z"/><path class="cls-4" d="M63.51,22.86a3.66,3.66,0,0,0-1.2.64,7.32,7.32,0,0,1-2.74,1.74c-.4.21-.8-.09-1.16-.29-1.43-.82-2.85-1.66-4.28-2.49a8.08,8.08,0,0,0-.9-.52c-.73-.48-1.53-.84-2.24-1.33-.41-.29-.6-.62-.05-.95,2.14-1.3,4.31-2.53,6.48-3.77a.88.88,0,0,1,.51-.08l1.85-1.05a2.05,2.05,0,0,0,.56-.26c1.78-1.59,3.45-1.51,5.37-.07a54.94,54.94,0,0,0,5.35,3.17c.25.14.75.19.35.68-.14.36-.51.29-.77.43C68.22,20,65.81,21.35,63.51,22.86Z"/><path class="cls-3" d="M76.22,68.26a22.43,22.43,0,0,0,4.44,2.83c2.43,1.4,2.43,1.34,2.48,4.33,0,1.12,0,2.09-1.32,2.47-.51,0-1,0-1.22-.61a1.69,1.69,0,0,0,1.3-2.11,8.89,8.89,0,0,1,0-1.46.87.87,0,0,0-.41-.89c-2.26-1.19-4.33-2.73-6.7-3.72C75.07,68.5,75.72,68.5,76.22,68.26Z"/><path class="cls-4" d="M44.52,42.41a.38.38,0,0,0-.1,0c-1.68,1.53-3.21,1-4.9-.15-1.89-1.29-4-2.32-6.05-3.53l3.4-2.14a1.07,1.07,0,0,0,.38-.13c1.59-1.41,3-1.14,4.72,0,1.92,1.36,4.07,2.41,6.22,3.65L45.6,41.82C45.36,42.24,44.91,42.27,44.52,42.41Z"/><path class="cls-4" d="M91.22,72.22c-.06,0-.15,0-.19,0-1.47,1.33-2.81.92-4.31-.08-2-1.34-4.17-2.46-6.4-3.75l2-1.22a2.51,2.51,0,0,1,1.69-1c1.76-1.57,3.36-1,5.11.16S93,68.67,95,69.83c-.69.73-1.65.94-2.31,1.57A2.09,2.09,0,0,1,91.22,72.22Z"/><path class="cls-4" d="M25.83,34.55l-1.25-.77c-.27-.18-.6-.35-.1-.64q2.64-1.53,5.27-3.07c.37-.23.66-.06,1,.11l8,4.67a15.4,15.4,0,0,1-2.25,1.42c-.36.07-.61.48-1,.37-.11-.14-.05-.27,0-.4a.8.8,0,0,1,.21-.2,9.47,9.47,0,0,0,1.24-.71,1,1,0,0,1,.24-.15c.17-.13.51-.22.14-.5s-.88-.51-1.31-.8a4.33,4.33,0,0,0-.73-.4A32.59,32.59,0,0,1,32,31.61a1.34,1.34,0,0,0-1.69,0A11.91,11.91,0,0,1,27.75,33c-.67,0-1.33-.72-2,0-.16.17-.62.27-.17.58a10.6,10.6,0,0,0,1.25.75c1.75,1,3.55,2,5.3,3.06a.92.92,0,0,0,1.14,0c.42-.22.83-.45,1.24-.69s.59-.4.93-.11a8.37,8.37,0,0,1-2.55,1.68c-.35.21-.65-.14-.94-.3Z"/><path class="cls-3" d="M44.52,42.41a2.64,2.64,0,0,1,1.08-.58c2.07,1.12,4.32.48,6.49.62,1.65.1,3.41-.34,4.8,1,.08.07.27,0,.41,0l.16.21c-.58,0-.93.47-1.44.61a1.63,1.63,0,0,0-1.46-.58c-1.76,0-3.53-.11-5.28,0A7.79,7.79,0,0,1,44.52,42.41Z"/><path class="cls-3" d="M91.22,72.22a4.53,4.53,0,0,1,1.45-.82c.79.34,1.7.61,1.69,1.68,0,1.25.36,2.61-1.24,3.4a9.93,9.93,0,0,0-2.94,1.85,6.6,6.6,0,0,1-1.67-1.24c1.5-.29,2.6-1.38,3.91-2,.57-.28.41-1.81-.14-2.18C91.93,72.64,91.58,72.43,91.22,72.22Z"/><path class="cls-4" d="M76.26,60.34l3.07,1.83A13.77,13.77,0,0,1,77,63.59c-1.91,1.12-3.84,2.2-5.73,3.33a1,1,0,0,1-1.22,0c-.91-.55-1.86-1-2.79-1.55a2.33,2.33,0,0,1-1.18-.49l-3.65-2.08A6.92,6.92,0,0,1,61.38,62a.47.47,0,0,1,0-.43.62.62,0,0,1,.72,0l1.37.81c1.17.56,2.24,1.31,3.4,1.91.38.21.73.46,1.12.66,3.36,1.93,2.11,1.77,5.31,0,1.4-.76,2.76-1.6,4.15-2.39.58-.33.57-.58,0-.91-3.31-1.9-6.62-3.78-9.9-5.73a1.06,1.06,0,0,0-1.25.1c-1.15.77-2.42,1.34-3.58,2.1a1.91,1.91,0,0,1-1.06.39c-.38-.13-.25-.36-.12-.6a26.48,26.48,0,0,1,2.87-1.79c.36-.23.82-.21,1.19-.43,1-.78,1.83-.6,2.86.05,2.24,1.4,4.58,2.65,6.89,4A1.14,1.14,0,0,1,76.26,60.34Z"/><path class="cls-4" d="M88.51,77.09a2.73,2.73,0,0,1,1.67,1.24,1.31,1.31,0,0,1-.72,1.28,3.86,3.86,0,0,1-3.95,0c-1-.55-1-1.5,0-2.12A4.6,4.6,0,0,1,88.51,77.09Z"/><path class="cls-4" d="M112.71,24.34c-.46.82-1.32.95-2.1,1.21a4.1,4.1,0,0,1-2.67-.64,1,1,0,0,1,0-1.87,4.06,4.06,0,0,1,4.31,0A1.3,1.3,0,0,1,112.71,24.34Z"/><path class="cls-4" d="M111,50.73a8,8,0,0,0,1.68-1c.12-.06.28-.08.37-.17,1.43-1.3,2.72-.93,4.2.07,2,1.36,4.24,2.48,6.48,3.76l-2.33,1.49-1,.59a.59.59,0,0,0-.2.07c-1.81,1.67-3.47,1.16-5.3-.12S111.06,53.18,109,52Z"/><path class="cls-4" d="M87.11,24.35l1.23-1.07a9.9,9.9,0,0,1,9.08-.22A3.9,3.9,0,0,1,100,26.61a3.83,3.83,0,0,1-2.54,3.6,9.45,9.45,0,0,1-8.79-.07C86.2,28.85,85.67,26.75,87.11,24.35Z"/><path class="cls-4" d="M55,57.49c-.32-.14,0-.27,0-.4.07-.46.48-.55.8-.73,1.77-1,3.52-2.07,5.29-3.08.58-.33.72-.58,0-1a17.44,17.44,0,0,1-1.63-.92,9.52,9.52,0,0,0-1.13-.62c-1.43-.83-2.85-1.69-4.29-2.5-.56-.37-1.18-.63-1.74-1l-.8-.47a2,2,0,0,0-.45-.25c-.81-.3-3.12,1.14-3.29,2a1.46,1.46,0,0,1-1.17,1,1.64,1.64,0,0,1-1.75-.93c.12-.77.81-.9,1.36-1a8.24,8.24,0,0,0,1.88-.73,3.3,3.3,0,0,1,1-.42,2.27,2.27,0,0,1,3.18.13,2,2,0,0,0,.55.26,9.65,9.65,0,0,1,2.53,1.31c1.38.77,2.72,1.6,4.11,2.34a2.3,2.3,0,0,1,.87.71l2.69,1.63Z"/><path class="cls-4" d="M110.59,36.2l-1.64,1a10.51,10.51,0,0,1-7.31.24,7.49,7.49,0,0,1-1.31-.62c-3-1.75-3.08-5.11,0-6.81a9.39,9.39,0,0,1,8.6-.31C112,31.06,112.62,33.54,110.59,36.2Z"/><path class="cls-4" d="M100.27,54.38l-.33-.08c-.59-.17-1.44,0-1.45-1,.75-.44.22-1.3.59-1.88a14,14,0,0,1,3.42-1.86l.45.59a1.33,1.33,0,0,0,0,.4,1.07,1.07,0,0,0,.5.75c.3.25.44.52.19.89-1.06.86-2.33,1.39-3.44,2.18Z"/><path class="cls-4" d="M92.91,60.77l0,.24a1.87,1.87,0,0,1-1,.88c-.64.34-1.27.72-1.89,1.1-.89.54-.9.57,0,1.11,2.8,1.67,5.66,3.24,8.45,4.92a1.76,1.76,0,0,0,2,0c1.78-1.07,3.6-2.08,5.41-3.11.21-.11.46-.17.57-.48-.9-.64-1.9-1.12-2.85-1.68a1.74,1.74,0,0,1-.88-.83v-.23a45.91,45.91,0,0,1,5.11,2.77l-8,4.65c-.39.23-.66,0-1-.15l-11-6.35,3.41-2.14a.36.36,0,0,1,.38-.21C92.13,61.18,92.43,60.74,92.91,60.77Z"/><path class="cls-4" d="M64.58,25.16c.11-.23,0-.58.42-.61a33.56,33.56,0,0,1,3.21,2.05c.33.54-.06,1.33.63,1.74a.57.57,0,0,1,0,.46c-.51.76-1.22.57-1.93.41a8.07,8.07,0,0,1-3-1.78A.65.65,0,0,1,64,26.34a.87.87,0,0,0,.38-.66C64.42,25.49,64.55,25.34,64.58,25.16Z"/><path class="cls-4" d="M101.46,55.75a.26.26,0,0,0,.19,0,.2.2,0,0,1,.07.25,16.58,16.58,0,0,1-2.84,1.83,3.39,3.39,0,0,0-1.07.76c1.33.69,2.5,1.52,3.8,2.15,1.87,1.06,3.73,2.12,5.56,3.25a1.76,1.76,0,0,0,2,0c2.09-1.23,4.18-2.46,6.18-3.58a20.18,20.18,0,0,1-4-2.5.28.28,0,0,1,0-.28h0a52.85,52.85,0,0,1,5.05,2.79l-8,4.62c-.37.22-.65,0-1-.12-3.47-2-6.93-4-10.41-6-.59-.33-.43-.54-.06-.86.25-.5.82-.39,1.21-.63Z"/><path class="cls-4" d="M82.92,34.91l1.67-1a1.91,1.91,0,0,0,.56-.25c1.48-1.41,2.84-1,4.38,0,2,1.35,4.16,2.45,6.41,3.75L93.34,39a.29.29,0,0,1-.24-.13c0-.54.48-.69.85-.92.6-.27.8-.55.07-.93-.21-.11-.41-.25-.61-.38a1.71,1.71,0,0,0-.56-.31,1,1,0,0,1-.61-.27c-1-.73-2.21-1.26-3.29-1.94a1.32,1.32,0,0,0-1.45.1,12.88,12.88,0,0,1-2.67,1.35c-.86-.21-.86-.21-.7-.84-.45.36-.66,1.09-1.43.89l-.63.18C82,35.12,82.69,35.25,82.92,34.91Z"/><path class="cls-2" d="M21,49.12A17.41,17.41,0,0,0,24.16,51c0,1.14-.76,2-1,3C21.29,53.33,21,53,21,51.1,21,50.44,21,49.78,21,49.12Z"/><path class="cls-3" d="M100.69,38.91c.19,1.13,1.18,1.44,2,1.85a1.65,1.65,0,0,1,1.08,1.77c-.08,1.21,0,2.42,0,3.63a.82.82,0,0,1-1.26,0,7.86,7.86,0,0,0,.11-3.88c-.15-.85-1.34-1.06-2.1-1.49-.33-.19-.72-.26-.93-.61C99.91,39.73,100.34,39.35,100.69,38.91Z"/><path class="cls-3" d="M55.41,35.14l1-.63A7.89,7.89,0,0,1,59.13,36a1,1,0,0,1,.44.67A6.28,6.28,0,0,1,59.38,40l-.64.42c-.52-.07-.46-.49-.4-.8.43-2.09-.52-3.31-2.42-4A.73.73,0,0,1,55.41,35.14Z"/><path class="cls-4" d="M64,27.27a9.12,9.12,0,0,0,2.79,1.64c.69.43,1.4.75,2.13.07,2-1.09,4-2.36,6-3.48.23-.13.71-.29.1-.59-.37-.36-1.13-.43-.89-1.23l.35.05,2.2,1.42L69.6,29.36a1.5,1.5,0,0,1-.66.59,1.37,1.37,0,0,1-1.72,0c-1.3-.79-2.62-1.54-3.95-2.27-.39-.22-.82-.4-1-.85s.22-.5.44-.64c.55-.36,1.12-.68,1.68-1a.64.64,0,0,1,.2,0c.24.13,0,.27,0,.4a2.16,2.16,0,0,1-.58.55C63.21,26.51,63.31,26.89,64,27.27Z"/><path class="cls-3" d="M93.14,39a.35.35,0,0,0,.2,0c1.47,1.38.67,3.14.77,4.74,0,.44-.59.54-.82.88l-1.18-.69a3,3,0,0,0,.79-2.12,2.28,2.28,0,0,0-.8-1.88c-.15-.74.52-.71.89-1Z"/><path class="cls-4" d="M119.79,46.22a2,2,0,0,1,1.27-.88,3.69,3.69,0,0,1,1.71.27c.3.19.58.39.56.79s-.26.54-.54.7A2.09,2.09,0,0,1,119.79,46.22Z"/><path class="cls-4" d="M80.81,66A3,3,0,0,1,79,65.62c-.54-.32-.7-.76-.22-1.26a2.08,2.08,0,0,1,3.24.77C81.92,65.83,81.41,66,80.81,66Z"/><path class="cls-4" d="M76.22,68.26c-.3.58-.92.62-1.44.84a9.85,9.85,0,0,1-1.21-.2c-.43-.13-.89-.3-.86-.88s.47-.73.9-.89A1.88,1.88,0,0,1,76.22,68.26Z"/><path class="cls-4" d="M80.6,77.28l1.22.61c.27,1-.38,1.23-1.08,1.4-1,.24-2.09-.16-2.3-.75s.14-.72.46-.92A2.94,2.94,0,0,1,80.6,77.28Z"/><path class="cls-3" d="M40.43,31.41a1.13,1.13,0,0,1,.14.84c-1-.55-2-1.11-3-1.63a.79.79,0,0,1-.49-.93c.44-1.88-.72-2.68-2.17-3.32a1.39,1.39,0,0,1-.75-.53c.06-.34.24-.53.6-.49a5.54,5.54,0,0,0,1.87,1.27c.43.26,1,.46.87,1.13a2.56,2.56,0,0,0,1.89,3.19C39.75,31.06,40,31.51,40.43,31.41Z"/><path class="cls-4" d="M102.51,46.18l1.26,0c.54.2,1.26.37,1.13,1.09s-.82.84-1.47.87a4.14,4.14,0,0,1-.61,0c-.59-.08-1.24-.16-1.34-.88S102,46.37,102.51,46.18Z"/><path class="cls-4" d="M100.69,38.91c.11.83-.5,1.05-1.1,1.29A4.2,4.2,0,0,1,97.87,40c-.31-.19-.58-.39-.6-.79s.29-.6.6-.77A2.39,2.39,0,0,1,100.69,38.91Z"/><path class="cls-5" d="M95,16.25a3.65,3.65,0,0,1-2.26-.47c-.26-.81.14-1.24.88-1.43,1-.27,2.22,0,2.4.65C96.28,15.86,95.58,16,95,16.25Z"/><path class="cls-4" d="M16.67,35.82l-1-.7c-.06-.88.54-1.12,1.22-1.21s1.64-.16,2.16.61c.33.49-.05.82-.46,1.07A3.94,3.94,0,0,1,16.67,35.82Z"/><path class="cls-4" d="M81.07,55.2c1.77-1.29,3.9-1.91,5.78-3,.34.29.33.29-.25.81a3.66,3.66,0,0,0-1.34,1A23.62,23.62,0,0,1,82,55.87a1,1,0,0,1-.3,0C81.37,55.76,81,55.69,81.07,55.2Z"/><path class="cls-4" d="M87.26,51.6c1.77-1.4,4-1.85,5.9-3.07.53.13.22.38.06.55a6.67,6.67,0,0,1-1,.59,3.25,3.25,0,0,0-.9.71A14,14,0,0,1,88,52.25C87.61,52.22,87.24,52.14,87.26,51.6Z"/><path class="cls-1" d="M60.43,51.19c-2.55-1.39-5.07-2.8-7.51-4.36v-.38c2.63,1.44,5.23,2.93,7.77,4.52Z"/><path class="cls-3" d="M66.26,64.77l1,.61a6.82,6.82,0,0,1-1.18.77,2.47,2.47,0,0,0-1.31,1.31c-.18-.34-.55-.44-.84-.64-.34-.46-.08-.82.27-1A4.8,4.8,0,0,1,66.26,64.77Z"/><path class="cls-4" d="M97.33,46.82l-3.12,1.72c-.45.16-.78.08-.86-.45,1-.57,1.91-1.15,2.88-1.71C96.78,46.05,97.18,46.14,97.33,46.82Z"/><path class="cls-4" d="M72.94,23.63l-3-1.8c.36-.59.77-.62,1.35-.25.77.49,1.6.9,2.41,1.34l.24.2c.09.46-.28.53-.55.69a.71.71,0,0,1-.29,0A.22.22,0,0,1,72.94,23.63Z"/><path class="cls-4" d="M102.5,49.56a13.92,13.92,0,0,1-3.36,1.9c-.41.12-.64,0-.58-.45l3.12-1.9A1.4,1.4,0,0,1,102.5,49.56Z"/><path class="cls-4" d="M68.15,26.64c-1.1-.62-2.36-1-3.15-2.09l.63-.31L68.73,26C69,26.68,68.54,26.63,68.15,26.64Z"/><path class="cls-3" d="M69,29.75l.64-.39a1.57,1.57,0,0,1,.82,1.79,1.42,1.42,0,0,0,1,1.73c-.15.37-.46.43-.82.4a1,1,0,0,1-1.06-1.13A5,5,0,0,0,69,29.75Z"/><path class="cls-4" d="M87.26,51.6a.83.83,0,0,0,.88.45c.16.31,0,.63.06,1A2,2,0,0,1,88,54.15a1.22,1.22,0,0,1-1.45,0c-.58-.35-.8-.78-.07-1.23.07-.25.59-.26.38-.67Z"/><path class="cls-4" d="M81.07,55.2l.62.61a1.61,1.61,0,0,1,.2,1.47.79.79,0,0,1-1.11.6c-.49-.15-1.25-.18-.92-1.08.33-.35.81-.55,1-1C80.89,55.56,80.81,55.31,81.07,55.2Z"/><path class="cls-3" d="M76.26,60.34l-.89-.54c1-.56,1.93-1.13,2.9-1.68.25-.14.47-.28.48-.6l.86.55c-.83.49-1.67,1-2.48,1.47C76.79,59.74,76.35,59.86,76.26,60.34Z"/><path class="cls-4" d="M59.81,57.26c-.37-.41-1.09-.39-1.26-1A1.82,1.82,0,0,1,61,56a.31.31,0,0,1,.28.3A1.4,1.4,0,0,1,59.81,57.26Z"/><path class="cls-4" d="M20,47.46l.84-.62,1.81,0c-.47.75-1.62.83-1.81,1.85C20.27,48.5,19.86,48.16,20,47.46Z"/><path class="cls-4" d="M102.73,50.41l.22-.26,2.4,1.33-1,.61-2.71,1.62c-.53.12-.89.62-1.45.66,1-.95,2.28-1.44,3.32-2.3a2.1,2.1,0,0,0,.55-.56C103.68,51.12,103,51,102.73,50.41Z"/><path class="cls-1" d="M61.25,56.23,61,56c1.22-.85,2.58-.33,3.88-.36a4.3,4.3,0,0,1,.7.13l-1,.61a11.82,11.82,0,0,1-3,0A.8.8,0,0,1,61.25,56.23Z"/><path class="cls-3" d="M80.81,66A3,3,0,0,0,82,65.13,2.51,2.51,0,0,0,84,66.23l-1.69,1C82.17,66.37,81.33,66.36,80.81,66Z"/><path class="cls-4" d="M93.35,48.09a1.34,1.34,0,0,0,.86.45,1.2,1.2,0,0,0,0,.19,2.06,2.06,0,0,1,.14,1.68.8.8,0,0,1-1.25.12c.12-.58.06-1-.71-.7a.35.35,0,0,1-.29-.29c.22-.47,1.08-.28,1.06-1C93.17,48.36,93.18,48.19,93.35,48.09Z"/><path class="cls-4" d="M34.76,25.35l-.6.49H34c-.51,0-1.08.08-1.34-.52-.13-.28.11-.44.32-.55a1.35,1.35,0,0,1,1.63.14C34.68,25,34.7,25.2,34.76,25.35Z"/><path class="cls-3" d="M70.64,18.71a1.56,1.56,0,0,1,.77-.43c.88.2,1.77.69,2.56-.2.32-.08.42.08.42.36C73.24,19.93,71.91,18.93,70.64,18.71Z"/><path class="cls-4" d="M74.39,18.44,74,18.08a1.21,1.21,0,0,1,1.83-.68c.47.35.38.68-.1,1A2.1,2.1,0,0,1,74.39,18.44Z"/><path class="cls-4" d="M56.9,59.29c-.46-.13-1-.19-.95-.7s.77-.59,1.28-.58.93.16.81.69S57.3,59.21,56.9,59.29Z"/><path class="cls-3" d="M98.34,57.46a3.26,3.26,0,0,1-1.21.63,2.2,2.2,0,0,1-1.5-.87,2.42,2.42,0,0,1,1-.61A3.14,3.14,0,0,0,98.34,57.46Z"/><path class="cls-4" d="M27.43,56.25a5,5,0,0,1,1.09,1A20.17,20.17,0,0,1,24.57,55v0c.55-.28,1,0,1.45.25C26.46,55.61,27.13,55.68,27.43,56.25Z"/><path class="cls-4" d="M34.39,60.3,35,61a15.44,15.44,0,0,1-3.6-2.09c.4-.1.71.16,1.06.25A3.54,3.54,0,0,1,34.39,60.3Z"/><path class="cls-4" d="M41.24,64.26c.23.24.46.47.68.71a16.17,16.17,0,0,1-3.65-2.1c.42-.16.72.19,1.09.26A3.08,3.08,0,0,1,41.24,64.26Z"/><path class="cls-4" d="M47.91,68.08l.48.63a15.83,15.83,0,0,1-3.61-2.08c.38-.08.67.2,1,.24A4,4,0,0,1,47.91,68.08Z"/><path class="cls-4" d="M54.58,72l.68.7a14.76,14.76,0,0,1-3.63-2.09c.39-.09.68.19,1,.25A3.35,3.35,0,0,1,54.58,72Z"/><path class="cls-4" d="M58.09,74.33a5.7,5.7,0,0,0,4.25-.41A3.3,3.3,0,0,1,58.09,74.33Z"/><path class="cls-3" d="M91.68,61.23c-.07.17-.22.19-.38.21l-1.5-.83.64-.39C90.71,60.73,91.47,60.65,91.68,61.23Z"/><path class="cls-4" d="M64.73,72.45c.37-.32.11-.88.47-1.2C65.48,71.82,65.54,72.3,64.73,72.45Z"/><path class="cls-4" d="M49.76,69.54a2.81,2.81,0,0,1,1.6.84A2.23,2.23,0,0,1,49.76,69.54Z"/><path class="cls-4" d="M134.68,49.78a12.12,12.12,0,0,1-8-2.38,4.49,4.49,0,0,1-.37-7.19,10.54,10.54,0,0,1,6.51-2.66,13.15,13.15,0,0,1,8.33,1.64c3.82,2.28,3.88,6.36.16,8.78a8.13,8.13,0,0,1-1,.55A12,12,0,0,1,134.68,49.78Z"/><path class="cls-1" d="M59.38,40a12.75,12.75,0,0,1,0-2.05,2.11,2.11,0,0,0-1.51-2.45,4.1,4.1,0,0,1-1.45-1,18.76,18.76,0,0,1,1.78-1,1.14,1.14,0,0,0,.7-1.5,1.84,1.84,0,0,1-.1-.51,3.63,3.63,0,0,0-2.54-4.06.89.89,0,0,1,0-.51c.31-1.93.3-1.95-1.36-3a2.7,2.7,0,0,1-.92-.67c-.25-.36-.53-.78.17-1,1.5.85,3,1.69,4.49,2.56a1.05,1.05,0,0,0,1.3,0c.75-.49,1.56-.89,2.34-1.32.42,0,.76.09.81.59a.9.9,0,0,1-.48,1c-.71.37-1.36.83-2.06,1.2s-1.28.64-1.22,1.59-.14,2,1.11,2.63c1.73.86,3.36,1.91,5,2.89.56.33,1.2.59.85,1.5-.08.2.21.54.33.82Z"/><path class="cls-1" d="M87.63,41.58l.1.26a.59.59,0,0,1-.27.92,3.07,3.07,0,0,0-2.79.88c-.18.15-.15.41-.32.57-.4.12-.52.46-.62.81a3.2,3.2,0,0,0-2.84.74,2.18,2.18,0,0,0-.42.53,3.26,3.26,0,0,1-1.09.65,3.9,3.9,0,0,0-2.59,1.42l-1,.85a3.81,3.81,0,0,0-2.46.93c-.2.14-.28.37-.43.54-.52.35-1,.87-1.69.74-.05-1.13-.55-2.2-.43-3.34.59-.36,1.16-.74,1.77-1.06s.69-.24.9.42c.14.42.45.22.65.18s.32-.22.11-.49-.48-.42-.4-.8c.47-.17.56.5,1,.42.23-.25,0-.43-.1-.64s0-.38,0-.36c.83.69.9-.94,1.64-.54a.27.27,0,0,0,.26,0c1.73-2.2,4.47-2.85,6.64-4.37,1.12-.79,2.36-1.41,3.54-2.12.55,0,.42.55.59.85A3.47,3.47,0,0,1,87.63,41.58Z"/><path class="cls-1" d="M69,29.75a1.46,1.46,0,0,1,.84,1.74,1.59,1.59,0,0,0,.83,1.79,9.49,9.49,0,0,1-2.92,1.88,2.13,2.13,0,0,0-1.4-2.57c-1.72-.86-3.34-1.94-5-2.87a1.38,1.38,0,0,1-.88-1.44c0-.75.54-1,1.06-1.24a1.39,1.39,0,0,1,.79-.2c1.62.92,3.26,1.8,4.84,2.77A1.59,1.59,0,0,0,69,29.75Z"/><path class="cls-1" d="M87.26,39.58c-.3-.22,0-.69-.38-.89-.92-1-2.28-1.38-3.33-2.21.34-.35.83-.52,1.1-.94a.24.24,0,0,1,.25.1,2.18,2.18,0,0,0,1.24,1.52A23.59,23.59,0,0,1,89,38.81a1.74,1.74,0,0,1,.24.36c.19.6.85.62,1.24,1-.21.73-.71.66-1.21.4s-1.13-.67-1.74-.94A1,1,0,0,0,87.26,39.58Z"/><path class="cls-3" d="M69.69,37.46c.66-.06,1,.46,1.52.53a.29.29,0,0,1,.1.51c-.39.35-.89.72-1.38.58s-1.17-.53-1.24-.91C68.56,37.53,69.3,37.53,69.69,37.46Z"/><path class="cls-4" d="M84.75,35.6c-.09.72-.53,1-1.2.88-.32-.26-.87-.3-.85-.88.78-.18,1.1-1.1,1.94-1.22,0,.39-.44.33-.54.66a.94.94,0,0,0,.72.36A.13.13,0,0,1,84.75,35.6Z"/><path class="cls-3" d="M74.22,42.73c-.75.16-1.56.12-1.82,1.15a4.64,4.64,0,0,1-.85-1.54A4.16,4.16,0,0,1,74.22,42.73Z"/><path class="cls-3" d="M75,36.32c0-.34.31-.69-.22-.94-.79-.38-1.36,0-2,.47l1.6.93c-.88.14-1.3-.47-1.86-.74-.22-.1-.07-.32.07-.41a2.31,2.31,0,0,1,2.31-.51C75.59,35.43,75.59,35.86,75,36.32Z"/><path class="cls-3" d="M78.27,40.49a1,1,0,0,1-.9.4c-.13-.52.7-1.55-.78-1.42.68-.19,1.24-.28,1.13.63C77.68,40.51,78.05,40.39,78.27,40.49Z"/><path class="cls-3" d="M72.09,39.72c.47-.35,1.34.19,1.17-.86,0-.18.53.13.81.3C73.46,39.41,73,40.12,72.09,39.72Z"/><path class="cls-3" d="M65.82,39.64c.8-.08,1.37.38,2.23.92C67,40.47,66.53,39.78,65.82,39.64Z"/><path class="cls-3" d="M75.2,40.22c.77.11.85.76,1.27,1.46C75.67,41.31,75.61,40.6,75.2,40.22Z"/><path class="cls-3" d="M68.21,39.09c0,.18-.07.24-.21.22-.37-.05-.28-.41-.38-.64s.09-.28.22-.24C68.16,38.51,68.1,38.86,68.21,39.09Z"/><path class="cls-1" d="M44.77,56.84c-1.6,1.17-3.13,2.46-5.27,2.5a3.33,3.33,0,0,1-1.86-.53c-.78-.49-1.63-.89-2.43-1.36-1-.61-1.1-1.37-.12-2a8.93,8.93,0,0,1,3-1.55c.41.34.32.82.3,1.25a1.47,1.47,0,0,0,1,1.6c1.08,0,1.52-.38,1.58-1.38a4,4,0,0,1,.16-1.62.37.37,0,0,1,.27-.15A7.73,7.73,0,0,1,45,55.89.84.84,0,0,1,44.77,56.84Z"/><path class="cls-1" d="M51.42,61.59c.09-.72-.3-.43-.59-.27-.93.52-1.85,1.07-2.78,1.59a3.08,3.08,0,0,1-3,.1c-1.08-.53-2.15-1.09-3.17-1.72-.81-.49-.92-1.24-.28-1.79A9.71,9.71,0,0,1,44.29,58c.12-.05.32.08.48.13a1,1,0,0,1,.29.93,1.41,1.41,0,0,0,1.38,1.67,1.3,1.3,0,0,0,1.21-1.6,2.63,2.63,0,0,1,.14-1.33.35.35,0,0,1,.25-.18c1.13.2,1.94,1,3,1.45a1.88,1.88,0,0,1,.49,2.63Z"/><path class="cls-3" d="M46.45,61c-1.38-.27-1.63-.56-1.64-1.9,0-.33,0-.67,0-1V55.79a2.65,2.65,0,0,1-.28-1.59c0-.35,0-.7,0-1.05s0-.57,0-.85v-.49a10.82,10.82,0,0,0-.08-2.05,1.6,1.6,0,0,1-.13-.44c.13-.36.18-.79.7-.81a1.85,1.85,0,0,0,1.67.83,1.22,1.22,0,0,1,.13.7c0,3.23,0,6.45,0,9.67A1.79,1.79,0,0,1,46.45,61Z"/><path class="cls-3" d="M39.35,57.07a1.61,1.61,0,0,1-1.24-2,5.44,5.44,0,0,0,0-1.14V51.63a1.92,1.92,0,0,1-.29-1.28c0-1.62,0-3.25,0-4.87a1.31,1.31,0,0,1,.35-.91.28.28,0,0,1,.18,0c.61.32,1.35.49,1.52,1.32.12,3.41,0,6.81,0,10.21C39.89,56.48,39.94,57,39.35,57.07Z"/><path class="cls-2" d="M26,55.39c-.49-.09-.89-.46-1.41-.44a4.8,4.8,0,0,0,1-.76c.38-.49.66-.84,1.25-.22s0,.85-.33,1.2C26.45,55.55,26.23,55.51,26,55.39Z"/><path class="cls-2" d="M25.44,52c.15,0,.29.07.3.22s0,.32-.12.34c-.51.14-.57.45-.51.91a.44.44,0,0,1-.46.46.52.52,0,0,1-.47-.47C24.08,52.94,25,51.92,25.44,52Z"/><path class="cls-6" d="M41.24,64.26l-1.88-1.13C40.77,62.5,41.24,62.78,41.24,64.26Z"/><path class="cls-7" d="M47.91,68.08a12.35,12.35,0,0,1-2.12-1.21,7,7,0,0,0,.92,0C47.74,66.66,48.08,67.12,47.91,68.08Z"/><path class="cls-8" d="M54.58,72l-1.92-1.14a5.49,5.49,0,0,0,.81,0C54.46,70.61,54.73,71.08,54.58,72Z"/><path class="cls-9" d="M34.39,60.3l-1.91-1.13c.24,0,.49,0,.72-.05C34.17,59,34.53,59.37,34.39,60.3Z"/><path class="cls-10" d="M26,55.39a.55.55,0,0,0,.47-.22c1.41,0,1.48.09,1,1.08A4.06,4.06,0,0,1,26,55.39Z"/><path class="cls-4" d="M74.72,15.81a11.8,11.8,0,0,1-6.6-2.14c-3-2.18-3-5.85,0-8a12.83,12.83,0,0,1,9.12-2.06,11.42,11.42,0,0,1,5.53,1.93c3.22,2.26,3.26,5.87.08,8.21C81,15.07,78.38,15.82,74.72,15.81Z"/><path class="cls-3" d="M34.6,50c0,.41,0,.82,0,1.23,0,1.49-.09,1.6-1.66,2.09a1.27,1.27,0,0,1-.3-.87c0-3.49-.14-7,.07-10.49a2,2,0,0,1,1.71-1.14L35,42.86a6.17,6.17,0,0,0-.14.86c0,1.66,0,3.31,0,5A1.68,1.68,0,0,1,34.6,50Z"/><path class="cls-3" d="M39.35,57.07c.37-.29.24-.7.24-1.06,0-3.47,0-6.93,0-10.4a2.74,2.74,0,0,1,1.44-1c.47.4.09,1,.25,1.42a1.3,1.3,0,0,1,.26.73c.07,1.89,0,3.78,0,5.67-.06.45,0,.93-.29,1.32,0,.68,0,1.36,0,2A1.61,1.61,0,0,1,39.35,57.07Z"/><path class="cls-3" d="M32.94,41.66l0,11.63a1.76,1.76,0,0,1-1.51-2.14,23.24,23.24,0,0,0,0-2.89,3,3,0,0,1-.12-1.81,27,27,0,0,0,.09-3.71,8,8,0,0,1,.08-2,.22.22,0,0,1,.17,0C32.13,40.94,32.69,41.08,32.94,41.66Z"/><path class="cls-3" d="M31.44,40.79q0,3.74-.05,7.47a10.61,10.61,0,0,0-2.76-2c-.26-.14-.53-.38-.84-.07a.78.78,0,0,1-.38-.79c0-2.74-.15-5.48.07-8.21a.7.7,0,0,1,.21-.34c.36.25.22.63.22,1,0,2,0,4,0,6a1.13,1.13,0,0,0,.73,1.2,17.28,17.28,0,0,0,2.62,1.31c0-1.5,0-2.92,0-4.35C31.27,41.58,31.11,41.14,31.44,40.79Z"/><path class="cls-3" d="M41.28,46.64V46c1.73,0,3.46,0,5.19,0a5.63,5.63,0,0,1,2.72.45l-.86.54c-1.89-.08-3.78,0-5.67,0A1.92,1.92,0,0,1,41.28,46.64Z"/><path class="cls-4" d="M27.69,36.86V37a1.08,1.08,0,0,1-1.23.68,2.34,2.34,0,0,1-1.65-.79A1.85,1.85,0,0,1,27.69,36.86Z"/><path class="cls-4" d="M32.94,41.66c-.43-.32-1-.38-1.33-.92,1.53-.94,1-1.11,2.78,0A5.09,5.09,0,0,1,32.94,41.66Z"/><path class="cls-4" d="M41,44.57c-.28.62-1,.69-1.44,1-.28-.5-1.11-.36-1.25-1A1.77,1.77,0,0,1,41,44.57Z"/><path class="cls-3" d="M34.62,43.32c0-.24.23-.34.41-.46a16.4,16.4,0,0,0,3.13,1.71l-.07.8A6.65,6.65,0,0,1,34.62,43.32Z"/><path class="cls-1" d="M76.46,55.16A24.8,24.8,0,0,1,73,57.3c-.26.18-.45,0-.65-.08L61,50.6c.76-.71,1.73-.21,2.57-.44.18,0,.39.08.6,0,1.92,1.13,3.84,2.27,5.78,3.38.32.18.67.58,1.11.17a1.05,1.05,0,0,1,1.07-.7c.65.41,1.38.74,1.65,1.55.75.76,1.69.45,2.57.49Z"/><path class="cls-1" d="M60,50l-6.64-3.73a29.14,29.14,0,0,1,4-2.16v0c0,.63-.24,1.31.56,1.64a1.44,1.44,0,0,0,1,1.39c1.28.62,2.46,1.44,3.69,2.18A18.6,18.6,0,0,1,60,50Z"/><path class="cls-2" d="M72.1,53.13l-1,.6c-.45-.41,0-.82,0-1.22s.13-.72.2-1.09l1.68-.85c1,.17,1.12.38,1,1.59A2.2,2.2,0,0,1,72.1,53.13Z"/><path class="cls-3" d="M60,50c.66-.87,1.64-.63,2.53-.7l1.64.86a4.52,4.52,0,0,1-2.38.32,1.25,1.25,0,0,0-.79.1A2.12,2.12,0,0,1,60,50Z"/><path class="cls-4" d="M57.86,45.75c-1.12-.21-1.27-.65-.56-1.64C57.92,44.51,57.54,45.25,57.86,45.75Z"/><path class="cls-1" d="M34.62,43.32l3.47,2v6.26c-1.31-.25-2.24-1.29-3.49-1.66Q34.6,46.64,34.62,43.32Z"/><path class="cls-3" d="M26.46,37.68,27.69,37c0,2.73,0,5.45,0,8.18,0,.34,0,.68.05,1,0,.54,0,1.09,0,1.63,0,1-.64,1.54-1.74,1.53.38-.33.23-.77.23-1.17,0-3.11,0-6.21,0-9.32A2,2,0,0,1,26.46,37.68Z"/><path class="cls-3" d="M51.5,61.65c.14-.93.23-1.85-.64-2.52A3.45,3.45,0,0,0,51,56.25a3.42,3.42,0,0,0-1.05-.67c-.55-.37-1.15-.67-1.7-1a1,1,0,0,1-.21-.21c-.17-.27-.13-.47.21-.56.94.14,1.59.89,2.44,1.23.21,0,.37.37.61.19.08-.06-.17-.25-.25-.4-.21-.84.36-1.53.48-2.31a.46.46,0,0,1,.34-.28c.45.36,1,.56,1.33,1.13l0,11.62c-1.1-.3-1.84-.85-1.6-2.17A6.13,6.13,0,0,0,51.5,61.65Z"/><path class="cls-3" d="M61.25,56.23h.22a2.44,2.44,0,0,1,.2,1.89c0,.14-.28.28,0,.41a5.35,5.35,0,0,1-.21,3.09V62a1.93,1.93,0,0,1,.28,1.3c0,.77.2,1.57-.28,2.27,0,.77,0,1.54,0,2.31-.6.4-1,1.15-1.94.87.4-.32.24-.77.25-1.16,0-3.44,0-6.89,0-10.33C60.28,56.91,61,56.84,61.25,56.23Z"/><path class="cls-1" d="M57.93,15.81l-7.19,4.26c.75.77,1.84,1,2.61,1.73.06,1.46,1.14,2,2.24,2.65a1.73,1.73,0,0,1,.61,2c-.15.36-.39.57-.81.4A16.82,16.82,0,0,0,52,25c-1.57-.44-3.27-.88-4.9,0l-2.89,1.59a11.84,11.84,0,0,1-3.37-1.78c-.54-.35-.18-2.23.43-2.59,4-2.34,8-4.77,12.16-7A3.8,3.8,0,0,1,57.93,15.81Z"/><path class="cls-2" d="M101.61,56a1.16,1.16,0,0,1,0-.18,26.44,26.44,0,0,1,5,2.78c1.41,1,2.43.54,3.53-.23a7.66,7.66,0,0,1,1.26-.68v.24c.52,1.21.41,1.94-.38,2.53-1.12-.76-1.12-.76-1.39.74a.41.41,0,0,1,0,.09c-1.24,1-1.53,1-2.83.23-.35-.21-.71-.42-1-.64-.56-.35-1.17-.6-1.73-1s-1.26-.7-1.86-1.08a1.37,1.37,0,0,1-.72-.83,4.3,4.3,0,0,1-.07-1A2.69,2.69,0,0,1,101.61,56Z"/><path class="cls-4" d="M73.32,23.75l.62-.63c.28.11.19.36.23.56.11.59.72.69,1,1.07a1.29,1.29,0,0,1-1.67,1C73,25.51,72.91,24.73,73.32,23.75Z"/><path class="cls-1" d="M102.75,62.89l4.37,2.57-7.26,4.19a.68.68,0,0,1-.77,0L88.85,63.7s-.06-.11-.14-.24L92.89,61c0,.35,0,.69,0,1a.58.58,0,0,0,0,1,9.41,9.41,0,0,0,2.24,1.44c1.21.77,2.51,1.4,3.73,2.16.85.53,1.33-.2,2-.42a.43.43,0,0,1,.16.35c0,.25-.38.52,0,.73s.59,0,.86-.17.36-.42.2-.76a.74.74,0,0,1,.12-1c.51,0,.6-.39.59-.81S102.74,63.44,102.75,62.89Z"/><path class="cls-4" d="M102.13,65.36a6.92,6.92,0,0,0,0,.91c0,.28.74.31.42.65a2.26,2.26,0,0,1-1.53.78.8.8,0,0,1-.72-.33c-.23-.38.21-.41.38-.58a.51.51,0,0,0,.11-.57c0-.2.1-.45,0-.6-.48-.84.14-1.16.72-1.26C102.37,64.22,102,65,102.13,65.36Z"/><path class="cls-4" d="M92.89,63c-.35,0-.76-.18-.75-.53s.39-.51.77-.46C92.9,62.38,92.9,62.71,92.89,63Z"/><path class="cls-1" d="M54.16,48.08l4.37,2.52c.1.34-.13.43-.38.52a5.24,5.24,0,0,0-1.92,1c-.45.25-.87.71-1.49.4l-.37-.21c-.65.1-1.2-.49-1.86-.3-.9-.35-1.63-1.16-2.72-1-.16,0-.27-.19-.33-.36-.24-.81-.78-.92-1.5-.63-.53-.45-.17-1-.2-1.52-.21-.21-.7-.36-.09-.69.9-.5,1.8-1,2.67-1.55.47-.29.77.05,1.11.23s.7.43,1,.64c.17.22.41.45.07.7s-.82.63-1.26.92-.6-.63-1.22-.39a1,1,0,0,1,.63,1.25.43.43,0,0,0,.65.49c.65-.41,1.27-.12,1.92-.1,0-.13-.13-.1-.18-.14-.42-.26-1.26-.08-1.06-1a1.25,1.25,0,0,1,1.72-.9C53.9,48,54.05,48,54.16,48.08Z"/><path class="cls-1" d="M59.59,51.23l2.87,1.55L55,57.09c-.53-.88-.16-1.84-.23-2.76a17.53,17.53,0,0,1,3.13-2,2.08,2.08,0,0,0,.87-.59A1.3,1.3,0,0,1,59.59,51.23Z"/><path class="cls-2" d="M58.14,52.43a36.93,36.93,0,0,1-3.35,1.9c0-.62,0-1.24,0-1.86a6.68,6.68,0,0,0,2.07-1.07c.41-.21.75-.75,1.33-.39a.81.81,0,0,1,.24.62A1.26,1.26,0,0,1,58.14,52.43Z"/><path class="cls-4" d="M52.51,51.84c.76-.49,1.27.14,1.86.42,0,.76-.82.7-1.22,1.07-.41-.36-1.17-.3-1.26-1C52,51.94,52.2,51.86,52.51,51.84Z"/><path class="cls-1" d="M92.72,44.78l.88.46c0,.32-.25.36-.41.46q-8,4.59-16,9.18c-.23.13-.44.36-.75.28h0a2.85,2.85,0,0,0-.23-1.7,8.43,8.43,0,0,1,.05-2.79,1.07,1.07,0,0,1,1.13-.62c.51.41.37.95.24,1.44-.2.71,0,1.15.72,1.29a2.91,2.91,0,0,0,1,0c.66-.15,1.09-.47.72-1.23a3,3,0,0,1,0-2.14c.67-.45.82.18,1.11.53a1.85,1.85,0,0,0,1.84.69c.91-.1,1.11-.49.81-1.41a5.77,5.77,0,0,1-.06-2.89,1.58,1.58,0,0,1,1.4-.79A1.46,1.46,0,0,1,85.36,47c-.26,1.06.13,1.52,1.23,1.44a1.79,1.79,0,0,0,1.55-1A12.82,12.82,0,0,1,92.72,44.78Z"/><path class="cls-1" d="M87.63,41.58c-.12-.66-.24-1.33-.37-2l0,0a3.64,3.64,0,0,1,1.71.82,1.15,1.15,0,0,0,1.62-.07,1.55,1.55,0,0,1,1.46-.54c1.34.42,1,1.54,1.05,2.49a1.43,1.43,0,0,1-1,1.67c-1.19-.67-2.37-1.35-3.57-2C88.26,41.76,88,41.42,87.63,41.58Z"/><path class="cls-1" d="M87.33,42.69c.36-.18.39-.51.4-.85l3.78,2.25c-.34.89-3.05,2.43-3.93,2.23-.34-1,0-2.11-.22-3.15A.54.54,0,0,1,87.33,42.69Z"/><path class="cls-3" d="M87.77,46.41a29.9,29.9,0,0,0,3.74-2.32l1.21.69A49.87,49.87,0,0,0,88.3,47.5a.87.87,0,0,1-.71-.54C87.55,46.74,87.54,46.53,87.77,46.41Z"/><path class="cls-1" d="M61.48,65.57V63.3a1.45,1.45,0,0,1,1-.67,28.88,28.88,0,0,1,3.74,2.14,6.08,6.08,0,0,1-1.55,1c-.45.22-.81.5-.74,1.09A6.43,6.43,0,0,0,61.48,65.57Z"/><path class="cls-1" d="M42.93,28a41.05,41.05,0,0,0,4.19-2.59c1.53-1,4.67-.73,5.93.59.78.82,1.87,1,2.66,1.69.18.16.37.3.56.45a1,1,0,0,1,.16,1c-.35.71-1.06,1-1.67,1.34-.38.23-.84.33-1.1.75a.94.94,0,0,1-.53.43l-.28.05a3.09,3.09,0,0,0-2.31,2.07c-1.77.48-3.17-.31-4.49-1.33a1.25,1.25,0,0,1-.13-.57c-.39-.8-1-.52-1.66-.4a.76.76,0,0,1-.3-.1A2.82,2.82,0,0,1,42.93,28Z"/><path class="cls-1" d="M46,32.31c1.4.91,2.83,1.7,4.6,1.38a6.06,6.06,0,0,1,2.55-1.53c.72.24.7.88.56,1.37a1.37,1.37,0,0,0,.67,1.63,16.4,16.4,0,0,1-2.94,1.69,6.29,6.29,0,0,1-4.31-.28A19.07,19.07,0,0,1,45,35.37c-.13-.35.16-.5.36-.66a.52.52,0,0,0,.15-.73C45.48,33.35,44.9,32.56,46,32.31Z"/><path class="cls-1" d="M56.13,29.39l0-1.19a2,2,0,0,1,2,1,9.34,9.34,0,0,1,.26,1.32c.39,2.42.39,2.42-1.87,3.55a8.82,8.82,0,0,1-1.08-.72c-.42-.45-.3-1.07-.48-1.59a1.58,1.58,0,0,1,0-.31C55.26,30.76,56.09,30.31,56.13,29.39Z"/><path class="cls-1" d="M42.93,28l.21,2.22c.06.65.83.67,1,1.18.39.78.47,1.49-.41,2a4.08,4.08,0,0,1-2.91-1.81c0-.24,0-.48,0-.72C40.64,29.05,41,28.55,42.93,28Z"/><path class="cls-3" d="M55.39,26.86a1.29,1.29,0,0,0,.21-2.11,3.67,3.67,0,0,0-1-.58c-1.26-.36-1.49-1.24-1.29-2.37a1.75,1.75,0,0,1,.83.43c-.4.46-.24.8.23,1.07s.7.43,1.06.63a2.31,2.31,0,0,1,.81,3.47Z"/><path class="cls-4" d="M43.54,33.29a.61.61,0,0,0,.62-.74,10.29,10.29,0,0,1,0-1.11.61.61,0,0,1,.19,0c.44.26,1,.37,1.16.95-.08.56.06,1.14-.07,1.7-.47.32-.8-.24-1.24-.17,0,.26.24.27.38.38.45.24.8-.22,1.22-.18.44.32.09.45-.12.65s-.7.13-.7.6a9.71,9.71,0,0,1-2.1-1.25C42.63,33.47,43.17,33.44,43.54,33.29Z"/><path class="cls-4" d="M55.45,33.27c.37.17.85.22.83.8a4.86,4.86,0,0,1-1.86,1.09c-.63-.25-1.59-.2-1-1.41a1,1,0,0,0-.34-1.45c-.42-.12-.39-.37-.2-.67l.2,0a1.76,1.76,0,0,1,1,.7,6,6,0,0,1,.19,1.47c.12.69.55.34.82.19.51-.29-.3-.32-.14-.57S55.24,33.15,55.45,33.27Z"/><path class="cls-3" d="M43.54,33.29c-.25.25-.68.36-.63.83-1.11-.48-2.15-1-2-2.49A13.68,13.68,0,0,0,43.54,33.29Z"/><path class="cls-1" d="M88,52.89a.86.86,0,0,1,.19-.84l3.21-1.87c.62-.1,1,.36,1.48.61a14.07,14.07,0,0,1,2.66,1.72c-.47.72-1.33.87-2,1.35-.39.3-1,.37-1.2.88a2.06,2.06,0,0,1,.15,1.73.43.43,0,0,1-.24.22c-.51-.21-.39-.69-.39-1.07a1.33,1.33,0,0,0-.79-1.33c-.78-.39-1.42-1.14-2.44-1C88.32,53.38,88.13,53.09,88,52.89Z"/><path class="cls-4" d="M92.9,55a8.28,8.28,0,0,0,2.88-1.47c.29-.15.57-.29.85,0s-.19.29-.15.48a3,3,0,0,0,.78.91c.25.19.49.4.24.75l-3.76,2.24a2,2,0,0,1-1.15-.32c-.26-.21-.59-.41-.22-.79C93.27,56.39,92.66,55.57,92.9,55Z"/><path class="cls-4" d="M91,59.43,87.79,61.2A1.17,1.17,0,0,1,86.2,61c0-.78.57-1.45.55-2.25a7.48,7.48,0,0,1,3.47-1.91l.42.82a1.3,1.3,0,0,0,.44.9A.54.54,0,0,1,91,59.43Z"/><path class="cls-1" d="M92.45,56.79c-.37.47.17.44.34.62s.72.12.95.46a1.17,1.17,0,0,1-1.4-.06c-.69-.43-1.42-.78-2.13-1.17-.37.11-.64-.17-1-.25a21.85,21.85,0,0,1-4-2.5c.09-.76.77-.79,1.27-1-.47.45-.36.77.19,1.07a2.5,2.5,0,0,0,1.2.16,15.77,15.77,0,0,1,3.5,1.77,1.53,1.53,0,0,1,.7.72l.21,0C92.46,56.53,92.49,56.62,92.45,56.79Z"/><path class="cls-1" d="M95.49,52.51a33.56,33.56,0,0,1-4.14-2.33c.08-.41.48-.45.75-.64l.21.21a1.51,1.51,0,0,1,.81.64c.29.4.71-.07,1,.16a24.41,24.41,0,0,1,4.24,2.21c.15.15.28.3.19.54.15.75,1,.58,1.37,1a1.19,1.19,0,0,1-1.41,0C97.53,53.63,96.5,53.08,95.49,52.51Z"/><path class="cls-1" d="M86.25,60.79a1.64,1.64,0,0,0,1.54.41,1,1,0,0,1-1.58.23C83.83,60,81.42,58.63,79,57.21c.32-.24.54-.45.88-.41.06.89.74.87,1.34.85s.46-.62.49-1a7.48,7.48,0,0,0,0-.82h.17l.12.1c-.14,1.73,1.12,2.39,2.35,3.09a7.22,7.22,0,0,1,1.75,1.09C86.26,60.28,86.05,60.58,86.25,60.79Z"/><path class="cls-4" d="M89.22,56.12a2.48,2.48,0,0,1,1,.52,1.15,1.15,0,0,0,0,.19l-3.35,1.89c-.46.08-.72-.09-.72-.59C87,57.17,88.22,56.82,89.22,56.12Z"/><path class="cls-4" d="M92.45,56.79l-.18-.17c0-.63,0-1.25,0-1.88l.58.26c.37.48.22,1,.22,1.55S92.74,56.92,92.45,56.79Z"/><path class="cls-1" d="M91,59.43c.1-.34.15-.63-.26-.84s-.63-.55-.14-.94l1.59,1C91.93,59.05,91.44,59.18,91,59.43Z"/><path class="cls-1" d="M97.5,55.63a.74.74,0,0,0-.56-.66c-.49-.19-.53-.56-.46-1l1.92,1C98.19,55.39,97.8,55.45,97.5,55.63Z"/><path class="cls-2" d="M98.34,52.89a27.79,27.79,0,0,1-4.2-2.34c0-.61,0-1.21.07-1.82L98.35,51A1.61,1.61,0,0,1,98.34,52.89Z"/><path class="cls-4" d="M98.34,52.89c0-.63,0-1.26,0-1.89h.21c.09.28.33.37.58.45,0,.47,0,.94,0,1.41s-.26.49-.61.43Z"/><path class="cls-2" d="M72.94,23.63l.21.13a8.11,8.11,0,0,1,.09,1.63.86.86,0,0,1-.46.86c-1,.63-2,1.28-3.12,1.81-.28.14-.58.26-.83-.07A1.73,1.73,0,0,1,69,26.22c1-.57,2-1.12,3-1.73C72.31,24.26,72.79,24.13,72.94,23.63Z"/><path class="cls-4" d="M69,26.22v1.84c.05.19,0,.26-.22.23-.36.18-.66.25-.64-.33s0-.88,0-1.32c.22-.17.61-.19.58-.61Z"/><path class="cls-1" d="M62.1,23.09c-.79.48-1.59.95-2.37,1.46a.7.7,0,0,1-.85-.05L54,21.61a.79.79,0,0,1,.28-1.21,4.52,4.52,0,0,1,1.33-.72A5.88,5.88,0,0,1,58,20.81a3.08,3.08,0,0,0,2.4.52c.39.29,0,1,.62,1.16C61.36,22.71,61.91,22.57,62.1,23.09Z"/><path class="cls-1" d="M69.8,18.69,63.17,22.5a.6.6,0,0,1-.72-.29c-.07-.2-.06-.43-.23-.59L62,21.43a1.15,1.15,0,0,1-.35-1.15.78.78,0,0,1,.09-.27.54.54,0,0,1,.24-.16,8.05,8.05,0,0,0,3-1.6c.39,0,.39.29.41.56s-.08.54.18.74c.8.27,1.27-.38,1.86-.68a3.31,3.31,0,0,1,1.33-.68C69.2,18.12,69.66,18.11,69.8,18.69Z"/><path class="cls-1" d="M60.21,15l2.39-1.43a.63.63,0,0,1,.75-.06l7.51,4.37s.06.05,0,.06a.69.69,0,0,1-.11.13s-.06.06-.09.06a8.05,8.05,0,0,0-3.82.54.64.64,0,0,1-.28-.15,1.37,1.37,0,0,1-.18-.93,2.93,2.93,0,0,1,0-.29,1.22,1.22,0,0,0,0-1.17,20.77,20.77,0,0,0-2.7-1.75,1.19,1.19,0,0,0-1.52.09,3.08,3.08,0,0,1-2,.93A.28.28,0,0,1,60.21,15Z"/><path class="cls-1" d="M60.21,15v.36c-.71,1.07-2,1.35-2.94,2.05a6.69,6.69,0,0,0-1.21.77c-.17.22-.2.51-.35.74s-.56.32-.7.63c-.42.69-1.34.87-1.67,1.65a9.21,9.21,0,0,1-2-1.12Z"/><path class="cls-3" d="M66.89,18.5c.07,0,.16,0,.21,0a4.08,4.08,0,0,1,3.7-.41l-1,.61c-.93-.71-1.58,0-2.28.43a2.3,2.3,0,0,0-.44-.23C67,18.79,66.77,18.72,66.89,18.5Z"/><path class="cls-3" d="M53.34,21.21a.86.86,0,0,1,.51-1c.38-.19.85-.34.95-.87.36-.12.56.14.81.31l.07.11a8.3,8.3,0,0,1-1.1.72A1,1,0,0,0,54,21.61,1.09,1.09,0,0,1,53.34,21.21Z"/><path class="cls-3" d="M62.53,22.09l.64.41a2.46,2.46,0,0,1-1.07.59l-1.27-.39A2.39,2.39,0,0,1,62.53,22.09Z"/><path class="cls-1" d="M37.28,38.08a12,12,0,0,0,1.7-1,2.25,2.25,0,0,1,3.18,0,29.47,29.47,0,0,0,2.62,1.64,10.83,10.83,0,0,1-3.27,2.06,1.56,1.56,0,0,1-.31,0,11.37,11.37,0,0,1-4-2.42A.44.44,0,0,1,37.28,38.08Z"/><path class="cls-1" d="M42.79,42.89a.89.89,0,0,1-1.27.13c-2.39-1.42-4.81-2.79-7.23-4.19.13-.48.63-.48.92-.74.52.4.95,1,1.74.75a40.27,40.27,0,0,0,4.26,2.63,1.15,1.15,0,0,1,.4.39,1.62,1.62,0,0,0,.78.68A.91.91,0,0,1,42.79,42.89Z"/><path class="cls-4" d="M42.28,42.72c-.3-.19-.73-.23-.82-.68.69,0,.29-.58.5-.83a9.66,9.66,0,0,1,3.41-2,.71.71,0,0,1,.43.25c.94.88.94.88,0,1.74-.41.54-1.23.26-1.62.82C43.59,42.29,43.07,42.89,42.28,42.72Z"/><path class="cls-4" d="M45.42,39.33l-3.34,1.88c-.46,0-.67-.16-.62-.62l3.32-1.88.63.4C45.53,39.18,45.54,39.25,45.42,39.33Z"/><path class="cls-4" d="M37,39c-1.2.28-1.71,0-1.76-.91.45-.28.85-1,1.39-.08.07.11.45.05.68.07,0,.05,0,.1,0,.15C37.12,38.47,37.19,38.79,37,39Z"/><path class="cls-1" d="M45.42,39.33v-.22a5.31,5.31,0,0,1,2,1.16l-1.58.95-.12-.14c.74-.42.9-.81,0-1.23C45.57,39.78,45.52,39.51,45.42,39.33Z"/><path class="cls-4" d="M42.28,42.72c.74,0,1.22-.67,1.94-.68a3,3,0,0,1-1.43.85A.58.58,0,0,1,42.28,42.72Z"/><path class="cls-1" d="M84,67.88c1-.61,2.08-1.2,3.1-1.85.14-.09.2-.25.39-.13a32.86,32.86,0,0,1,4.19,2.6,16,16,0,0,1-3.26,2,1.36,1.36,0,0,1-.29.06A21.89,21.89,0,0,1,84,68.28l-.09-.12A.24.24,0,0,1,84,67.88Z"/><path class="cls-4" d="M88.14,70.38a.67.67,0,0,1,.2,0A2,2,0,0,0,90,70.08a7,7,0,0,1,2.28-1.18l.21,0c.23.54,1.21.68.84,1.55a32.05,32.05,0,0,1-3.6,2.16,1.52,1.52,0,0,1-1.8-1.29A1,1,0,0,1,88.14,70.38Z"/><path class="cls-1" d="M88.15,71.41c.18.86,1,1,1.59,1.22a1.28,1.28,0,0,1-1.58,0c-2.33-1.39-4.69-2.73-7.13-4.14a2.23,2.23,0,0,1,1.07-.58c.87.9.91.9,1.79.22l.08,0a3,3,0,0,0,1.35,1.39A11.51,11.51,0,0,1,88.15,71.41Z"/><path class="cls-4" d="M92.29,68.9a20.46,20.46,0,0,1-2.71,1.69c-.47.27-.92.34-1.24-.22a20.06,20.06,0,0,1,3.32-1.87A.66.66,0,0,1,92.29,68.9Z"/><path class="cls-4" d="M83.89,68.09c-.17.4-.19,1-.86.79-.42-.17-1.16-.18-.93-1A2.76,2.76,0,0,1,83.43,67c-.33.67,0,.82.55.86Z"/><path class="cls-1" d="M93.34,70.47a.71.71,0,0,0-.46-.72.64.64,0,0,1-.38-.83c.73.07,1.17.67,1.84.89A1.86,1.86,0,0,1,93.34,70.47Z"/><path class="cls-1" d="M27.7,32.88a15.62,15.62,0,0,0,2.14-1.26,1.92,1.92,0,0,1,2.69,0,30.16,30.16,0,0,0,2.86,1.68.17.17,0,0,1,.08.16q0,.09,0,.09c-1,.7-2.08,1.22-3.12,1.83a2,2,0,0,1-.51.25c-1-.44-1.89-1.08-2.84-1.61A1.29,1.29,0,0,0,27.63,34a.3.3,0,0,1-.25-.16A.68.68,0,0,1,27.7,32.88Z"/><path class="cls-4" d="M35.4,33.49a.55.55,0,0,0,0-.18,1,1,0,0,1,.65.4,2.49,2.49,0,0,0,.74.84c.26.2.58.42.3.84h0c-.46.32-1,.48-1.47.84h0c-.79.42-1.54.93-2.35,1.33A1,1,0,0,1,32,37c.08-.47.56-.73.63-1.2a12,12,0,0,1,2.11-1.31A1.12,1.12,0,0,0,35.4,33.49Z"/><path class="cls-1" d="M32.06,36.84a1.79,1.79,0,0,0,1.27.61c.07,0,.08.09.06.13s0,.07-.07.07a.84.84,0,0,1-1.11.12c-1.83-1.11-3.69-2.17-5.54-3.25-.22-.31-.05-.51.18-.7a.6.6,0,0,1,.63,0l.09,0a23.54,23.54,0,0,1,4.31,2.39C32,36.45,32,36.67,32.06,36.84Z"/><path class="cls-4" d="M27.48,33.87l-.6.06c-.7,0-1.34-.11-1.27-1.06.7-1,1.4-.2,2.09,0A1.89,1.89,0,0,0,27.48,33.87Z"/><path class="cls-1" d="M37.08,35.39a.65.65,0,0,0-.5-.68c-.48-.18-.54-.57-.54-1l2,1.12A1.33,1.33,0,0,1,37.08,35.39Z"/><path class="cls-3" d="M25.61,32.87c.17.67.76.82,1.27,1.06l-.21.59-1.85-1C25,33.1,25.36,33.06,25.61,32.87Z"/><path class="cls-1" d="M33.32,37.65c0-.07,0-.14,0-.2a6.43,6.43,0,0,1,2.3-1.24l-.21.43h0C34.61,36.73,34.1,37.46,33.32,37.65Z"/><path class="cls-1" d="M35.62,36.22a2.12,2.12,0,0,1,1.47-.84A2.37,2.37,0,0,1,35.62,36.22Z"/><path class="cls-1" d="M61.47,61.61c.07-1-.22-2.08.21-3.09,1.58-.91,3.17-1.82,4.75-2.75a.89.89,0,0,1,1-.09c1.72,1,3.47,2,5.2,3l6,3.51-4.36,2.54-1.17.68C70.49,67,70.49,67,67.89,65.18a.85.85,0,0,1,.47-.57c.67-.11,1.28-.26,1.06-1.18a.39.39,0,0,1,.26-.4c.42,0,.53.63,1,.58,1.28-.48,2.33-1.36,3.56-1.94.17-.1.46-.09.48-.32s-.32-.21-.43-.37-.18-.52-.37-.73c-2.07-1.38-4.22-2.63-6.42-3.8a1.11,1.11,0,0,0-1.09,0,14.1,14.1,0,0,0-2.7,1.73,1.28,1.28,0,0,0-.2,1.41,1.57,1.57,0,0,1,0,.86c-.1.22-.31.32-.49.45s-.16.36-.24.54a.72.72,0,0,1-.66.35Z"/><path class="cls-1" d="M66.88,64.58l-3.54-2c-.24-.37,0-.52.3-.69s.52-.07.74-.24a1.11,1.11,0,0,0,.26-.27c.16-.21.15-.52.42-.67a9,9,0,0,1,3.15,1.71.94.94,0,0,1,.08.75.87.87,0,0,1-.36.44,1.2,1.2,0,0,0-.43.49A.77.77,0,0,1,66.88,64.58Z"/><path class="cls-1" d="M61.67,58.11c-.45-.59-.13-1.26-.2-1.89a9.55,9.55,0,0,1,3.11.18Z"/><path class="cls-3" d="M63.77,62a.64.64,0,0,0-.43.56l-1.24-.77.6-.41C63.31,61.19,63.62,61.47,63.77,62Z"/><path class="cls-3" d="M66.88,64.58c.11-.24.45-.33.41-.66a.88.88,0,0,1,1,.78.72.72,0,0,1-.45.48A2.47,2.47,0,0,1,66.88,64.58Z"/><path class="cls-3" d="M62.52,62.63a1.89,1.89,0,0,1-1,.67V62A2.54,2.54,0,0,1,62.52,62.63Z"/><path class="cls-1" d="M115.64,49.35a19.32,19.32,0,0,1,4.81,2.76c-1,.79-2.18,1.19-3.14,2-.23.26-.15.65-.39.9a.34.34,0,0,1-.28,0,2.73,2.73,0,0,0-1.52-1.71,8.15,8.15,0,0,1-2.44-1.55.57.57,0,0,1,0-.29,5,5,0,0,1,1.75-1.21A6.36,6.36,0,0,0,115.64,49.35Z"/><path class="cls-1" d="M116.67,54.94h.2a1.67,1.67,0,0,1,.42.32c.35.36.91.38,1.25.75a1.1,1.1,0,0,1-1.6.18c-2-1.24-4.13-2.4-6.18-3.61a2.18,2.18,0,0,1-.93-.69l1-.52c.35.78,1.16.67,1.79.91,1.12.62,2.17,1.35,3.3,1.93A1.72,1.72,0,0,1,116.67,54.94Z"/><path class="cls-4" d="M118.54,56a1.83,1.83,0,0,1-1.46-.64c0-.41.54-.52.56-.93a13.57,13.57,0,0,1,3.29-2.06c.43.52,1.48.6,1.16,1.64A32.51,32.51,0,0,0,118.54,56Z"/><path class="cls-4" d="M115.64,49.35c.22.36-.07.46-.3.59l-2.62,1.48a.49.49,0,0,1-.82-.17c-.18-.38.24-.48.41-.69a7.81,7.81,0,0,0,1.68-.91C114.47,49.32,115,48.86,115.64,49.35Z"/><path class="cls-4" d="M120.86,52.44c-.87,1-2.14,1.33-3.14,2.1-.49.06-.67-.2-.66-.65a14.82,14.82,0,0,1,3.39-1.78l.38.14c.08,0,.11.07.09.11S120.88,52.44,120.86,52.44Z"/><path class="cls-4" d="M112.31,50.56c-.5.59-.33.86.41.86a1,1,0,0,0,0,.17c.06.31.11.63-.2.85A2.63,2.63,0,0,1,111,52c-.27-.19-.22-.38-.09-.61A2.59,2.59,0,0,1,112.31,50.56Z"/><path class="cls-1" d="M120.86,52.44a.32.32,0,0,1,0-.19A7.49,7.49,0,0,1,123,53.41c-.22.38-.57.46-.87.62C122.11,53.17,121,53.15,120.86,52.44Z"/><path class="cls-3" d="M88.94,23.49a9.2,9.2,0,0,1,9.24.42,3.22,3.22,0,0,1,0,5.5c-2.58,1.95-7.66,1.88-10.16-.15a3.08,3.08,0,0,1-.47-4.71c.51-.25.71.07.89.46-.73,2.44-.16,3.6,2.39,4.24a8.72,8.72,0,0,0,5.61-.32,4.16,4.16,0,0,0,1.31-.85,1.76,1.76,0,0,0,0-2.81A5.71,5.71,0,0,0,94,23.77a13.59,13.59,0,0,0-4.12.47A1.1,1.1,0,0,1,88.94,23.49Z"/><path class="cls-3" d="M88.94,23.49l.87.58a1.65,1.65,0,0,1-1.45.91c-.29-.12-.47-.45-.83-.43A2.76,2.76,0,0,1,88.94,23.49Z"/><path class="cls-1" d="M41.28,46.64c2.07,0,4.13,0,6.2,0,.31,0,.72-.15.85.35-.92.93-2.42.58-3.33,1.53-.23.26-.28.66-.64.81-.37.74-1.23.83-1.79,1.35.65.66,1.68.78,2.22,1.59l0,.81a3.54,3.54,0,0,1-3.49-.61Z"/><path class="cls-3" d="M47.76,48.47c.47.41-.15,1.09.36,1.49s.88.66.73,1.31c0,.54.1,1.07-.41,1.47s-.15.76-.27,1.13c-.29.12-.1.27,0,.41a8.29,8.29,0,0,1-.17,3.4,9.92,9.92,0,0,0,0,1.44c.16,1.18-.44,1.69-1.5,1.87q0-5.18,0-10.35a2.09,2.09,0,0,1,.21-1.3C47.06,49.09,47.55,49,47.76,48.47Z"/><path class="cls-1" d="M54.16,48.08c-.66.06-1.42-.27-1.84.66-.23.51-.1.69.31.67s.91.3.84.55c-.13.46-.56.5-1,.14s-.59-.09-.81.16-.68.27-1,0-.52-.55-.18-1c.15-.19.23-.44-.2-.5s-.63-.15-.65-.55a.37.37,0,0,1,.33-.35.88.88,0,0,1,1,.37,2.53,2.53,0,0,1,.09.61c.35-1,1.51-.79,1.43-1.79Z"/><path class="cls-3" d="M58.16,51.59c0-.2,0-.39,0-.58l.39-.41a3,3,0,0,1,1.06.63l-.63.6C58.63,52,58.4,51.75,58.16,51.59Z"/><path class="cls-3" d="M109,36.64c-2.47,1.55-7,1.27-9.23-.56a3.21,3.21,0,0,1,.18-5.43,9.47,9.47,0,0,1,9.93,0c2,1.43,2.09,3.68.33,5.18-.34-.06-.64-.18-.72-.56a1.4,1.4,0,0,1,.15-.49c.79-1.68.42-2.78-1.26-3.53a8.24,8.24,0,0,0-6.77-.11,4.38,4.38,0,0,0-.81.47c-1.5,1.06-1.54,2.49,0,3.56a7.49,7.49,0,0,0,5.69,1,6.3,6.3,0,0,1,1.43-.25A1.44,1.44,0,0,1,109,36.64Z"/><path class="cls-3" d="M109,36.64c-.45,0-.68-.45-1.12-.44a1.47,1.47,0,0,1,1.62-.86,1.43,1.43,0,0,1,.71.5A2,2,0,0,1,109,36.64Z"/><path class="cls-1" d="M102.73,50.41l1.87,1a1.84,1.84,0,0,1-1,.62c.17-.38-.07-.55-.37-.68A.73.73,0,0,1,102.73,50.41Z"/><path class="cls-1" d="M68.77,28.29l.22-.23A40.39,40.39,0,0,0,72.75,26c.47-.26.37-.69.38-1.09s0-.76,0-1.13a.33.33,0,0,1,.17,0,2.18,2.18,0,0,0,0,.51c.1.42-.31,1,.29,1.26s1.24-.16,1.61-.77c.3,0,.5.16.82.45l-7,4c-.39,0-.39-.21-.27-.48Z"/><path class="cls-1" d="M64,27.27a1,1,0,0,1-.3,0c-.29-.18-.77-.23-.79-.58s.47-.44.74-.62a6.13,6.13,0,0,1,.92-.47c.22.47,0,.76-.41,1S63.72,26.94,64,27.27Z"/><path class="cls-1" d="M68.74,28.69a.57.57,0,0,0,.27.48c-.85.95-1.53.37-2.2-.26C67.48,29.11,68.16,29.33,68.74,28.69Z"/><path class="cls-1" d="M110.87,60.36c.66-.19.61-.71.6-1.23s0-.81,0-1.22l4.36,2.56c-2.41,1.39-4.77,2.74-7.12,4.11a.92.92,0,0,1-1,0c-2.06-1.22-4.12-2.41-6.18-3.61.15-.56.63-.46,1-.47a16,16,0,0,1,3.32.12,5.62,5.62,0,0,1,.79.46,2.11,2.11,0,0,0,2.93.13c.25.11.21.32.17.53s-.37.43-.07.64.6,0,.87-.14.49-.29.33-.65S110.45,60.76,110.87,60.36Z"/><path class="cls-1" d="M105.81,60.62c-.86.37-1.76.08-2.63.18-.57.06-1.16-.17-1.7.17L97.3,58.64a5.71,5.71,0,0,1,1.46-.94c.12.07.27.08.38.16a10.24,10.24,0,0,0,5,1.88Z"/><path class="cls-1" d="M104.18,59.74c-2.19.34-3.88-.64-5.42-2L101.61,56c0,.36,0,.73,0,1.1a.58.58,0,0,0,0,1C102.32,58.85,103.39,59.1,104.18,59.74Z"/><path class="cls-1" d="M84.75,35.6l.07-.2c.94-.52,1.91-1,2.79-1.57a1.11,1.11,0,0,1,1.46,0c1.1.8,2.46,1.18,3.44,2.17a19,19,0,0,1-3.28,2,1.53,1.53,0,0,1-.3,0,16.71,16.71,0,0,1-4.12-2.42Z"/><path class="cls-4" d="M90.45,40.16c-.61,0-1.17-.15-1.43-.82a1.41,1.41,0,0,0,.59-1.13c.94-.46,1.82-1.05,2.77-1.51a1.18,1.18,0,0,0,.56-.69l.4.29a4.84,4.84,0,0,0,.65,1,.52.52,0,0,1,0,.85c-.32.22-.68.39-.82.79v0C92.25,39.33,91.5,40.07,90.45,40.16Z"/><path class="cls-4" d="M92.94,36c-.1.22.21.52-.17.71-1.06.53-2,1.42-3.19,1.58-.32,0-.48-.08-.41-.43A21.22,21.22,0,0,1,92.51,36C92.67,36.24,92.8,36,92.94,36Z"/><path class="cls-1" d="M94,38.16c.07-.26.17-.53-.18-.67-.58-.24-.52-.71-.44-1.18.24.14.48.27.71.42s1,.32.93.71S94.36,38,94,38.16Z"/><path class="cls-4" d="M90.45,40.16l2.7-1.23c-.19.48-.77.46-1.05.82-1.66,1.43-3.25,1.09-4.79-.21,0-.32.07-.36.32-.21.56.33,1.14.62,1.68,1A.75.75,0,0,0,90.45,40.16Z"/><path class="cls-1" d="M89.22,56.12c.21.43-.22.4-.39.51-.84.51-1.7,1-2.56,1.47a.87.87,0,0,1-.27.14,9.27,9.27,0,0,1-4.07-2.37l-.07-.07a23.44,23.44,0,0,1,3.34-1.91Z"/><path class="cls-2" d="M92.06,56.59l-4.2-2.49L88,52.89a11.29,11.29,0,0,1,2.65.74A2.45,2.45,0,0,1,92.06,56.59Z"/><path class="cls-4" d="M93.12,50.39c-.34-.13-.71-.22-.81-.64l1-.55C93.21,49.66,93.7,50.08,93.12,50.39Z"/><path class="cls-3" d="M135,37.85a12,12,0,0,1,5.26,1.29,6.81,6.81,0,0,1,2.31,1.75,4.1,4.1,0,0,1-.22,5.72A9.33,9.33,0,0,1,137,49.18a13.71,13.71,0,0,1-8.71-1.11,8.9,8.9,0,0,1-1.07-.64c-3-2.15-2.95-5.58.09-7.66C129.48,38.32,131.9,37.84,135,37.85Z"/><path class="cls-4" d="M76.48,53.69c.79.5.36,1,0,1.48-1,.25-2.06.44-2.93-.43a3.57,3.57,0,0,1,.21-2.47c.08-.73.15-1.46-.81-1.7,0-.21-.17-.49.2-.58a2.92,2.92,0,0,1,1.19.9,12.61,12.61,0,0,1,.11,2.88c0,.72.28.84.88.45C75.67,54,76,53.56,76.48,53.69Z"/><path class="cls-4" d="M87.73,47c.31,0,.39.33.57.51a2.13,2.13,0,0,1-3.24.76c-.29-.27-.44-.64-.2-.91a2.16,2.16,0,0,0,.32-1.75,6.35,6.35,0,0,0-.74-1.5c0-.19-.42-.36,0-.57a2.71,2.71,0,0,1,1.38.67,11.43,11.43,0,0,1,.14,2.68c0,.3-.09.69.2.87s.64-.15.92-.32A3.17,3.17,0,0,1,87.73,47Z"/><path class="cls-4" d="M76.71,48.27a3,3,0,0,1,2.67-1.43c.34,0,.62.13.7.51-.12.5-.56.68-.94.9s-1,.54-1,1.2c0,.2-.06.45-.3.49s-.29-.24-.36-.42a1.29,1.29,0,0,0-.19-.47C77.09,48.8,76.73,48.66,76.71,48.27Z"/><path class="cls-4" d="M84.16,49.33c.56.63.24,1.05-.36,1.35A2.41,2.41,0,0,1,81,50.16c-.28-.73.21-1.4.18-2.11a3.86,3.86,0,0,0-.09-1.12c-.11-.32-.5-.43-.61-.76s-.15-.43.16-.53a2.15,2.15,0,0,1,1.19.88,9.52,9.52,0,0,1,.1,2.26c0,1.52.1,1.57,1.38.84C83.58,49.47,83.81,49.22,84.16,49.33Z"/><path class="cls-4" d="M85.66,44.18a1.63,1.63,0,0,1-1.27-.65c.58-.36,1.18-.7,1.73-1.09s.8.19,1.21.25l.18.18C87.3,43.89,86.52,44.09,85.66,44.18Z"/><path class="cls-4" d="M81.7,46.45c-.35-.28-.92-.26-1-.81a7.15,7.15,0,0,0,.88-.54A1.64,1.64,0,0,1,83.75,45a.35.35,0,0,1,.09.28A2.83,2.83,0,0,1,81.7,46.45Z"/><path class="cls-4" d="M74.19,50.82c-.45-.16-.91-.29-1-.83a13.41,13.41,0,0,0,1.2-.75,1.2,1.2,0,0,1,1.48-.08c.31,0,.5.1.53.43A2.85,2.85,0,0,1,74.19,50.82Z"/><path class="cls-2" d="M80.49,46.17l.83.48c.1,1.65.09,1.66-1,1.74-.45-.27-.2-.74-.31-1.11l-.6-.44A2.07,2.07,0,0,1,80.49,46.17Z"/><path class="cls-2" d="M83.8,45.13a.88.88,0,0,1,0-.15c-.56-.9.18-.8.69-.88.93.16.8.85.74,1.5L84,46.2C83.57,45.91,83.88,45.49,83.8,45.13Z"/><path class="cls-2" d="M76.24,49.56l-.42-.4c0-.57.5-.68.89-.89.28.11.4.49.77.45a1.89,1.89,0,0,1,0,1.42l-1,.45C76.1,50.31,76.36,49.89,76.24,49.56Z"/><path class="cls-2" d="M84.81,35.66c1.48.55,2.7,1.61,4.15,2.22.22.35.34.71,0,1-1.31-.52-2.44-1.37-3.69-2C84.73,36.65,84.74,36.15,84.81,35.66Z"/><path class="cls-4" d="M88.94,38.93l0-1a.5.5,0,0,1,.21,0,.73.73,0,0,0,.41.43c.39.66.38,1.1-.56,1C89,39.21,89,39.07,88.94,38.93Z"/><path class="cls-3" d="M41.28,52.46a12.24,12.24,0,0,0,3.49.61v1.08c-.6.56-1.24.21-1.85.07s-.94-.43-1.46-.5h-.18Z"/><path class="cls-1" d="M41.46,53.72c1.12,0,2.16.63,3.31.43,0,.55,0,1.09,0,1.64Z"/><path class="cls-1" d="M51.05,56a2.22,2.22,0,0,1-.19,3.09,13.36,13.36,0,0,1-2.72-1.44A7.28,7.28,0,0,1,51.05,56Z"/><path class="cls-1" d="M51.05,56a12.33,12.33,0,0,1-2.91,1.65H48c0-1.14-.31-2.29.17-3.4l0,.06a.46.46,0,0,1,.07.07c.37.42-.08,1.18.39,1.4s.87-.45,1.41-.41A3,3,0,0,1,51.05,56Z"/><path class="cls-11" d="M44.58,49.53c.48.73.14,1.53.21,2.3-.84.1-1.35-.54-2-.93-.32-.19-.12-.44.1-.56A5.08,5.08,0,0,1,44.58,49.53Z"/><path class="cls-4" d="M44.58,49.53l-1.9,1.17,2.11,1.13v.43L42,50.69l2.41-1.37Z"/><path class="cls-3" d="M76.34,15.43c-3.69,0-6.34-.55-8.51-2.5a4.1,4.1,0,0,1-.12-6.45A9.52,9.52,0,0,1,73.32,4a13.52,13.52,0,0,1,8.39,1.26,5.21,5.21,0,0,1,3.07,3.83c.28,2.09-.86,3.5-2.49,4.56A10.91,10.91,0,0,1,76.34,15.43Z"/><path class="cls-1" d="M73.75,52.27c.26.85-.29,1.64-.21,2.47-.1-.87-1.11-.94-1.44-1.61Z"/><path class="cls-1" d="M48.17,53.87c-.31-.56-.41-1.08.29-1.45s-.07-.81.17-1.18c.56,0,.94.34,1.38.59a4,4,0,0,0,1.59.66c-.07.64.09,1.34-.5,1.86-.13.11,0,.31.12.43,0,.46-.3.43-.62.41Z"/><path class="cls-2" d="M51.6,52.49c-.21.38-.49.25-.77.08l-2.2-1.33c.54-.71-.62-.74-.51-1.28,0-.19,0-.53.18-.52a1.67,1.67,0,0,1,1.24.62c.23.28.05.68.81.62a3,3,0,0,1,2.16,1.16l-.62.45Z"/><path class="cls-4" d="M50,55.4c-.54.35-1.19,1.1-1.64.85s-.15-1.25-.23-1.91A7.85,7.85,0,0,1,50,55.4Z"/><path class="cls-3" d="M50.6,55.19l.62-.41c.51.14.43.5.34.9A1.59,1.59,0,0,1,50.6,55.19Z"/><path class="cls-4" d="M110.87,60.36c0,.47-.21,1,.37,1.28.18.08.28.3.08.4-.59.29-1,1-1.85.67-.2-.09-.53-.16-.45-.48s.74-.47.51-1c0-.2.12-.47,0-.61-.52-.82.15-1.1.66-1.22C111.06,59.19,110.74,60,110.87,60.36Z"/><path class="cls-4" d="M101.63,58.05c-.35,0-.75-.09-.75-.46s.39-.47.74-.51C101.62,57.4,101.62,57.73,101.63,58.05Z"/><path class="cls-4" d="M58.16,51.59c.36-.23.55.11.8.24-.12.41-.49.47-.82.6C58.15,52.15,58.15,51.87,58.16,51.59Z"/><path class="cls-4" d="M77.49,50.14a3.24,3.24,0,0,0,0-1.42c.53.18.17.67.41,1.06a1.32,1.32,0,0,1,.86-1.62A2.3,2.3,0,0,0,80,47.28c.39.28.1.71.23,1a.73.73,0,0,1,0,1c0,.76-.24,1.55.22,2.27-.51.77-1.37,1-2.1,1.45-1.19-.36-1.25-.49-.87-1.59A2.85,2.85,0,0,0,77.49,50.14Z"/><path class="cls-4" d="M83.8,45.13c.34.31.06.73.2,1.07a8.89,8.89,0,0,0,.16,3.13,8.4,8.4,0,0,1-1.63,1.05c-.61.29-.84,0-.84-.53,0-1.14,0-2.27,0-3.4A9.59,9.59,0,0,0,83.8,45.13Z"/><path class="cls-4" d="M76.24,49.56c.34.28.06.7.22,1,0,1,0,2.07,0,3.1-.47.35-.93.71-1.43,1s-.9.33-.88-.47c0-1.14,0-2.28,0-3.42Z"/><path class="cls-1" d="M80.22,49.34c0-.34,0-.67,0-1,1.11-.07,1.17-.83,1.11-1.68a3.89,3.89,0,0,1-.13,2.73,4,4,0,0,0-.18.78C80.74,49.89,80.82,49.29,80.22,49.34Z"/><path class="cls-4" d="M78.34,53.06c.5-.77,1.38-1,2.1-1.45.5.62.14,1-.4,1.28A2.75,2.75,0,0,1,78.34,53.06Z"/><path class="cls-4" d="M85.66,44.18c.62-.43,1.44-.58,1.85-1.31.45.76.13,1.6.22,2.4,0,.37,0,.76,0,1.14,0,.19,0,.39,0,.58-.23.74-.93,1-1.52,1.24s-.59-.25-.58-.66Z"/><path class="cls-2" d="M52.92,31.63a.57.57,0,0,0,.2.67,14.71,14.71,0,0,1-2.48,1.39A2.13,2.13,0,0,1,52.92,31.63Z"/><path class="cls-2" d="M56.23,29.36c.43,1.19-.71,1.45-1.23,2.07a3.87,3.87,0,0,1-1.43-.2c-.24-.43.2-.41.38-.52C54.7,30.25,55.47,29.81,56.23,29.36Z"/><path class="cls-4" d="M45.42,32.26c-.35-.27-.94-.24-1-.82.79-.69,1.35-.26,1.86.39A.81.81,0,0,1,45.42,32.26Z"/><path class="cls-4" d="M53.57,31.23c.55-.4,1,0,1.43.2a.4.4,0,0,1,0,.19,1,1,0,0,1-1.87,0Z"/><path class="cls-4" d="M45.42,32.26l.82-.43a.49.49,0,0,1-.2.48c-.67.53-.37,1.18-.21,1.81-.41.14-.65.76-1.23.46.06-.36.32-.43.63-.44C45.61,33.54,45.33,32.88,45.42,32.26Z"/><path class="cls-4" d="M54,32.25l1-.63c.44.47-.09,1.21.46,1.65l-.47.2a.59.59,0,0,1-.81.45C53.75,33.41,54.05,32.8,54,32.25Z"/><path class="cls-4" d="M45.23,34.14l-.63.44c-.28-.32-1.15-.32-.83-.89s.82.09,1.24.24C45.09,34,45.15,34.07,45.23,34.14Z"/><path class="cls-4" d="M54.17,33.92l.81-.45a1,1,0,0,1,.7.34C54.53,34.7,54.33,34.71,54.17,33.92Z"/><path class="cls-4" d="M86.06,58.09h.21c0,.41.38.43.6.62,0,.2,0,.4,0,.6.05.6.06,1.19-.63,1.47-.29-.14-.12-.43-.21-.63A1.77,1.77,0,0,1,86.06,58.09Z"/><path class="cls-2" d="M86.06,58.09l0,2.07A20.42,20.42,0,0,1,82.26,58c-.77-.51-.27-1.38-.33-2.08A25.63,25.63,0,0,0,86.06,58.09Z"/><path class="cls-2" d="M55.59,18.91c.08-.28-.07-.62.24-.83a4.06,4.06,0,0,1,2.29,1.06,2,2,0,0,0,2.29.07c1.71-1,3.37-2,5.1-3,.36-.2.69-.5,1.15-.26a.94.94,0,0,1,0,1.27,3,3,0,0,0-1.48.72,2.46,2.46,0,0,0-.38.41c-1,.45-1.87,1.1-2.87,1.53l0,.08c-.52.19-1.1.25-1.38.83,0,.2.12.43-.11.59a1.49,1.49,0,0,1-1.94-.08,16.75,16.75,0,0,0-2.77-1.59h-.07A.65.65,0,0,1,55.59,18.91Z"/><path class="cls-4" d="M60.39,21.42c.08-.26-.13-.4-.24-.58.55-.26,1-.85,1.69-.69.11.44-.06,1,.45,1.27-.27.31-.75.29-1,.62a3.13,3.13,0,0,0,1-.62c.37.12.59.29.23.67-.55.26-1,.69-1.7.61S60.43,21.88,60.39,21.42Z"/><path class="cls-4" d="M64.86,18.25c0-.15-.06-.31.1-.42.6.07,1-.69,1.66-.39l.06,1c0,.73-.93.66-1.15,1.21l-.12.07c-.29-.1-.46-.24-.32-.6s.24-.58-.07-.83C64.93,18.37,64.88,18.35,64.86,18.25Z"/><path class="cls-2" d="M64.86,18.25a.35.35,0,0,1,.16.08c-.58.9-2.39,1.83-3.1,1.59A6,6,0,0,1,64.86,18.25Z"/><path class="cls-4" d="M61.84,20.15c-.58.17-1,.73-1.69.69A1.44,1.44,0,0,1,61.88,20,.28.28,0,0,1,61.84,20.15Z"/><path class="cls-4" d="M67.26,18.75c.2,0,.25.2.26.37-.69.27-1.18,1.18-2.11.64l.08-.08A6.38,6.38,0,0,1,67.26,18.75Z"/><path class="cls-1" d="M66.66,16a40.16,40.16,0,0,0-4.48,2.52c-.75.42-1.5.83-2.24,1.27a1.41,1.41,0,0,1-1.64-.22c-.78-.57-1.66-.95-2.47-1.48a16.91,16.91,0,0,1,2.92-1.81,6.45,6.45,0,0,1,1.46-.9,8.74,8.74,0,0,0,1.61-.92,1.6,1.6,0,0,1,2.27-.17A27.29,27.29,0,0,1,66.66,16Z"/><path class="cls-4" d="M67.26,18.75a2.6,2.6,0,0,1-1.77.93c-.09-.88.92-.68,1.19-1.2l.21,0Z"/><path class="cls-4" d="M66.62,17.44c-.59,0-1,.89-1.66.39.52-.3.91-1,1.69-.57A.57.57,0,0,1,66.62,17.44Z"/><path class="cls-4" d="M55.59,18.91c0,.28,0,.55,0,.83-.34,0-.54-.26-.81-.41A.58.58,0,0,1,55.59,18.91Z"/><path class="cls-2" d="M37,39c-.07-.32-.11-.63.29-.77a17.72,17.72,0,0,0,4,2.36c.24.35.35.7,0,1A13.39,13.39,0,0,1,37,39Z"/><path class="cls-4" d="M41.24,41.64c0-.35,0-.7,0-1h.23c.07.34.38.44.62.62-.06.38.3,1.09-.62.83Z"/><path class="cls-2" d="M88.15,71.41c-1.28-.73-2.55-1.48-3.84-2.2-.49-.27-.33-.69-.34-1.09l4.17,2.26Z"/><path class="cls-2" d="M31.83,36.39a26.6,26.6,0,0,1-4.26-2.48c.36-.57.73-.6,1.32-.2a18.72,18.72,0,0,1,2.93,1.88A.48.48,0,0,1,31.83,36.39Z"/><path class="cls-4" d="M35.4,33.49c.2.27.66.5,0,.83-.93.49-1.84,1-2.76,1.51-.51.09-.78,0-.57-.61A28.61,28.61,0,0,1,35.4,33.49Z"/><path class="cls-4" d="M32.11,35.22c0,.43.28.5.57.61.06.5.15,1-.62,1l-.23-.45c0-.27,0-.53,0-.8S31.91,35.26,32.11,35.22Z"/><path class="cls-1" d="M63.53,58.08a13.63,13.63,0,0,1,3.09-2,.8.8,0,0,1,.69,0,61.13,61.13,0,0,1,6.87,4.11c0,.07,0,.16,0,.19a10.17,10.17,0,0,1-3.54,1.92,3.39,3.39,0,0,1-1.5-.67c-1.61-.93-3.25-1.84-4.85-2.79C64,58.64,63.53,58.59,63.53,58.08Z"/><path class="cls-2" d="M63.53,58.08q3.16,1.85,6.33,3.66a7.19,7.19,0,0,0,.76.32,1.5,1.5,0,0,1,0,1.85.88.88,0,0,1-.86-.77.51.51,0,0,0-.23-.41c-.38-.22-.67-.66-1.2-.38a.82.82,0,0,1-.26.1L65,60.81c-.23-.25,0-.62-.22-.86a1.78,1.78,0,0,0-1.07-.45,1,1,0,0,1-.39,0C63.06,59,63,58.48,63.53,58.08Z"/><path class="cls-2" d="M70.63,63.91c0-.62,0-1.24,0-1.85,1.34-.35,2.36-1.29,3.56-1.9.29.22.16.56.25.84a.64.64,0,0,1,0,.82A33.91,33.91,0,0,1,70.63,63.91Z"/><path class="cls-4" d="M68.08,62.45l.09-.21c.66-.33,1,.59,1.64.41.27.18.1.33,0,.49s-.17.28-.16.45c.11,1.16,0,1.26-1.28,1.11l-1-.78a.45.45,0,0,1,.42-.42,9.68,9.68,0,0,0,1,.6c-.17-.34-.72-.34-.61-.81Z"/><path class="cls-4" d="M63.3,59.51l.21-.21c.51.1.88.64,1.48.49.57.34-.23.68,0,1-.16.24.3.64-.2.79-.58-.22-1.21-.36-1.46-1Z"/><path class="cls-4" d="M63.32,60.57c.44.41,1.11.49,1.46,1l-.25.2a1.62,1.62,0,0,1-1.79-.95Z"/><path class="cls-4" d="M62.74,60.85a2.78,2.78,0,0,0,1.79.95c-.15.4-.49.2-.76.23a2.23,2.23,0,0,0-1.07-.62C62.64,61.21,62.3,61,62.74,60.85Z"/><path class="cls-4" d="M74.41,61.82c0-.27,0-.54,0-.82a.45.45,0,0,1,.73.23C75.24,61.72,74.75,61.73,74.41,61.82Z"/><path class="cls-4" d="M68.13,63.29a1,1,0,0,0,.12.16c.35.26.86.32,1,.79,0,.05-.2.26-.26.24-.53-.18-1.13-.31-1.3-1Z"/><path class="cls-2" d="M112.48,52.44c.09-.28-.07-.61.2-.85,1.1.63,2.2,1.29,3.32,1.88a1.27,1.27,0,0,1,.67,1.47Z"/><path class="cls-4" d="M117.06,53.89c.1.34.39.48.66.65.09.51-.06.84-.64.84l-.21-.43C117,54.61,116.72,54.2,117.06,53.89Z"/><path class="cls-1" d="M88.36,25l1.45-.91a9.13,9.13,0,0,1,6.59,0,4,4,0,0,1,.66.32c2.22,1.3,2.27,3.34,0,4.54a8.09,8.09,0,0,1-7.88-.05C87.44,27.94,87.22,26.57,88.36,25Z"/><path class="cls-1" d="M109.53,35.34l-1.62.86a9.67,9.67,0,0,1-5.83,0c-1.71-.58-2.77-1.65-2.67-2.81.13-1.62,1.38-2.24,2.68-2.69a8.29,8.29,0,0,1,6.48.34C110.69,32,111,33.53,109.53,35.34Z"/><path class="cls-1" d="M134.05,38.86a11.21,11.21,0,0,1,6.84,1.82c2.27,1.57,2.39,4,.23,5.72a10.91,10.91,0,0,1-7.57,2,10.5,10.5,0,0,1-5.68-1.76c-2.46-1.7-2.47-4.35,0-6A10.49,10.49,0,0,1,134.05,38.86Z"/><path class="cls-1" d="M75.55,14.5c-2.49-.13-4.87-.5-6.87-2.1A3.27,3.27,0,0,1,68.63,7,10.61,10.61,0,0,1,76,4.85a10.07,10.07,0,0,1,6.41,2.09,3.29,3.29,0,0,1-.09,5.54C80.28,14,77.93,14.36,75.55,14.5Z"/><path class="cls-4" d="M62.3,21.42c0,.72-.74.7-1.17,1-.07,0-.27-.06-.35-.15s0-.26.11-.33c.43-.27.83-.63,1.4-.5Z"/><path class="cls-4" d="M69.81,62.65c-.73.59-1.06-.4-1.64-.41C69,61.4,69.27,62.49,69.81,62.65Z"/><path class="cls-4" d="M65,59.79c-.73.53-1.08-.06-1.48-.49C64.18,58.94,64.49,59.65,65,59.79Z"/><path class="cls-2" d="M90.43,27.88c-1.13-.88-1.17-1.65-.11-2.5,1.44-1.14,4.82-1.18,6,.38a1.31,1.31,0,0,1-.47,2.11,1.7,1.7,0,0,1-.71-.1,5.29,5.29,0,0,0-4.13.07A.76.76,0,0,1,90.43,27.88Z"/><path class="cls-4" d="M90.43,27.88a5.07,5.07,0,0,1,5.45,0A4.65,4.65,0,0,1,90.43,27.88Z"/><path class="cls-2" d="M102.29,34.54c-1.3-.58-1.35-1.51-.12-2.46s4.59-.88,5.79.31c.87.85.77,1.52-.3,2.2a.81.81,0,0,1-.61,0,6,6,0,0,0-4.16-.05A.7.7,0,0,1,102.29,34.54Z"/><path class="cls-4" d="M102.29,34.54a5.73,5.73,0,0,1,5.37.05C106.41,35.89,103.13,35.86,102.29,34.54Z"/><path class="cls-2" d="M128.54,45.17a2.37,2.37,0,0,1,0-3.18,6.5,6.5,0,0,1,4.43-2,10.39,10.39,0,0,1,5.11.57,5.67,5.67,0,0,1,2.37,1.8,2,2,0,0,1-.34,2.78,1,1,0,0,1-.57-.21,9,9,0,0,0-10.31,0A1.31,1.31,0,0,1,128.54,45.17Z"/><path class="cls-4" d="M128.54,45.17c2.89-2.81,8.82-2.81,11.54,0a2.41,2.41,0,0,1-1.46,1.25,9.92,9.92,0,0,1-8.61,0A2.92,2.92,0,0,1,128.54,45.17Z"/><path class="cls-2" d="M69.83,11a1.91,1.91,0,0,1-.15-2.94,6,6,0,0,1,3.88-2C76,5.8,78.33,5.8,80.44,7.26a2.76,2.76,0,0,1,1.45,2.86c-.08.43-.16.83-.68.92s-.65-.2-.94-.37a9.39,9.39,0,0,0-9.42-.08C70.52,10.76,70.26,11.09,69.83,11Z"/><path class="cls-4" d="M69.83,11a9.29,9.29,0,0,1,11.38,0c.09.62-.45.82-.81,1.08-2.44,1.7-7.33,1.69-9.75,0C70.28,11.84,69.75,11.65,69.83,11Z"/></g></g></svg>