<svg xmlns="http://www.w3.org/2000/svg" xmlns:xlink="http://www.w3.org/1999/xlink" viewBox="0 0 470 219.85"><defs><style>.cls-1{fill:url(#linear-gradient);}.cls-2{fill:url(#linear-gradient-2);}.cls-3,.cls-4{opacity:0.3;}.cls-3{fill:url(#linear-gradient-3);}.cls-4{fill:url(#linear-gradient-4);}.cls-5{fill:url(#linear-gradient-5);}.cls-6{fill:url(#linear-gradient-6);}.cls-7{fill:url(#linear-gradient-7);}.cls-8{fill:url(#linear-gradient-8);}</style><linearGradient id="linear-gradient" x1="296.93" y1="159.24" x2="418.35" y2="224.73" gradientUnits="userSpaceOnUse"><stop offset="0" stop-color="#3fa4dc"/><stop offset="1" stop-color="#1c489f"/></linearGradient><linearGradient id="linear-gradient-2" x1="159.07" y1="72.45" x2="37.65" y2="6.96" xlink:href="#linear-gradient"/><linearGradient id="linear-gradient-3" x1="0" y1="45.85" x2="128" y2="45.85" xlink:href="#linear-gradient"/><linearGradient id="linear-gradient-4" x1="342" y1="187.85" x2="470" y2="187.85" xlink:href="#linear-gradient"/><linearGradient id="linear-gradient-5" x1="39.45" y1="62.85" x2="376.47" y2="244.63" xlink:href="#linear-gradient"/><linearGradient id="linear-gradient-6" x1="116.28" y1="-79.58" x2="453.3" y2="102.2" xlink:href="#linear-gradient"/><linearGradient id="linear-gradient-7" x1="79.7" y1="-11.77" x2="416.72" y2="170.02" xlink:href="#linear-gradient"/><linearGradient id="linear-gradient-8" x1="93.22" y1="-36.84" x2="430.24" y2="144.95" xlink:href="#linear-gradient"/></defs><g id="Layer_2" data-name="Layer 2"><g id="Layer_1-2" data-name="Layer 1"><path class="cls-1" d="M416.2,155.85l-.2,59H287.2l129-59m5-7.8-7.11,3.25-129,59-20.87,9.55H421l0-5,.2-59,0-7.81Z"/><path class="cls-2" d="M168.8,16.85l-129,59,.2-59H168.8m22.95-5H35l0,5-.2,59,0,7.81,7.11-3.25,129-59,20.87-9.54Z"/><rect class="cls-3" y="29.85" width="128" height="32"/><rect class="cls-4" x="342" y="171.85" width="128" height="32"/><polygon class="cls-5" points="206.84 40.86 206.84 191.07 174.46 191.07 174.46 147.64 176.94 91.62 149.49 191.07 126.38 191.07 99.02 95.99 101.31 147.64 101.31 191.07 69.02 191.07 69.02 40.86 110.69 40.86 138.03 144.23 165.06 40.86 206.84 40.86"/><path class="cls-6" d="M286.6,0,266.17,32.19h26.31L321.16,0Z"/><path class="cls-7" d="M328.69,30A101.12,101.12,0,0,1,327.61,46q-1.08,6.66-4,10.22a9.32,9.32,0,0,1-2.58,2.2,54.88,54.88,0,0,0-6.19-6.69,49.21,49.21,0,0,0-15.43-9.59,50,50,0,0,0-18.31-3.31,49.35,49.35,0,0,0-22.44,5.11A51.06,51.06,0,0,0,241.1,58.65,71.33,71.33,0,0,0,229.6,82a107.57,107.57,0,0,0-4.08,30.79v6.5a113,113,0,0,0,2.63,25.13A82.3,82.3,0,0,0,235.69,165a55.43,55.43,0,0,0,11.81,15.32A49.87,49.87,0,0,0,263,189.83a50.64,50.64,0,0,0,18.37,3.3A49.24,49.24,0,0,0,303.72,188a51,51,0,0,0,17.65-14.7,70.51,70.51,0,0,0,11.5-23.26,107.61,107.61,0,0,0,4.07-30.8v-6.5a112.82,112.82,0,0,0-2.63-25.22,84.23,84.23,0,0,0-4.48-14.09,24.53,24.53,0,0,0,4.28-2.57q7.27-5.47,10.83-15.79T348.5,30Zm-24.86,89.24a116.26,116.26,0,0,1-1.55,20,62.32,62.32,0,0,1-4.28,14.8,22,22,0,0,1-7,9.08,16.16,16.16,0,0,1-9.69,3,16.56,16.56,0,0,1-8.1-1.95,19.34,19.34,0,0,1-6.35-5.89,35.83,35.83,0,0,1-4.64-9.59,69.52,69.52,0,0,1-2.78-13.1,132.7,132.7,0,0,1-.93-16.41v-6.7a129.29,129.29,0,0,1,1.39-20.12,51.53,51.53,0,0,1,4.33-14.7,23.55,23.55,0,0,1,7.12-8.92,16.3,16.3,0,0,1,9.75-3,16.71,16.71,0,0,1,8,1.91,18.52,18.52,0,0,1,6.29,5.78A36,36,0,0,1,300,83a72.24,72.24,0,0,1,2.84,13,127.54,127.54,0,0,1,1,16.51Z"/><path class="cls-8" d="M392.86,40.86V191.07H360.15V40.86Z"/></g></g></svg>