<svg xmlns="http://www.w3.org/2000/svg" viewBox="0 0 16.25 16.25"><defs><style>.cls-1{fill:#1d2449;}</style></defs><g id="Layer_2" data-name="Layer 2"><g id="Layer_1-2" data-name="Layer 1"><path class="cls-1" d="M16,14.55l-3.78-3.79a6.83,6.83,0,0,0,1-2.07s0,0,0-.07a5.85,5.85,0,0,0,.21-1,5.09,5.09,0,0,0,0-.55c0-.16,0-.31,0-.47a.76.76,0,0,0,0-.15,2.28,2.28,0,0,0,0-.26,5.27,5.27,0,0,0-.13-.9c0-.11-.06-.21-.09-.32A6.45,6.45,0,0,0,13,4.34a4.77,4.77,0,0,0-.22-.52q-.12-.25-.27-.51a6,6,0,0,0-.36-.52,4.94,4.94,0,0,0-.35-.45c-.13-.15-.27-.29-.42-.44l0,0-.2-.17a6,6,0,0,0-.46-.4A6.74,6.74,0,0,0,1.3,2.76,6.91,6.91,0,0,0,.1,5.59v0A5.35,5.35,0,0,0,0,6.18c0,.05,0,.1,0,.16s0,.29,0,.43V7S0,7,0,7a6.11,6.11,0,0,0,.09.86c0,.13,0,.25.08.38a3.74,3.74,0,0,0,.12.45,7.64,7.64,0,0,0,.29.8l.08.17a6.79,6.79,0,0,0,.73,1.22,6.85,6.85,0,0,0,2.53,2l.32.15a13.3,13.3,0,0,0,2.48.45c.31,0,.9,0,.9,0L8,13.4a6.59,6.59,0,0,0,2.75-1.21L14.54,16A1,1,0,0,0,16,14.55ZM11.37,9.26A5.3,5.3,0,0,1,10,10.93a4.93,4.93,0,0,1-.61.4v0l-.26.13A5.16,5.16,0,0,1,4,11.18l-.21-.13a4.92,4.92,0,0,1-.61-.5l-.21-.22a5.47,5.47,0,0,1-.49-.59l-.12-.19A4.32,4.32,0,0,1,2,8.88c-.05-.11-.08-.21-.12-.32A4.31,4.31,0,0,1,1.65,8a4,4,0,0,1-.08-.48A4,4,0,0,1,1.52,7a4.24,4.24,0,0,1,0-.62c0-.12,0-.24,0-.35a4.67,4.67,0,0,1,.17-.74l.06-.2a4.4,4.4,0,0,1,.34-.77.83.83,0,0,1,.07-.13,4.78,4.78,0,0,1,.52-.75l0-.07a6.34,6.34,0,0,1,.75-.71A5.24,5.24,0,0,1,9.31,2.2h0a6.19,6.19,0,0,1,.79.55l.08.07a4.92,4.92,0,0,1,.63.66l.11.13a5.82,5.82,0,0,1,.44.7l.12.22a5.55,5.55,0,0,1,.24.64c0,.12.08.24.11.37s.06.35.09.52A4.93,4.93,0,0,1,12,6.6a4.79,4.79,0,0,1,0,.76,2.56,2.56,0,0,1-.05.27c0,.17-.07.34-.11.5a5.71,5.71,0,0,1-.28.79s0,.09-.07.14l-.09.2Z"/></g></g></svg>