<svg xmlns="http://www.w3.org/2000/svg" viewBox="0 0 15 15"><defs><style>.cls-1{fill:#fff;}</style></defs><g id="Layer_2" data-name="Layer 2"><g id="Layer_1-2" data-name="Layer 1"><path class="cls-1" d="M0,.5A.5.5,0,0,1,.5,0H2a.51.51,0,0,1,.49.38L2.89,2H14.5a.5.5,0,0,1,.5.5.28.28,0,0,1,0,.09l-1.5,8A.49.49,0,0,1,13,11H4a.49.49,0,0,1-.49-.41L2,2.61,1.61,1H.5A.5.5,0,0,1,0,.5M3.1,3l1.31,7h8.18L13.9,3ZM5,11a2,2,0,1,0,2,2,2,2,0,0,0-2-2m7,0a2,2,0,1,0,2,2,2,2,0,0,0-2-2M5,12a1,1,0,1,1-1,1,1,1,0,0,1,1-1m7,0a1,1,0,1,1-1,1,1,1,0,0,1,1-1"/></g></g></svg>