<svg xmlns="http://www.w3.org/2000/svg" xmlns:xlink="http://www.w3.org/1999/xlink" viewBox="0 0 32 32"><defs><style>.cls-1{fill:url(#linear-gradient);}.cls-2{fill:#fff;}</style><linearGradient id="linear-gradient" y1="16" x2="32" y2="16" gradientUnits="userSpaceOnUse"><stop offset="0" stop-color="#3fa4dc"/><stop offset="1" stop-color="#1c489f"/></linearGradient></defs><g id="Layer_2" data-name="Layer 2"><g id="Layer_1-2" data-name="Layer 1"><rect class="cls-1" width="32" height="32" rx="5.63"/><path class="cls-2" d="M22.19,17.89a3.6,3.6,0,0,0-.52-1.65,4.62,4.62,0,0,0-1.32-1.37,5,5,0,0,0-2.16-.9,3.53,3.53,0,0,0-2.07.33l0,0V12.68h-.2v1.74l-.3.19-.45.36c-.14.14-.29.28-.43.44l-.13.1a1.11,1.11,0,0,1-.82.2,2.09,2.09,0,0,1-.85-.38,1.79,1.79,0,0,1-.59-.62,1.12,1.12,0,0,1-.11-.73,2.88,2.88,0,0,1,.36-1,10.93,10.93,0,0,1,.8-1.27l1.11-1.59A9.17,9.17,0,0,1,15.42,9a3.13,3.13,0,0,1,.8-.65A1.25,1.25,0,0,1,17,8.2a1.83,1.83,0,0,1,.73.31,2.11,2.11,0,0,1,.69.73,1.2,1.2,0,0,1,0,.86,4.39,4.39,0,0,1-.64,1.18L20,12.83a5.8,5.8,0,0,0,.88-2.29,3.56,3.56,0,0,0-.32-2.07A4.9,4.9,0,0,0,19,6.71,4.33,4.33,0,0,0,17.25,6,3.54,3.54,0,0,0,15.51,6a4.94,4.94,0,0,0-1.69.89,7.85,7.85,0,0,0-1.56,1.7l-1.1,1.57a8,8,0,0,0-1.08,2.05,4.62,4.62,0,0,0-.27,1.87,3.6,3.6,0,0,0,.52,1.65,4.5,4.5,0,0,0,1.32,1.37,4.81,4.81,0,0,0,2.16.9,3.46,3.46,0,0,0,2.07-.34h0v1.64h.2V17.58l.3-.2a3.55,3.55,0,0,0,.45-.36,4.36,4.36,0,0,0,.43-.43l.13-.1a1.11,1.11,0,0,1,.82-.2,2.19,2.19,0,0,1,.86.38,1.85,1.85,0,0,1,.58.62,1.2,1.2,0,0,1,.11.74,3.31,3.31,0,0,1-.36,1,11.83,11.83,0,0,1-.8,1.26l-1.11,1.59A11.37,11.37,0,0,1,16.58,23a3.29,3.29,0,0,1-.8.64,1.2,1.2,0,0,1-.74.15,1.83,1.83,0,0,1-.73-.31,2.11,2.11,0,0,1-.69-.73,1.15,1.15,0,0,1,0-.86,4.39,4.39,0,0,1,.64-1.18L12,19.17a5.8,5.8,0,0,0-.88,2.29,3.56,3.56,0,0,0,.32,2.07,4.81,4.81,0,0,0,1.61,1.76,4.33,4.33,0,0,0,1.7.75A3.67,3.67,0,0,0,16.49,26a5,5,0,0,0,1.69-.89,7.85,7.85,0,0,0,1.56-1.7l1.1-1.58a7.78,7.78,0,0,0,1.08-2A4.64,4.64,0,0,0,22.19,17.89Z"/><rect class="cls-2" x="15.65" y="11.04" width="0.69" height="1.26" rx="0.16"/><rect class="cls-2" x="15.65" y="19.7" width="0.69" height="1.26" rx="0.16"/></g></g></svg>