<svg xmlns="http://www.w3.org/2000/svg" xmlns:xlink="http://www.w3.org/1999/xlink" viewBox="0 0 2989.63 1032.28"><defs><style>.cls-1{fill:url(#linear-gradient);}.cls-2{fill:url(#linear-gradient-2);}.cls-3{fill:url(#linear-gradient-3);}.cls-4{fill:url(#linear-gradient-4);}.cls-5{fill:url(#linear-gradient-5);}.cls-6{fill:url(#linear-gradient-6);}.cls-7{fill:url(#linear-gradient-8);}.cls-8{fill:url(#linear-gradient-11);}.cls-9{fill:url(#linear-gradient-12);}.cls-10{fill:url(#linear-gradient-13);}.cls-11{fill:url(#linear-gradient-16);}.cls-12{fill:url(#linear-gradient-17);}.cls-13{fill:url(#linear-gradient-19);}.cls-14{fill:url(#linear-gradient-20);}.cls-15{fill:url(#linear-gradient-24);}.cls-16{fill:url(#linear-gradient-25);}.cls-17{fill:url(#linear-gradient-26);}.cls-18{fill:url(#linear-gradient-27);}.cls-19{fill:url(#linear-gradient-28);}.cls-20{fill:url(#linear-gradient-29);}</style><linearGradient id="linear-gradient" x1="-21.07" y1="539.35" x2="2923.29" y2="539.35" gradientUnits="userSpaceOnUse"><stop offset="0" stop-color="#3fa4dc"/><stop offset="1" stop-color="#1c489f"/></linearGradient><linearGradient id="linear-gradient-2" x1="-21.07" y1="543.17" x2="2923.29" y2="543.17" xlink:href="#linear-gradient"/><linearGradient id="linear-gradient-3" x1="-21.07" y1="638.7" x2="2923.29" y2="638.7" xlink:href="#linear-gradient"/><linearGradient id="linear-gradient-4" x1="-21.07" y1="131.81" x2="2923.29" y2="131.81" xlink:href="#linear-gradient"/><linearGradient id="linear-gradient-5" x1="-21.07" y1="159.96" x2="2923.29" y2="159.96" xlink:href="#linear-gradient"/><linearGradient id="linear-gradient-6" x1="-21.07" y1="123.78" x2="2923.29" y2="123.78" xlink:href="#linear-gradient"/><linearGradient id="linear-gradient-8" x1="-21.07" y1="161.55" x2="2923.29" y2="161.55" xlink:href="#linear-gradient"/><linearGradient id="linear-gradient-11" x1="-21.07" y1="141.83" x2="2923.29" y2="141.83" xlink:href="#linear-gradient"/><linearGradient id="linear-gradient-12" x1="-21.07" y1="31.01" x2="2923.29" y2="31.01" xlink:href="#linear-gradient"/><linearGradient id="linear-gradient-13" x1="-21.07" y1="161.55" x2="2923.29" y2="161.55" xlink:href="#linear-gradient"/><linearGradient id="linear-gradient-16" x1="-21.07" y1="522.58" x2="2923.29" y2="522.58" xlink:href="#linear-gradient"/><linearGradient id="linear-gradient-17" x1="-21.07" y1="552.31" x2="2923.29" y2="552.31" xlink:href="#linear-gradient"/><linearGradient id="linear-gradient-19" x1="-21.07" y1="516.22" x2="2923.29" y2="516.22" xlink:href="#linear-gradient"/><linearGradient id="linear-gradient-20" x1="-21.07" y1="550.72" x2="2923.29" y2="550.72" xlink:href="#linear-gradient"/><linearGradient id="linear-gradient-24" x1="-21.07" y1="584.59" x2="2923.29" y2="584.59" xlink:href="#linear-gradient"/><linearGradient id="linear-gradient-25" x1="-21.07" y1="587.06" x2="2923.29" y2="587.06" xlink:href="#linear-gradient"/><linearGradient id="linear-gradient-26" x1="-21.07" y1="913.27" x2="2923.29" y2="913.27" xlink:href="#linear-gradient"/><linearGradient id="linear-gradient-27" x1="-21.07" y1="906.99" x2="2923.29" y2="906.99" xlink:href="#linear-gradient"/><linearGradient id="linear-gradient-28" x1="-21.07" y1="944.67" x2="2923.29" y2="944.67" xlink:href="#linear-gradient"/><linearGradient id="linear-gradient-29" x1="-21.07" y1="908.58" x2="2923.29" y2="908.58" xlink:href="#linear-gradient"/></defs><g id="Layer_2" data-name="Layer 2"><g id="Layer_1-2" data-name="Layer 1"><rect class="cls-1" x="118.52" y="342.38" width="130.58" height="393.94"/><polygon class="cls-2" points="647.15 242.82 647.15 136.55 499.68 136.55 499.68 136.55 369.1 136.55 369.1 136.55 0 136.55 0 242.82 369.1 242.82 369.1 949.8 499.68 949.8 499.68 242.82 647.15 242.82"/><path class="cls-3" d="M1038.47,544.16q-3.71-68-28.42-115.75T939.61,355.5q-45.74-25.12-112.87-25.13-49,0-88.37,17.3a177.83,177.83,0,0,0-66.93,51.08q-27.6,33.78-42.43,82.39T614.18,592.36v93.1q0,62.63,14,111t41.2,82a176.74,176.74,0,0,0,66.73,51.08Q775.65,947,826.74,947q64.26,0,111-24.11t72.5-70.85q25.74-46.74,27-114.72H907.06q0,41.61-8.86,63.85T871.64,831.9q-17.71,8.45-44.9,8.44-24.72,0-40.37-8t-24.72-26.37q-9.06-18.32-12.57-48t-3.5-72.5V591.54q0-42.84,4.54-72.3t14-48q9.48-18.54,25.13-26.36t37.49-7.83q30.48,0,48,9.68t25.33,32.95q7.82,23.28,7.42,64.47Z"/><rect class="cls-4" x="1360.93" y="16.06" width="50.4" height="231.51"/><path class="cls-5" d="M1540.05,122q2,5.8,2,16.45V247.57h48.5V138.65q0-18.44-3.26-31.16T1578,87.05a35.8,35.8,0,0,0-14.39-11.21,47.13,47.13,0,0,0-18.37-3.49A47.63,47.63,0,0,0,1522,78.07a50.83,50.83,0,0,0-16.34,14.38l-1.47-16.92h-45.47v172h48.65V121.88a23.73,23.73,0,0,1,6-6.92,16.42,16.42,0,0,1,10.26-3.34,20.94,20.94,0,0,1,10.33,2.31Q1538.06,116.23,1540.05,122Z"/><path class="cls-6" d="M1644.43,247.57h48.66V111h26.55V75.53h-26.55V61.06a28.22,28.22,0,0,1,2.23-11.85,15.68,15.68,0,0,1,6.51-7.31,20.73,20.73,0,0,1,10.5-2.47,50.87,50.87,0,0,1,5.88.32,19.67,19.67,0,0,1,4.77,1.11l-.16-37.52A64.75,64.75,0,0,0,1701.67,0q-17.49,0-30.29,7.08a48.66,48.66,0,0,0-19.87,20.59q-7.08,13.52-7.08,33.39V75.53h-20.35V111h20.35Z"/><path class="cls-5" d="M1803.92,135.64a27.58,27.58,0,0,1,3.58-6.61,20.51,20.51,0,0,1,8.34-6.6,31,31,0,0,1,12.41-2.22q3.16,0,7.79.31a54,54,0,0,1,7.47,1l.64-47.38a29.34,29.34,0,0,0-5.81-1.28,52.56,52.56,0,0,0-6.76-.47,25.77,25.77,0,0,0-16.45,5.72q-7.25,5.73-12.4,16.06c-.14.26-.26.54-.39.81l-1.44-19.41h-45.32v172h48.34Z"/><path class="cls-7" d="M1992.58,93.33a60.71,60.71,0,0,0-22.26-15.66,76.17,76.17,0,0,0-29.18-5.32,75.27,75.27,0,0,0-28.86,5.32A60.71,60.71,0,0,0,1890,93.33q-9.3,10.35-14.23,25.76t-4.93,35.78v13.51q0,20.2,4.93,35.62t14.31,25.84a59.9,59.9,0,0,0,22.42,15.66,82.17,82.17,0,0,0,57.8,0,59.34,59.34,0,0,0,22.26-15.66q9.3-10.41,14.23-25.84t4.93-35.62V154.87q0-20.35-4.93-35.78T1992.58,93.33Zm-29.34,75.05a150.68,150.68,0,0,1-1.11,19.72,42.46,42.46,0,0,1-3.74,13.44,17.4,17.4,0,0,1-6.84,7.55,20.14,20.14,0,0,1-10.09,2.38,18,18,0,0,1-9.3-2.38,19.28,19.28,0,0,1-6.92-7.55A43,43,0,0,1,1921,188.1a116.73,116.73,0,0,1-1.43-19.72V154.87a114,114,0,0,1,1.43-19.56,44.85,44.85,0,0,1,4.29-13.43,20.08,20.08,0,0,1,6.84-7.8,16.86,16.86,0,0,1,9.06-2.46,18.41,18.41,0,0,1,9.46,2.46,18.84,18.84,0,0,1,7,7.8,46.73,46.73,0,0,1,4.21,13.43,115,115,0,0,1,1.43,19.56Z"/><path class="cls-5" d="M2212.4,247.57h48.5V138.65q0-18.44-3.34-31.16T2248.1,87a35.6,35.6,0,0,0-14.39-11.21,48,48,0,0,0-18.44-3.41q-14.16,0-24.65,6.28a50.91,50.91,0,0,0-16.83,16.57,42.64,42.64,0,0,0-5.19-8.78,34.77,34.77,0,0,0-13.44-10.66,42,42,0,0,0-17-3.41q-14.16,0-24.89,6.2a49.58,49.58,0,0,0-14.92,13.39L2097,75.53h-45.32v172H2100V123a24.51,24.51,0,0,1,6.52-8.05,15.14,15.14,0,0,1,9.54-3.34,16.34,16.34,0,0,1,8.82,2.23q3.59,2.22,5.41,8t1.83,17.09v108.6h48.17V132.77c0-2.72-.06-5.33-.19-7.85.17-.38.34-.77.51-1.14a25.5,25.5,0,0,1,6.68-8.9,14.36,14.36,0,0,1,9.38-3.26,16.15,16.15,0,0,1,8.59,2.15q3.49,2.15,5.32,8t1.83,16.93Z"/><path class="cls-7" d="M2434.69,247.57v-2.7a56.25,56.25,0,0,1-4.77-15.27q-1.59-8.9-1.59-24.64V129.11q0-20.36-8-32.83a46.72,46.72,0,0,0-21.7-18.21q-13.68-5.73-31-5.72A78.39,78.39,0,0,0,2341,76.56a59.47,59.47,0,0,0-20.19,11.85,52.22,52.22,0,0,0-17.49,39.43h48.49a35.22,35.22,0,0,1,1.35-10.58,11.68,11.68,0,0,1,4.54-6.36,13.86,13.86,0,0,1,8-2.14,14.67,14.67,0,0,1,7.95,1.91,11.52,11.52,0,0,1,4.53,6.12q1.5,4.21,1.51,11.84v13.84H2370q-18.6,0-31.88,4.13t-21.55,11.85a47.72,47.72,0,0,0-12.24,18.2,64.65,64.65,0,0,0-4,23.06q0,16.53,6.76,27.82a45.43,45.43,0,0,0,18.13,17.26,53.12,53.12,0,0,0,25,6q9.22,0,15.58-3.1a34.08,34.08,0,0,0,10.82-8.19,49.9,49.9,0,0,0,5.17-7.13,71.94,71.94,0,0,0,4.21,15.24Zm-61.77-36.25a21.52,21.52,0,0,1-11.37,2.86,13.55,13.55,0,0,1-6.68-1.59,10.82,10.82,0,0,1-4.53-5.41,25.8,25.8,0,0,1-1.67-10.18,40.15,40.15,0,0,1,1.27-10.25,25.66,25.66,0,0,1,3.9-8.51,18.93,18.93,0,0,1,6.76-5.8,21.13,21.13,0,0,1,9.86-2.15h9.22v34.45A19.24,19.24,0,0,1,2372.92,211.32Z"/><path class="cls-8" d="M2484.7,228.81q5.64,11.44,15.9,16.69t24.57,5.25a75.6,75.6,0,0,0,14.23-1.19,70,70,0,0,0,11.85-3.42l.31-36.41a38.77,38.77,0,0,1-4.53.79,53.53,53.53,0,0,1-6.28.32,17.28,17.28,0,0,1-7.87-1.51,8.44,8.44,0,0,1-4.13-5.33,37.78,37.78,0,0,1-1.2-10.81V111h22.58V75.53h-22.58V32.91h-48.49V75.53h-18.45V111h18.45v87.93Q2479.06,217.36,2484.7,228.81Z"/><path class="cls-9" d="M2612.78,6q-11.93,0-19.16,7t-7.23,18.12q0,10.81,7.23,17.81t19.16,7q11.92,0,19.08-7T2639,31.16Q2639,20,2631.86,13T2612.78,6Z"/><rect class="cls-10" x="2588.61" y="75.53" width="48.5" height="172.04"/><path class="cls-7" d="M2800.33,93.33a60.71,60.71,0,0,0-22.26-15.66,76.17,76.17,0,0,0-29.18-5.32A75.27,75.27,0,0,0,2720,77.67a60.71,60.71,0,0,0-22.26,15.66q-9.3,10.35-14.23,25.76t-4.93,35.78v13.51q0,20.2,4.93,35.62t14.31,25.84a59.9,59.9,0,0,0,22.42,15.66,82.17,82.17,0,0,0,57.8,0,59.34,59.34,0,0,0,22.26-15.66q9.3-10.41,14.23-25.84t4.93-35.62V154.87q0-20.35-4.93-35.78T2800.33,93.33ZM2771,168.38a150.68,150.68,0,0,1-1.11,19.72,42.46,42.46,0,0,1-3.74,13.44,17.45,17.45,0,0,1-6.83,7.55,20.2,20.2,0,0,1-10.1,2.38,18,18,0,0,1-9.3-2.38,19.36,19.36,0,0,1-6.92-7.55,43,43,0,0,1-4.29-13.44,116.73,116.73,0,0,1-1.43-19.72V154.87a114,114,0,0,1,1.43-19.56,44.85,44.85,0,0,1,4.29-13.43,20.08,20.08,0,0,1,6.84-7.8,16.86,16.86,0,0,1,9.06-2.46,18.41,18.41,0,0,1,9.46,2.46,18.84,18.84,0,0,1,7,7.8,46.73,46.73,0,0,1,4.21,13.43,114,114,0,0,1,1.43,19.56Z"/><path class="cls-5" d="M2986.37,107.49q-3.27-12.72-9.31-20.44a35.73,35.73,0,0,0-14.39-11.21,47,47,0,0,0-18.36-3.49,47.67,47.67,0,0,0-23.22,5.72,51,51,0,0,0-16.34,14.38l-1.46-16.92h-45.48v172h48.66V121.88a23.44,23.44,0,0,1,6-6.92,16.37,16.37,0,0,1,10.25-3.34,21,21,0,0,1,10.34,2.31q4.14,2.29,6.12,8.11t2,16.45V247.57h48.5V138.65Q2989.63,120.22,2986.37,107.49Z"/><polygon class="cls-11" points="1404.65 638.34 1455.06 638.34 1455.06 447.85 1511.98 447.85 1511.98 406.83 1455.06 406.83 1404.65 406.83 1349.32 406.83 1349.32 447.85 1404.65 447.85 1404.65 638.34"/><path class="cls-12" d="M1663.19,617.19l-19.55-29.74a44.13,44.13,0,0,1-15.9,11.13,51.39,51.39,0,0,1-19.88,3.82,39,39,0,0,1-12.8-1.91,21.42,21.42,0,0,1-9.3-6.28q-3.83-4.37-5.72-11.92a69.78,69.78,0,0,1-1.81-14.08h88V545.48q0-20.84-4.37-36.26T1649,483.55a52.22,52.22,0,0,0-20.83-15.35q-12.4-5.08-28.62-5.09-17,0-30.13,5.33a55.38,55.38,0,0,0-21.94,15.82q-8.82,10.5-13.36,26.16t-4.53,36.49v16.22q0,18.76,4.93,33.23A66.22,66.22,0,0,0,1549,620.92a61.62,61.62,0,0,0,23.45,15.35q13.92,5.25,32,5.25a86.19,86.19,0,0,0,26.24-3.66,75.68,75.68,0,0,0,19.71-9.3A56,56,0,0,0,1663.19,617.19ZM1582.1,512.56a15.68,15.68,0,0,1,6.44-7.71q4.21-2.46,10.89-2.46,6.84,0,11,2.7t6.28,9q2.07,6.28,2.07,16.78v4.77h-40.48c.15-3.34.37-6.42.65-9.22A48.82,48.82,0,0,1,1582.1,512.56Z"/><path class="cls-12" d="M1783.88,577.91q0,9.39-1.91,14.63a13.51,13.51,0,0,1-5.8,7.48,19.55,19.55,0,0,1-9.78,2.22q-6.84,0-10.73-2.46a14.31,14.31,0,0,1-5.73-7.63,51.31,51.31,0,0,1-2.38-13.36q-.55-8.19-.56-19.32V545.16q0-10.81.48-18.84a51.19,51.19,0,0,1,2.3-13.36,15,15,0,0,1,5.81-8q4-2.62,10.49-2.62t10.5,3.1c2.64,2.07,4.53,5.25,5.64,9.54a66.5,66.5,0,0,1,1.67,16.3h45.32q.15-23.06-7.64-38.08a52.11,52.11,0,0,0-21.78-22.58q-14-7.56-32.59-7.56-17.34,0-30.22,5.33a53.19,53.19,0,0,0-21.38,15.82q-8.5,10.5-12.8,25.84t-4.29,35.06v14.31q0,19.88,4.29,35.14t12.8,25.76a53.13,53.13,0,0,0,21.46,15.82q13,5.32,30.29,5.33,17.65,0,31.57-7.4a55.46,55.46,0,0,0,22.18-21.62q8.27-14.24,8.11-34.59Z"/><path class="cls-13" d="M1984.07,478.46a40,40,0,0,0-15.35-11.61,49.44,49.44,0,0,0-19.47-3.74,41.23,41.23,0,0,0-22.11,6.2,50.55,50.55,0,0,0-13,11.81v-87h-48.34V638.34h48.34v-127a20.44,20.44,0,0,1,5.08-5.63q4.45-3.35,11.45-3.34a19.61,19.61,0,0,1,10.18,2.46q4.13,2.47,6.2,8.59t2.07,16.93v108h48.49V530.69q0-18.45-3.5-31.4T1984.07,478.46Z"/><path class="cls-14" d="M2159.61,477.82a35.64,35.64,0,0,0-14.39-11.21,47.08,47.08,0,0,0-18.36-3.5,47.65,47.65,0,0,0-23.22,5.73,51,51,0,0,0-16.34,14.37l-1.47-16.92h-45.47V638.34H2089V512.65a23.61,23.61,0,0,1,6-6.92,16.37,16.37,0,0,1,10.25-3.34,21.09,21.09,0,0,1,10.34,2.3q4.13,2.31,6.12,8.11t2,16.46V638.34h48.49V529.42q0-18.45-3.26-31.17T2159.61,477.82Z"/><path class="cls-12" d="M2332.69,484.1a60.48,60.48,0,0,0-22.26-15.66,76.17,76.17,0,0,0-29.18-5.33,75.27,75.27,0,0,0-28.86,5.33,60.48,60.48,0,0,0-22.26,15.66q-9.3,10.33-14.23,25.76T2211,545.64v13.51q0,20.21,4.93,35.62t14.31,25.84a59.9,59.9,0,0,0,22.42,15.66,82.17,82.17,0,0,0,57.8,0,59.34,59.34,0,0,0,22.26-15.66q9.3-10.41,14.23-25.84t4.93-35.62V545.64q0-20.35-4.93-35.78T2332.69,484.1Zm-29.34,75a150.78,150.78,0,0,1-1.11,19.72,42.32,42.32,0,0,1-3.74,13.43,17.42,17.42,0,0,1-6.83,7.56,20.2,20.2,0,0,1-10.1,2.38,18,18,0,0,1-9.3-2.38,19.32,19.32,0,0,1-6.92-7.56,42.85,42.85,0,0,1-4.29-13.43,116.81,116.81,0,0,1-1.43-19.72V545.64a113.91,113.91,0,0,1,1.43-19.56,44.92,44.92,0,0,1,4.29-13.44,20,20,0,0,1,6.84-7.79,16.86,16.86,0,0,1,9.06-2.46,18.41,18.41,0,0,1,9.46,2.46,18.81,18.81,0,0,1,7,7.79,46.8,46.8,0,0,1,4.21,13.44,113.91,113.91,0,0,1,1.43,19.56Z"/><rect class="cls-13" x="2393.51" y="394.11" width="48.5" height="244.23"/><path class="cls-12" d="M2605.23,484.1A60.56,60.56,0,0,0,2583,468.44a76.17,76.17,0,0,0-29.18-5.33,75.27,75.27,0,0,0-28.86,5.33,60.48,60.48,0,0,0-22.26,15.66q-9.3,10.33-14.23,25.76t-4.93,35.78v13.51q0,20.21,4.93,35.62t14.31,25.84a59.9,59.9,0,0,0,22.42,15.66,82.17,82.17,0,0,0,57.8,0,59.42,59.42,0,0,0,22.26-15.66q9.3-10.41,14.23-25.84t4.93-35.62V545.64q0-20.35-4.93-35.78T2605.23,484.1Zm-29.34,75a150.78,150.78,0,0,1-1.11,19.72A42.58,42.58,0,0,1,2571,592.3a17.38,17.38,0,0,1-6.84,7.56,20.16,20.16,0,0,1-10.09,2.38,18,18,0,0,1-9.31-2.38,19.3,19.3,0,0,1-6.91-7.56,42.85,42.85,0,0,1-4.29-13.43,116.71,116.71,0,0,1-1.44-19.72V545.64a113.81,113.81,0,0,1,1.44-19.56,44.92,44.92,0,0,1,4.29-13.44,20,20,0,0,1,6.84-7.79,16.84,16.84,0,0,1,9.06-2.46,18.41,18.41,0,0,1,9.46,2.46,18.81,18.81,0,0,1,7,7.79,47.12,47.12,0,0,1,4.21,13.44,114.93,114.93,0,0,1,1.43,19.56Z"/><path class="cls-15" d="M2752.15,480.45a41.28,41.28,0,0,0-10.81-11.06q-9.15-6.27-23.77-6.28a58.66,58.66,0,0,0-24.65,5,48,48,0,0,0-18.68,15.35q-7.72,10.33-11.69,25.83t-4,36.65v13.52q0,20.35,4,35.62t11.69,25.6a50.28,50.28,0,0,0,18.6,15.58,55.5,55.5,0,0,0,24.41,5.25q12.87,0,21.78-6.28a46,46,0,0,0,10-9.76v12.06q0,11.61-3,18.37a18.53,18.53,0,0,1-9.15,9.62,35.46,35.46,0,0,1-15,2.86,46.13,46.13,0,0,1-19.4-4.22,59.54,59.54,0,0,1-14.79-9.14l-16.53,32.28a52.8,52.8,0,0,0,14.86,9.78,102.22,102.22,0,0,0,19.16,6.6,80.66,80.66,0,0,0,18.61,2.38q22.26,0,38.79-7.23a56.31,56.31,0,0,0,25.92-22.42q9.38-15.2,9.38-38.88V466.29h-44Zm-6.76,117.1q-5.4,4.53-14.63,4.53a23,23,0,0,1-10.57-2.3,17.75,17.75,0,0,1-7.4-7.4,42.27,42.27,0,0,1-4.29-13.19,116.12,116.12,0,0,1-1.43-19.72V546a115.7,115.7,0,0,1,1.51-20.27,40.77,40.77,0,0,1,4.53-13.43,19.23,19.23,0,0,1,7.56-7.48,22,22,0,0,1,10.41-2.38,22.43,22.43,0,0,1,11,2.54,19.85,19.85,0,0,1,7,6.6v82.08A22.16,22.16,0,0,1,2745.39,597.55Z"/><path class="cls-16" d="M2899.75,558.45l-18.89-92.16h-52l49.53,174.85L2875,651.69a34.19,34.19,0,0,1-4,9.06,15.16,15.16,0,0,1-6.6,5.57q-4.22,1.9-11.53,1.91c-1,0-1.78,0-2.46-.08s-1.62-.08-2.79-.08l.16,36.73c4,1.16,7.13,2,9.3,2.38a55.92,55.92,0,0,0,9.94.64q12.07,0,20.59-4.29a41.75,41.75,0,0,0,14-11.13,65.13,65.13,0,0,0,8.83-14.39,116.33,116.33,0,0,0,5.25-14.07l56.76-197.65h-51.2Z"/><path class="cls-17" d="M1407.2,867.16q1.74-11.37,5.4-18.53a22.07,22.07,0,0,1,9.7-10.17,32.1,32.1,0,0,1,14.47-3q11.76,0,18.52,3.73t9.78,12.72q3,9,2.87,24.89h50.56q-1.44-26.24-11-44.68A65.83,65.83,0,0,0,1480.34,804q-17.65-9.69-43.57-9.7-18.93,0-34.11,6.68a68.64,68.64,0,0,0-25.83,19.72q-10.66,13-16.38,31.8t-5.73,42.93v35.94q0,24.16,5.41,42.85t15.9,31.64a68.28,68.28,0,0,0,25.76,19.72q15.27,6.75,35,6.75,24.81,0,42.85-9.3a65.75,65.75,0,0,0,28-27.35q9.93-18,10.41-44.28h-50.24q0,16.06-3.42,24.65t-10.26,11.84q-6.84,3.27-17.33,3.26-9.54,0-15.58-3.1a21.79,21.79,0,0,1-9.54-10.18q-3.51-7.07-4.85-18.52a244.45,244.45,0,0,1-1.35-28V895.06A187.08,187.08,0,0,1,1407.2,867.16Z"/><rect class="cls-18" x="1558.41" y="784.87" width="48.5" height="244.23"/><path class="cls-19" d="M1736,980.88a25.27,25.27,0,0,1-4.85,6.64q-5.49,5.34-14.87,5.33a15,15,0,0,1-6.51-1.35,11.59,11.59,0,0,1-4.78-4.29,24.36,24.36,0,0,1-3-7.56,46.56,46.56,0,0,1-1.11-10.81V857.06h-48.34V968.52q0,16.86,3.5,29t9.94,19.88a38.64,38.64,0,0,0,15.26,11.29,51.53,51.53,0,0,0,19.48,3.57,43.36,43.36,0,0,0,22.9-6,48.1,48.1,0,0,0,14.33-13.55l1.25,16.33h45.32v-172H1736Z"/><path class="cls-20" d="M1951,874.63a44.25,44.25,0,0,0-17.5-15.5q-10.65-5.25-25.28-5.25-12.72,0-21.62,6.28a44.59,44.59,0,0,0-10,9.87V784.87H1828.4V1029.1h43.89l1.78-17.09a47.39,47.39,0,0,0,12.77,14q8.82,6.29,21.54,6.28,14.47,0,25.12-5A42.39,42.39,0,0,0,1951,1012q6.82-10.26,10.09-25.76t3.26-36.65V936.09a174.68,174.68,0,0,0-3.26-35.78Q1957.84,884.89,1951,874.63Zm-34.83,75q0,12.25-.71,20.67a43.62,43.62,0,0,1-2.86,13.36,14.31,14.31,0,0,1-6.21,7.15q-4,2.24-11.05,2.23-9.21,0-14.31-4.53a20.71,20.71,0,0,1-4.45-5.81V904.4c.21-.39.42-.77.64-1.15a21.15,21.15,0,0,1,7.15-7.47,20.13,20.13,0,0,1,10.66-2.63q6.83,0,11,2.55a15.72,15.72,0,0,1,6.36,7.79,48.09,48.09,0,0,1,2.94,13.28q.8,8,.79,19.32Z"/></g></g></svg>