<svg xmlns="http://www.w3.org/2000/svg" viewBox="0 0 3329.29 1149.57"><defs><style>.cls-1{fill:#fff;}</style></defs><g id="Layer_2" data-name="Layer 2"><g id="Layer_1-2" data-name="Layer 1"><path class="cls-1" d="M277.4,415.8V854.5H132V415.8Z" transform="translate(0 -34.53)"/><rect class="cls-1" y="152.05" width="720.68" height="118.35"/><rect class="cls-1" x="411.03" y="152.05" width="145.42" height="905.66"/><path class="cls-1" d="M1010.12,855.65h145q-1.38,75.71-30,127.76t-80.74,78.9q-52.06,26.85-123.62,26.84-56.89,0-100.93-19.5a196.64,196.64,0,0,1-74.31-56.88q-30.28-37.38-45.88-91.28T684,797.85V694.18q0-69.73,16.51-123.86t47.25-91.75a198.1,198.1,0,0,1,74.54-56.88q43.82-19.26,98.41-19.27,74.76,0,125.69,28t78.44,81.19q27.53,53.22,31.66,128.91H1010.58q.45-45.87-8.26-71.8T974.11,532q-19.5-10.77-53.44-10.77-24.33,0-41.75,8.71t-28,29.36q-10.56,20.64-15.6,53.44t-5.05,80.51V797.85q0,47.73,3.9,80.74t14,53.44q10.1,20.43,27.53,29.36t45,9q30.27,0,50-9.4t29.58-34.18Q1010.12,902,1010.12,855.65Z" transform="translate(0 -34.53)"/><path class="cls-1" d="M1571.68,52.41V310.22h-56.13V52.41Z" transform="translate(0 -34.53)"/><path class="cls-1" d="M1678.63,159.54V310.22h-54.18V118.64h50.64Zm-7.26,48.34-13.1.53q-.36-21.78,4-39t12.66-29.4a57.91,57.91,0,0,1,20-18.5,55.58,55.58,0,0,1,46.31-2.48,39.85,39.85,0,0,1,16,12.48q6.74,8.59,10.36,22.76t3.63,34.7V310.22h-54V188.76q0-11.87-2.21-18.33t-6.82-9a23.39,23.39,0,0,0-11.51-2.57,18.28,18.28,0,0,0-11.42,3.72,27.8,27.8,0,0,0-8,10.36,56.24,56.24,0,0,0-4.61,15.58A112.25,112.25,0,0,0,1671.37,207.88Z" transform="translate(0 -34.53)"/><path class="cls-1" d="M1915,118.64v39.48H1808.6V118.64Zm-29.57,191.58h-54.18V102.52q0-22.12,7.88-37.18a54.27,54.27,0,0,1,22.13-22.93q14.25-7.87,33.73-7.88a76,76,0,0,1,12.49,1,74.2,74.2,0,0,1,11.06,2.75l.18,41.79a21.81,21.81,0,0,0-5.31-1.24,55.38,55.38,0,0,0-6.55-.36,23.14,23.14,0,0,0-11.69,2.75,17.47,17.47,0,0,0-7.26,8.14,31.56,31.56,0,0,0-2.48,13.19Z" transform="translate(0 -34.53)"/><path class="cls-1" d="M2008.87,163.79V310.22H1955V118.64h50.47Zm44.8-46.75-.71,52.77a57.61,57.61,0,0,0-8.32-1.06q-5.15-.36-8.68-.36a34.44,34.44,0,0,0-13.81,2.48,22.7,22.7,0,0,0-9.29,7.35,34.22,34.22,0,0,0-5.49,12,67.07,67.07,0,0,0-1.86,16.73L1996,201.5a191.82,191.82,0,0,1,2.92-34.88,103,103,0,0,1,8.67-27.27q5.76-11.5,13.81-17.88a28.75,28.75,0,0,1,18.33-6.38,56.27,56.27,0,0,1,7.53.54A32.28,32.28,0,0,1,2053.67,117Z" transform="translate(0 -34.53)"/><path class="cls-1" d="M2083.42,222V207q0-22.67,5.49-39.84t15.85-28.68A67.24,67.24,0,0,1,2129.55,121a83.67,83.67,0,0,1,32.13-5.94q18.08,0,32.5,5.94A67.41,67.41,0,0,1,2219,138.47q10.35,11.5,15.84,28.68T2240.3,207v15q0,22.5-5.49,39.67T2219,290.48a66,66,0,0,1-24.79,17.44,91.46,91.46,0,0,1-64.37,0,66.56,66.56,0,0,1-25-17.44q-10.45-11.6-15.94-28.77T2083.42,222Zm54.18-15v15a129.91,129.91,0,0,0,1.6,22,47.68,47.68,0,0,0,4.78,15,21.41,21.41,0,0,0,7.7,8.41A20,20,0,0,0,2162,270a22.49,22.49,0,0,0,11.24-2.66,19.34,19.34,0,0,0,7.62-8.41,47.51,47.51,0,0,0,4.16-15,168.57,168.57,0,0,0,1.24-22V207a126.68,126.68,0,0,0-1.6-21.78,51.83,51.83,0,0,0-4.69-15,20.89,20.89,0,0,0-7.79-8.67,20.49,20.49,0,0,0-10.54-2.75,18.76,18.76,0,0,0-10.09,2.75,22.22,22.22,0,0,0-7.61,8.67,50,50,0,0,0-4.78,15A126.68,126.68,0,0,0,2137.6,207Z" transform="translate(0 -34.53)"/><path class="cls-1" d="M2338.58,158.83V310.22h-53.83V118.64h50.46Zm-6.91,49-13.45.53a153.76,153.76,0,0,1,3.54-37.27,96.49,96.49,0,0,1,11.77-29.57A56.65,56.65,0,0,1,2353.36,122q12-6.9,27.72-6.91A46.75,46.75,0,0,1,2400,118.9a38.51,38.51,0,0,1,15,11.87q6.29,8.05,9.65,20.89t3.37,30.72V310.22h-53.65V189.29q0-12.57-2-19t-6-8.94a18.3,18.3,0,0,0-9.83-2.48,16.89,16.89,0,0,0-10.62,3.72,28.37,28.37,0,0,0-8,10.36,60.53,60.53,0,0,0-4.78,15.58A100.92,100.92,0,0,0,2331.67,207.88Zm90.84-2.48-16.82,1.42a158,158,0,0,1,3.27-36.3,91.65,91.65,0,0,1,11.25-29.13,56.92,56.92,0,0,1,19.3-19.3q11.68-7,27.44-7a53.42,53.42,0,0,1,20.54,3.81,39.57,39.57,0,0,1,16,12.48q6.81,8.69,10.53,22.85t3.72,34.7V310.22h-54V188.93q0-12.39-2-18.86c-1.36-4.3-3.34-7.26-5.93-8.85a18,18,0,0,0-9.56-2.39,16,16,0,0,0-10.45,3.63,28.52,28.52,0,0,0-7.44,9.92,55,55,0,0,0-4.42,14.69A110,110,0,0,0,2422.51,205.4Z" transform="translate(0 -34.53)"/><path class="cls-1" d="M2656.24,193.18l.18,31h-16.64a23.6,23.6,0,0,0-11,2.39,21.07,21.07,0,0,0-7.53,6.46,28.63,28.63,0,0,0-4.34,9.48,45.06,45.06,0,0,0-1.41,11.42q0,7.08,1.86,11.33a12.13,12.13,0,0,0,5,6,15.1,15.1,0,0,0,7.44,1.77,23.8,23.8,0,0,0,12.66-3.19,21.12,21.12,0,0,0,7.7-7.61c1.65-2.95,2.13-5.55,1.42-7.79l8.85,21.25q-2.47,6.54-5.66,13.19a54.64,54.64,0,0,1-8.15,12.3,37.71,37.71,0,0,1-12,9.12q-7.08,3.46-17.35,3.46a59.18,59.18,0,0,1-27.89-6.64,50.54,50.54,0,0,1-20.19-19.22q-7.53-12.57-7.52-31a71.75,71.75,0,0,1,4.43-25.68A53,53,0,0,1,2579.75,211q9.21-8.59,24-13.19t35.5-4.61ZM2650.05,264V177.78q0-8.5-1.69-13.19a12.78,12.78,0,0,0-5-6.82,16.39,16.39,0,0,0-8.86-2.13,15.5,15.5,0,0,0-8.85,2.39,13.06,13.06,0,0,0-5.05,7.09,39.23,39.23,0,0,0-1.5,11.77h-54a58.29,58.29,0,0,1,5-24.17A58.89,58.89,0,0,1,2584.53,133,66.37,66.37,0,0,1,2607,119.79a87.24,87.24,0,0,1,29.57-4.7q19.29,0,34.53,6.38a52.06,52.06,0,0,1,24.17,20.27q8.94,13.9,8.94,36.57v84.46q0,17.53,1.77,27.45a62.58,62.58,0,0,0,5.31,17v3h-54.18a86.15,86.15,0,0,1-5.31-20.89A178.84,178.84,0,0,1,2650.05,264Z" transform="translate(0 -34.53)"/><path class="cls-1" d="M2839.87,118.64v39.48h-99.69V118.64Zm-79.15-47.46h54V249.67a42.52,42.52,0,0,0,1.33,12,9.44,9.44,0,0,0,4.6,5.93,19.36,19.36,0,0,0,8.77,1.68,58.36,58.36,0,0,0,7-.35,41.52,41.52,0,0,0,5.05-.89l-.35,40.55a77.51,77.51,0,0,1-13.2,3.81,84,84,0,0,1-15.84,1.33q-15.95,0-27.36-5.85T2767,289.33q-6.28-12.75-6.28-33.29Z" transform="translate(0 -34.53)"/><path class="cls-1" d="M2880.24,69.23q0-12.39,8.06-20.18t21.33-7.79q13.29,0,21.25,7.79t8,20.18q0,12-8,19.84t-21.25,7.79q-13.27,0-21.33-7.79T2880.24,69.23Zm56.49,49.41V310.22h-54V118.64Z" transform="translate(0 -34.53)"/><path class="cls-1" d="M2982.94,222V207q0-22.67,5.49-39.84t15.85-28.68A67.41,67.41,0,0,1,3029.07,121a83.68,83.68,0,0,1,32.14-5.94q18.06,0,32.49,5.94a67.41,67.41,0,0,1,24.79,17.44q10.37,11.5,15.85,28.68t5.49,39.84v15q0,22.5-5.49,39.67t-15.85,28.77a66,66,0,0,1-24.79,17.44,91.43,91.43,0,0,1-64.36,0,66.59,66.59,0,0,1-25-17.44q-10.45-11.6-15.94-28.77T2982.94,222Zm54.19-15v15a131.07,131.07,0,0,0,1.59,22,47.94,47.94,0,0,0,4.78,15,21.48,21.48,0,0,0,7.7,8.41,20.07,20.07,0,0,0,10.36,2.66,22.5,22.5,0,0,0,11.25-2.66,19.38,19.38,0,0,0,7.61-8.41,47.25,47.25,0,0,0,4.16-15,166.82,166.82,0,0,0,1.24-22V207a127.8,127.8,0,0,0-1.59-21.78,52.13,52.13,0,0,0-4.7-15,20.82,20.82,0,0,0-7.79-8.67,20.48,20.48,0,0,0-10.53-2.75,18.72,18.72,0,0,0-10.09,2.75,22.24,22.24,0,0,0-7.62,8.67,50.24,50.24,0,0,0-4.78,15A127.8,127.8,0,0,0,3037.13,207Z" transform="translate(0 -34.53)"/><path class="cls-1" d="M3236.69,159.54V310.22H3182.5V118.64h50.64Zm-7.26,48.34-13.11.53q-.36-21.78,4-39T3233,140a57.73,57.73,0,0,1,20-18.5,55.56,55.56,0,0,1,46.3-2.48,39.71,39.71,0,0,1,16,12.48q6.73,8.59,10.36,22.76t3.63,34.7V310.22h-54V188.76q0-11.87-2.22-18.33c-1.47-4.31-3.75-7.32-6.81-9a23.44,23.44,0,0,0-11.51-2.57,18.26,18.26,0,0,0-11.42,3.72,27.82,27.82,0,0,0-8.06,10.36,55.91,55.91,0,0,0-4.6,15.58A111.27,111.27,0,0,0,3229.43,207.88Z" transform="translate(0 -34.53)"/><path class="cls-1" d="M1683.76,487.58v45.68H1502.62V487.58Zm-63.39,0V745.39h-56.13V487.58Z" transform="translate(0 -34.53)"/><path class="cls-1" d="M1786.82,748.93q-20.19,0-35.68-5.84A68.73,68.73,0,0,1,1725,726a73.93,73.93,0,0,1-16.11-27.36q-5.49-16.11-5.49-37V643.57q0-23.19,5-40.63t14.87-29.13a61.78,61.78,0,0,1,24.44-17.62q14.61-5.93,33.55-5.93,18.06,0,31.87,5.66A58.17,58.17,0,0,1,1836.4,573q9.39,11.43,14.25,28.6t4.87,40.37V667.3H1724.85V631h77.91v-5.31q0-11.69-2.3-18.68t-7-10q-4.7-3-12.3-3-7.44,0-12.13,2.74a17.45,17.45,0,0,0-7.18,8.59,54.38,54.38,0,0,0-3.45,15.4q-1,9.57-1,22.84v18.06q0,12.93,2.12,21.34t6.38,13.28a23.93,23.93,0,0,0,10.36,7,43.53,43.53,0,0,0,14.25,2.12,57.32,57.32,0,0,0,22.13-4.25,49.06,49.06,0,0,0,17.71-12.39l21.78,33.11A62.3,62.3,0,0,1,1838,734.5a84.14,84.14,0,0,1-22,10.36A96.17,96.17,0,0,1,1786.82,748.93Z" transform="translate(0 -34.53)"/><path class="cls-1" d="M1967.08,705.19a21.61,21.61,0,0,0,10.89-2.48q4.33-2.48,6.46-8.32t2.13-16.29H2037q.18,22.67-9,38.52a61.73,61.73,0,0,1-24.7,24.08q-15.49,8.24-35.15,8.23-19.31,0-33.73-5.93a59.17,59.17,0,0,1-23.9-17.62q-9.48-11.68-14.26-28.69t-4.78-39.13V641.63q0-22,4.78-39t14.26-28.77a59.29,59.29,0,0,1,23.81-17.62q14.34-5.93,33.65-5.93,20.71,0,36.29,8.41a58.12,58.12,0,0,1,24.26,25.14q8.68,16.74,8.5,42.41h-50.46a73.91,73.91,0,0,0-1.86-18.15q-1.86-7.17-6.29-10.62T1966.73,594q-7.27,0-11.69,2.92a16.58,16.58,0,0,0-6.46,8.85,56.62,56.62,0,0,0-2.57,14.87q-.54,9-.53,21v15.93q0,12.41.62,21.52a57.26,57.26,0,0,0,2.65,14.87,15.87,15.87,0,0,0,6.38,8.5Q1959.47,705.2,1967.08,705.19Z" transform="translate(0 -34.53)"/><path class="cls-1" d="M2131.58,473.41v272h-53.83v-272ZM2124.5,643l-13.11.53a148.68,148.68,0,0,1,3.72-37.27,100,100,0,0,1,11.95-29.57,59.3,59.3,0,0,1,19-19.56,45.8,45.8,0,0,1,24.61-6.91,55.14,55.14,0,0,1,21.69,4.16,44.63,44.63,0,0,1,17.09,12.93q7.26,8.76,11.16,23.19t3.89,35V745.39h-54V625.16q0-12-2.31-18.86t-6.9-9.56A21.78,21.78,0,0,0,2150,594q-7.8,0-12.75,3.71a24.65,24.65,0,0,0-7.79,10.36,56.82,56.82,0,0,0-3.9,15.58A164.67,164.67,0,0,0,2124.5,643Z" transform="translate(0 -34.53)"/><path class="cls-1" d="M2326.36,594.7V745.39h-54.18V553.8h50.64ZM2319.1,643l-13.1.53q-.36-21.78,4-39t12.66-29.39a57.84,57.84,0,0,1,20-18.51,53.09,53.09,0,0,1,25.85-6.37,52.52,52.52,0,0,1,20.45,3.89,39.75,39.75,0,0,1,16,12.49q6.72,8.6,10.36,22.75T2419,624.1V745.39h-54V623.92q0-11.86-2.21-18.33t-6.82-9a23.42,23.42,0,0,0-11.51-2.56,18.25,18.25,0,0,0-11.42,3.71,28,28,0,0,0-8.06,10.36,56.35,56.35,0,0,0-4.6,15.58A111.33,111.33,0,0,0,2319.1,643Z" transform="translate(0 -34.53)"/><path class="cls-1" d="M2462.17,657.21V642.16q0-22.67,5.49-39.84t15.85-28.69a67.53,67.53,0,0,1,24.79-17.44,83.87,83.87,0,0,1,32.14-5.93q18.06,0,32.49,5.93a67.53,67.53,0,0,1,24.79,17.44q10.35,11.52,15.85,28.69t5.49,39.84v15.05q0,22.49-5.49,39.66t-15.85,28.78a66.15,66.15,0,0,1-24.79,17.44,91.58,91.58,0,0,1-64.36,0,66.63,66.63,0,0,1-25-17.44q-10.45-11.6-15.94-28.78T2462.17,657.21Zm54.19-15.05v15.05a131.07,131.07,0,0,0,1.59,22,48.12,48.12,0,0,0,4.78,15,21.55,21.55,0,0,0,7.7,8.41,20.07,20.07,0,0,0,10.36,2.65,22.5,22.5,0,0,0,11.25-2.65,19.44,19.44,0,0,0,7.61-8.41,47.4,47.4,0,0,0,4.16-15,166.82,166.82,0,0,0,1.24-22V642.16a127.8,127.8,0,0,0-1.59-21.78,52,52,0,0,0-4.7-15,20.79,20.79,0,0,0-7.79-8.68,20.47,20.47,0,0,0-10.53-2.74,18.77,18.77,0,0,0-10.1,2.74,22.26,22.26,0,0,0-7.61,8.68,50.14,50.14,0,0,0-4.78,15A127.8,127.8,0,0,0,2516.36,642.16Z" transform="translate(0 -34.53)"/><path class="cls-1" d="M2719.46,473.41v272h-54v-272Z" transform="translate(0 -34.53)"/><path class="cls-1" d="M2765.67,657.21V642.16q0-22.67,5.49-39.84T2787,573.63a67.53,67.53,0,0,1,24.79-17.44,83.87,83.87,0,0,1,32.14-5.93q18.06,0,32.49,5.93a67.44,67.44,0,0,1,24.79,17.44q10.37,11.52,15.85,28.69t5.49,39.84v15.05q0,22.49-5.49,39.66t-15.85,28.78a66.07,66.07,0,0,1-24.79,17.44,91.58,91.58,0,0,1-64.36,0,66.71,66.71,0,0,1-25-17.44q-10.45-11.6-15.94-28.78T2765.67,657.21Zm54.19-15.05v15.05a131.07,131.07,0,0,0,1.59,22,48.12,48.12,0,0,0,4.78,15,21.55,21.55,0,0,0,7.7,8.41,20.07,20.07,0,0,0,10.36,2.65,22.5,22.5,0,0,0,11.25-2.65,19.44,19.44,0,0,0,7.61-8.41,47.4,47.4,0,0,0,4.16-15,166.82,166.82,0,0,0,1.24-22V642.16a127.8,127.8,0,0,0-1.59-21.78,52,52,0,0,0-4.69-15,20.87,20.87,0,0,0-7.8-8.68,20.44,20.44,0,0,0-10.53-2.74,18.73,18.73,0,0,0-10.09,2.74,22.2,22.2,0,0,0-7.62,8.68,50.14,50.14,0,0,0-4.78,15A127.8,127.8,0,0,0,2819.86,642.16Z" transform="translate(0 -34.53)"/><path class="cls-1" d="M2960.63,657.56v-15q0-23.55,4.43-40.81t13-28.78a53.41,53.41,0,0,1,20.81-17.08,65.29,65.29,0,0,1,27.44-5.58q16.29,0,26.47,7A48.63,48.63,0,0,1,3069,576.82a127.19,127.19,0,0,1,9.47,29.57q3.45,17,5.58,36.83v15.4a293.71,293.71,0,0,1-6.38,35.15,121.33,121.33,0,0,1-10.8,28.78,55.8,55.8,0,0,1-16.64,19.39q-9.93,7-24.26,7a61.86,61.86,0,0,1-27.18-5.84,56,56,0,0,1-20.72-17.36q-8.59-11.51-13-28.5T2960.63,657.56ZM3066.69,553.8h49V744.5q0,26.38-10.44,43.3a62.66,62.66,0,0,1-28.87,25q-18.42,8.06-43.2,8.06a89.88,89.88,0,0,1-20.72-2.66,114.36,114.36,0,0,1-21.34-7.34,59,59,0,0,1-16.55-10.89L2993,764a66.38,66.38,0,0,0,16.47,10.18,51.38,51.38,0,0,0,21.6,4.69q9.92,0,16.74-3.18A20.64,20.64,0,0,0,3058,765q3.36-7.53,3.36-20.46V598.78Zm-52.05,88.71v15a129.07,129.07,0,0,0,1.59,22,46.8,46.8,0,0,0,4.78,14.7,19.76,19.76,0,0,0,8.23,8.23A25.69,25.69,0,0,0,3041,705q10.26,0,16.29-5t8.68-14.08a72.22,72.22,0,0,0,2.48-21.24V637A83.64,83.64,0,0,0,3067,618.7a44,44,0,0,0-5-13.55,22.29,22.29,0,0,0-8.41-8.32,24.91,24.91,0,0,0-12.22-2.83,24.52,24.52,0,0,0-11.59,2.65,21.43,21.43,0,0,0-8.41,8.32q-3.37,5.67-5,15A129.21,129.21,0,0,0,3014.64,642.51Z" transform="translate(0 -34.53)"/><path class="cls-1" d="M3208.18,553.8,3236,689.43l6.2,59.68-36.12,1.59-55.78-196.9Zm5.48,169.28,39.49-169.28h57L3247,773.9a126.88,126.88,0,0,1-5.84,15.67,72.43,72.43,0,0,1-9.83,16A46.51,46.51,0,0,1,3215.7,818q-9.48,4.77-22.93,4.78a63.2,63.2,0,0,1-11.07-.71q-3.63-.7-10.36-2.66l-.17-40.9c1.3,0,2.33,0,3.1.09s1.68.09,2.74.09q8.14,0,12.84-2.13a16.86,16.86,0,0,0,7.35-6.19,38.35,38.35,0,0,0,4.42-10.1Z" transform="translate(0 -34.53)"/><path class="cls-1" d="M1634.54,1094h56q-.52,29.21-11.59,49.31a73.2,73.2,0,0,1-31.17,30.46q-20.1,10.35-47.72,10.35-22,0-39-7.52a76,76,0,0,1-28.69-22q-11.68-14.43-17.71-35.23t-6-47.72v-40q0-26.91,6.38-47.81t18.24-35.41a76.41,76.41,0,0,1,28.77-22q16.9-7.44,38-7.44,28.86,0,48.52,10.8a73.38,73.38,0,0,1,30.28,31.34q10.62,20.55,12.21,49.76h-56.3q.16-17.7-3.19-27.71T1620.64,969q-7.53-4.15-20.63-4.16a35.68,35.68,0,0,0-16.11,3.37q-6.74,3.36-10.8,11.33t-6,20.63a208.72,208.72,0,0,0-1.95,31.07v40.38a272.92,272.92,0,0,0,1.5,31.16q1.51,12.75,5.4,20.63a24.28,24.28,0,0,0,10.63,11.33q6.72,3.45,17.35,3.45,11.68,0,19.3-3.63t11.42-13.19Q1634.54,1111.86,1634.54,1094Z" transform="translate(0 -34.53)"/><path class="cls-1" d="M1789.48,908.58v272h-54v-272Z" transform="translate(0 -34.53)"/><path class="cls-1" d="M1938.93,1095l14-.36a156.87,156.87,0,0,1-3.8,35.6,95.53,95.53,0,0,1-11.25,28.41,54.82,54.82,0,0,1-18.41,18.77q-11,6.65-25.5,6.64a57.13,57.13,0,0,1-21.69-4,43,43,0,0,1-17-12.57q-7.17-8.6-11.07-22.14t-3.89-32.31V989h53.83v124.48a51.48,51.48,0,0,0,1.24,12,27.22,27.22,0,0,0,3.36,8.42,13,13,0,0,0,5.31,4.78,16.89,16.89,0,0,0,7.26,1.5q10.46,0,16.56-5.93t8.59-16.11A98.16,98.16,0,0,0,1938.93,1095Zm-5.67,39.13V989h54v191.59H1936.8Z" transform="translate(0 -34.53)"/><path class="cls-1" d="M2036.14,908.58h53.65v226.11l-4.78,45.86h-48.87ZM2187.53,1077v15q0,23.55-3.63,40.81t-11.24,28.69a47.39,47.39,0,0,1-19.48,17q-11.86,5.58-28,5.57-14.17,0-24-7t-16.46-19.48a125.24,125.24,0,0,1-10.72-29.21,284.58,284.58,0,0,1-6.19-35.86V1077a296.24,296.24,0,0,1,6.1-35.86,125.54,125.54,0,0,1,10.54-29.22q6.55-12.48,16.47-19.47t24.08-7q16.29,0,28.15,5.85a49.31,49.31,0,0,1,19.48,17.26q7.61,11.41,11.24,28.6T2187.53,1077Zm-53.65,15v-15q0-12.57-.88-21.52a53.83,53.83,0,0,0-3.28-14.78,17.46,17.46,0,0,0-7.08-8.68q-4.69-2.82-12.31-2.83a22.35,22.35,0,0,0-11.86,2.92,23.46,23.46,0,0,0-8,8.32,37.42,37.42,0,0,0-4.43,13.11,110,110,0,0,0-1.24,17.26v27.8a92.44,92.44,0,0,0,2,22.22q2.21,9.48,7.88,14.52t15.94,5q7.79,0,12.3-2.48a16,16,0,0,0,6.91-8q2.38-5.49,3.19-14.87T2133.88,1092Z" transform="translate(0 -34.53)"/></g></g></svg>