<svg xmlns="http://www.w3.org/2000/svg" xmlns:xlink="http://www.w3.org/1999/xlink" viewBox="0 0 3353.05 902.75"><defs><style>.cls-1{fill:url(#linear-gradient);}.cls-2{fill:url(#linear-gradient-2);}.cls-3{fill:url(#linear-gradient-3);}.cls-4{fill:url(#linear-gradient-4);}.cls-5{fill:url(#linear-gradient-5);}.cls-6{fill:url(#linear-gradient-6);}.cls-7{fill:url(#linear-gradient-7);}.cls-8{fill:url(#linear-gradient-8);}.cls-9{fill:url(#linear-gradient-9);}.cls-10{fill:url(#linear-gradient-10);}.cls-11{fill:url(#linear-gradient-11);}.cls-12{fill:url(#linear-gradient-12);}.cls-13{fill:url(#linear-gradient-13);}.cls-14{fill:url(#linear-gradient-14);}.cls-15{fill:url(#linear-gradient-15);}.cls-16{fill:url(#linear-gradient-16);}.cls-17{fill:url(#linear-gradient-17);}.cls-18{fill:url(#linear-gradient-18);}.cls-19{fill:url(#linear-gradient-19);}.cls-20{fill:url(#linear-gradient-20);}.cls-21{fill:url(#linear-gradient-21);}</style><linearGradient id="linear-gradient" x1="-93.6" y1="144.51" x2="3158.14" y2="1214.81" gradientUnits="userSpaceOnUse"><stop offset="0" stop-color="#3fa4dc"/><stop offset="1" stop-color="#1c489f"/></linearGradient><linearGradient id="linear-gradient-2" x1="-96.8" y1="154.21" x2="3154.95" y2="1224.51" xlink:href="#linear-gradient"/><linearGradient id="linear-gradient-3" x1="-38.23" y1="-23.73" x2="3213.52" y2="1046.57" xlink:href="#linear-gradient"/><linearGradient id="linear-gradient-4" x1="-20.4" y1="-77.89" x2="3231.34" y2="992.41" xlink:href="#linear-gradient"/><linearGradient id="linear-gradient-5" x1="5.06" y1="-155.23" x2="3256.8" y2="915.07" xlink:href="#linear-gradient"/><linearGradient id="linear-gradient-6" x1="48.94" y1="-288.54" x2="3300.68" y2="781.75" xlink:href="#linear-gradient"/><linearGradient id="linear-gradient-7" x1="90.7" y1="-415.44" x2="3342.45" y2="654.86" xlink:href="#linear-gradient"/><linearGradient id="linear-gradient-8" x1="114.68" y1="-488.3" x2="3366.43" y2="582" xlink:href="#linear-gradient"/><linearGradient id="linear-gradient-9" x1="-148.53" y1="311.39" x2="3103.22" y2="1381.68" xlink:href="#linear-gradient"/><linearGradient id="linear-gradient-10" x1="124.22" y1="-517.26" x2="3375.96" y2="553.04" xlink:href="#linear-gradient"/><linearGradient id="linear-gradient-11" x1="130.94" y1="-537.7" x2="3382.69" y2="532.59" xlink:href="#linear-gradient"/><linearGradient id="linear-gradient-12" x1="137.67" y1="-558.15" x2="3389.42" y2="512.15" xlink:href="#linear-gradient"/><linearGradient id="linear-gradient-13" x1="-9.79" y1="-110.14" x2="3241.96" y2="960.16" xlink:href="#linear-gradient"/><linearGradient id="linear-gradient-14" x1="-3.06" y1="-130.58" x2="3248.69" y2="939.72" xlink:href="#linear-gradient"/><linearGradient id="linear-gradient-15" x1="3.67" y1="-151.03" x2="3255.42" y2="919.27" xlink:href="#linear-gradient"/><linearGradient id="linear-gradient-16" x1="63.94" y1="-334.14" x2="3315.69" y2="736.15" xlink:href="#linear-gradient"/><linearGradient id="linear-gradient-17" x1="-125.96" y1="242.81" x2="3125.79" y2="1313.11" xlink:href="#linear-gradient"/><linearGradient id="linear-gradient-18" x1="-85.86" y1="120.99" x2="3165.88" y2="1191.29" xlink:href="#linear-gradient"/><linearGradient id="linear-gradient-19" x1="-91.17" y1="137.11" x2="3160.58" y2="1207.41" xlink:href="#linear-gradient"/><linearGradient id="linear-gradient-20" x1="-205.88" y1="485.62" x2="3045.87" y2="1555.91" xlink:href="#linear-gradient"/><linearGradient id="linear-gradient-21" x1="-148.52" y1="311.36" x2="3103.22" y2="1381.66" xlink:href="#linear-gradient"/></defs><g id="Layer_2" data-name="Layer 2"><g id="Layer_1-2" data-name="Layer 1"><path class="cls-1" d="M983.07,552.42h95.22q-.9,49.71-19.74,83.92a124.53,124.53,0,0,1-53,51.83q-34.2,17.63-81.21,17.63-37.37,0-66.3-12.81a129.36,129.36,0,0,1-48.81-37.36q-19.89-24.57-30.14-60t-10.24-81.21v-68.1q0-45.81,10.85-81.36t31-60.27a130.21,130.21,0,0,1,49-37.37q28.77-12.65,64.64-12.65,49.11,0,82.56,18.38t51.53,53.34q18.07,34.95,20.79,84.67H983.37q.3-30.13-5.43-47.16t-18.53-24.11q-12.81-7.06-35.1-7.08-16,0-27.42,5.73T878.5,357.75q-6.93,13.56-10.24,35.11t-3.32,52.88v68.71q0,31.34,2.57,53t9.19,35.11q6.62,13.41,18.08,19.29t29.53,5.87q19.89,0,32.84-6.18t19.44-22.45Q983.07,582.86,983.07,552.42Z"/><path class="cls-2" d="M1201.31,373.73l47.31,230.82,10.54,101.55-61.47,2.71-94.92-335.08Zm9.34,288.07,67.2-288.07h97L1267.3,748.29a217.79,217.79,0,0,1-10,26.66,122.77,122.77,0,0,1-16.72,27.27,79.17,79.17,0,0,1-26.52,21.1q-16.12,8.13-39,8.13-12.66,0-18.83-1.2t-17.63-4.52l-.3-69.61c2.21,0,4,0,5.27.15s2.86.15,4.67.15q13.86,0,21.85-3.61a28.65,28.65,0,0,0,12.5-10.55,64.79,64.79,0,0,0,7.54-17.18Z"/><path class="cls-3" d="M1411.11,236.92h91.31v384.8l-8.14,78h-83.17Zm257.64,286.57V549.1q0,40.08-6.17,69.46t-19.14,48.82a80.63,80.63,0,0,1-33.15,28.93q-20.19,9.48-47.61,9.49-24.11,0-40.83-11.91t-28-33.14Q1482.52,639.5,1475.6,611a482.93,482.93,0,0,1-10.55-61V523.49a503.51,503.51,0,0,1,10.4-61q6.78-28.49,17.93-49.72t28-33.15q16.88-11.89,41-11.9,27.72,0,47.91,9.94A84,84,0,0,1,1643.44,407q13,19.44,19.14,48.67T1668.75,523.49Zm-91.3,25.61V523.49q0-21.39-1.51-36.61t-5.57-25.16q-4.08-9.95-12.06-14.77t-20.94-4.82q-12,0-20.19,5a40.16,40.16,0,0,0-13.56,14.16,63.4,63.4,0,0,0-7.53,22.3,185.5,185.5,0,0,0-2.11,29.38v47.31q-.3,21.71,3.46,37.82t13.41,24.71q9.64,8.58,27.12,8.59,13.26,0,21-4.22t11.75-13.56q4.07-9.35,5.42-25.31T1577.45,549.1Z"/><path class="cls-4" d="M1854.15,705.8q-34.37,0-60.72-9.95T1749,666.77q-18.07-19.12-27.42-46.55t-9.34-63V526.5q0-39.47,8.58-69.15t25.32-49.57a105.15,105.15,0,0,1,41.58-30q24.85-10.08,57.1-10.09,30.75,0,54.24,9.64a98.87,98.87,0,0,1,39.48,29.08q16,19.44,24.26,48.67t8.28,68.7v43.09H1748.68V505.11h132.59v-9q0-19.89-3.92-31.79t-11.9-17q-8-5.12-21-5.12-12.64,0-20.64,4.67t-12.2,14.61q-4.23,9.94-5.88,26.22t-1.66,38.87v30.74q0,22,3.62,36.31t10.85,22.6a40.75,40.75,0,0,0,17.63,11.9,73.81,73.81,0,0,0,24.25,3.62,97.57,97.57,0,0,0,37.67-7.23,83.39,83.39,0,0,0,30.13-21.1l37.07,56.35q-8.44,10.86-24.11,21.55t-37.36,17.63Q1882.17,705.8,1854.15,705.8Z"/><path class="cls-5" d="M2111,450.57v249.2h-91.61v-326h85.88ZM2187.19,371l-1.2,89.8a100.87,100.87,0,0,0-14.16-1.81q-8.74-.6-14.77-.6-13.86,0-23.5,4.22a38.62,38.62,0,0,0-15.82,12.5,58.51,58.51,0,0,0-9.35,20.5,114.07,114.07,0,0,0-3.16,28.47L2089,514.75a327,327,0,0,1,5-59.36q5-26.82,14.77-46.41t23.5-30.43a48.88,48.88,0,0,1,31.19-10.85,97.41,97.41,0,0,1,12.8.9A56.1,56.1,0,0,1,2187.19,371Z"/><path class="cls-6" d="M2441.29,552.42h95.22q-.9,49.71-19.73,83.92a124.55,124.55,0,0,1-53,51.83q-34.2,17.63-81.21,17.63-37.37,0-66.29-12.81a129.32,129.32,0,0,1-48.82-37.36q-19.89-24.57-30.13-60T2227,514.45v-68.1q0-45.81,10.85-81.36t31-60.27a130.1,130.1,0,0,1,49-37.37q28.77-12.65,64.64-12.65,49.11,0,82.57,18.38t51.52,53.34q18.09,34.95,20.8,84.67h-95.83q.3-30.13-5.42-47.16t-18.53-24.11q-12.82-7.06-35.11-7.08-16,0-27.42,5.73t-18.38,19.28q-6.95,13.56-10.25,35.11t-3.31,52.88v68.71q0,31.34,2.56,53t9.19,35.11q6.61,13.41,18.08,19.29t29.53,5.87q19.89,0,32.85-6.18t19.43-22.45Q2441.29,582.86,2441.29,552.42Z"/><path class="cls-7" d="M2987.16,450.57v249.2h-91.61v-326h85.88ZM3063.39,371l-1.2,89.8A100.87,100.87,0,0,0,3048,459q-8.75-.6-14.77-.6-13.86,0-23.5,4.22a38.62,38.62,0,0,0-15.82,12.5,58.32,58.32,0,0,0-9.34,20.5,114,114,0,0,0-3.17,28.47l-16.27-9.34a327,327,0,0,1,5-59.36q5-26.82,14.77-46.41t23.5-30.43a48.88,48.88,0,0,1,31.19-10.85,97.56,97.56,0,0,1,12.81.9A56,56,0,0,1,3063.39,371Z"/><path class="cls-8" d="M3236.13,705.8q-34.35,0-60.72-9.95T3131,666.77q-18.08-19.12-27.42-46.55t-9.34-63V526.5q0-39.47,8.59-69.15t25.31-49.57a105.12,105.12,0,0,1,41.59-30q24.86-10.08,57.1-10.09,30.74,0,54.24,9.64a98.94,98.94,0,0,1,39.48,29.08q16,19.44,24.25,48.67t8.29,68.7v43.09H3130.66V505.11h132.59v-9q0-19.89-3.92-31.79t-11.9-17q-8-5.12-20.94-5.12-12.66,0-20.64,4.67t-12.21,14.61q-4.21,9.94-5.87,26.22t-1.66,38.87v30.74q0,22,3.62,36.31t10.84,22.6a40.75,40.75,0,0,0,17.63,11.9,73.87,73.87,0,0,0,24.26,3.62,97.64,97.64,0,0,0,37.67-7.23,83.56,83.56,0,0,0,30.13-21.1l37.06,56.35q-8.43,10.86-24.1,21.55t-37.37,17.63Q3264.16,705.8,3236.13,705.8Z"/><path class="cls-9" d="M493,710.4l-49.18,70.23q-33,47.18-69.83,76c-24.65,19.21-49.73,32.47-75.47,39.72a163.48,163.48,0,0,1-77.5,3.13c-25.82-5-51.12-16.31-75.77-33.57Q94.64,830.51,73.5,787.39C59.37,758.67,54.42,728,58.88,695.26S76.44,628.44,98.53,593l98.76,69.16q-22.06,30.95-28.45,52.48c-4.25,14.54-3.71,27.29,1.72,38.34s15.78,21.84,31.06,32.54c11,7.67,21.77,12.35,32.42,13.88s21.58-.55,32.91-6.58,23.19-15.63,35.82-28.77,26.51-30.54,41.61-52.1L394,641.05c15-21.47,26.95-40.37,35.58-56.45s14-30.49,15.9-42.84.3-23.36-4.72-32.93S427,490.12,414.54,481.4c-13.6-9.53-26.4-15.33-38.35-17.25s-23.9,1-36.2,9a69.4,69.4,0,0,0-6,4.47,231.28,231.28,0,0,1-19.26,19.43,194,194,0,0,1-20.08,16.08A177,177,0,0,1,271.35,527q-44.16,21.6-92.11,15.16t-96.4-40.38q-38.56-27-59.1-61.13A161.26,161.26,0,0,1,.45,366.94q-2.83-39.69,12.14-83.53c10-29.33,26-59.57,48.13-91.11l49.11-70.14q33-47.18,69.84-76c24.64-19.21,49.72-32.46,75.53-39.8a163.2,163.2,0,0,1,77.44-3c25.82,5.05,51.11,16.31,75.76,33.57Q459,72.29,480.24,115.31c14.12,28.72,19,59.53,14.55,92.21s-17.56,66.83-39.58,102.23l-98.77-69.16q22-30.81,28.37-52.54c4.28-14.39,3.73-27.15-1.7-38.19s-15.72-21.93-31-32.63c-11-7.74-21.83-12.26-32.41-13.88s-21.65.64-32.91,6.58-23.19,15.63-35.88,28.86-26.52,30.54-41.61,52.1l-49.55,70.76Q137.1,294,124.11,318.19c-8.69,16.16-13.92,30.41-15.91,42.84s-.3,23.36,4.72,32.93,13.82,18.62,26.27,27.34q20.42,14.29,38.29,17.34c11.89,2,23.9-1,36.26-9.11a69.4,69.4,0,0,0,6-4.47A256.46,256.46,0,0,1,239,405.63a188.64,188.64,0,0,1,20.09-16.08,177.29,177.29,0,0,1,23.26-13.86,156.23,156.23,0,0,1,92.05-15.07c32,4.26,64.16,17.81,96.4,40.38Q509.4,428,530,462a163.31,163.31,0,0,1,23.29,73.72q2.82,39.69-12.2,83.62Q526,663.15,493,710.4Z"/><rect class="cls-10" x="2625.51" y="283.05" width="31" height="56.17" rx="6.99"/><rect class="cls-11" x="2694.35" y="283.05" width="31" height="56.17" rx="6.99"/><rect class="cls-12" x="2763.2" y="283.05" width="31" height="56.17" rx="6.99"/><rect class="cls-13" x="2625.51" y="734.28" width="31" height="56.17" rx="6.99"/><rect class="cls-14" x="2694.35" y="734.28" width="31" height="56.17" rx="6.99"/><rect class="cls-15" x="2763.2" y="734.28" width="31" height="56.17" rx="6.99"/><path class="cls-16" d="M2807.16,367.7H2612.55a36.18,36.18,0,0,0-36.19,36.18V669.62a36.18,36.18,0,0,0,36.19,36.18h194.61a36.18,36.18,0,0,0,36.19-36.18V403.88A36.18,36.18,0,0,0,2807.16,367.7Zm-20.91,229.61a36.18,36.18,0,0,1-36.18,36.19h-80.43a36.18,36.18,0,0,1-36.18-36.19V476.18A36.18,36.18,0,0,1,2669.64,440h80.43a36.18,36.18,0,0,1,36.18,36.18Z"/><rect class="cls-17" x="1437.03" y="734.28" width="31" height="56.17" rx="6.99"/><path class="cls-18" d="M2714.12,820.64V844a7,7,0,0,1-7,7H1455.24a7,7,0,0,1-7-7v-23.4a1.72,1.72,0,0,1,1.72-1.72h5.13a1.72,1.72,0,0,1,1.72,1.72v14.83a7,7,0,0,0,7,7h1234.7a7,7,0,0,0,7-7V820.64a1.72,1.72,0,0,1,1.72-1.72h5.13A1.72,1.72,0,0,1,2714.12,820.64Z"/><rect class="cls-19" x="261.37" y="230.16" width="31" height="56.17" rx="6.99"/><rect class="cls-20" x="261.37" y="616.43" width="31" height="56.17" rx="6.99"/><rect class="cls-21" x="272.58" y="303.21" width="8.57" height="296.34"/></g></g></svg>