<svg xmlns="http://www.w3.org/2000/svg" xmlns:xlink="http://www.w3.org/1999/xlink" viewBox="0 0 272 414"><defs><style>.cls-1{fill:url(#linear-gradient);}.cls-2,.cls-3{fill:#fff;}.cls-2{opacity:0.3;}</style><linearGradient id="linear-gradient" x1="10.98" y1="10.76" x2="258.39" y2="399.1" gradientUnits="userSpaceOnUse"><stop offset="0" stop-color="#3fa4dc"/><stop offset="1" stop-color="#1c489f"/></linearGradient></defs><g id="Layer_2" data-name="Layer 2"><g id="Layer_1-2" data-name="Layer 1"><rect class="cls-1" width="272" height="414" rx="33.69"/><rect class="cls-2" x="124.9" y="100.18" width="58.18" height="222"/><path class="cls-3" d="M62,129.48v69.07H48.06V129.48Zm24.25,0v11.57H58.45V129.48ZM83.6,158.84v11.48H58.45V158.84Z"/><path class="cls-3" d="M105.71,158.65v39.9H92.42V147.22H105Zm12.09-11.81-.19,13.24a17.23,17.23,0,0,0-2.16-.29c-.83-.06-1.57-.09-2.2-.09a9.42,9.42,0,0,0-3.8.69,6.25,6.25,0,0,0-2.58,2.06,9.42,9.42,0,0,0-1.52,3.34,24,24,0,0,0-.64,4.53l-2.52-1a50.65,50.65,0,0,1,.79-9.23,27,27,0,0,1,2.35-7.3A13.73,13.73,0,0,1,109.1,148a8,8,0,0,1,5-1.71,13.32,13.32,0,0,1,2,.17A8.31,8.31,0,0,1,117.8,146.84Z"/><path class="cls-3" d="M144.37,199.5a25.17,25.17,0,0,1-9.32-1.61,18.36,18.36,0,0,1-6.86-4.67,20.67,20.67,0,0,1-4.27-7.45,31.24,31.24,0,0,1-1.47-9.94v-4.22a38.15,38.15,0,0,1,1.43-11,22.93,22.93,0,0,1,4-7.94,16.11,16.11,0,0,1,6.43-4.82,22.31,22.31,0,0,1,8.65-1.59,21.3,21.3,0,0,1,8.52,1.59,15.23,15.23,0,0,1,6.12,4.77,21.5,21.5,0,0,1,3.65,7.83,42.83,42.83,0,0,1,1.21,10.77v6.12H128.1V168h21.35v-1.18a17.52,17.52,0,0,0-.67-5.22,5.53,5.53,0,0,0-5.88-4.22,6.36,6.36,0,0,0-3.37.83,5.69,5.69,0,0,0-2.18,2.53,15.66,15.66,0,0,0-1.19,4.42,48.09,48.09,0,0,0-.38,6.5v4.22a23.83,23.83,0,0,0,.64,5.93,10.61,10.61,0,0,0,1.83,3.91,6.57,6.57,0,0,0,2.94,2.14,12.05,12.05,0,0,0,4.08.64,15.35,15.35,0,0,0,6.33-1.26,14.74,14.74,0,0,0,4.87-3.44l5.31,8.07a20.08,20.08,0,0,1-3.84,3.58,21.82,21.82,0,0,1-5.79,2.94A24,24,0,0,1,144.37,199.5Z"/><path class="cls-3" d="M190.86,199.5a25.17,25.17,0,0,1-9.32-1.61,18.33,18.33,0,0,1-6.85-4.67,20.53,20.53,0,0,1-4.27-7.45,31,31,0,0,1-1.48-9.94v-4.22a38.15,38.15,0,0,1,1.43-11,23.1,23.1,0,0,1,4-7.94,16.11,16.11,0,0,1,6.43-4.82,22.32,22.32,0,0,1,8.66-1.59,21.28,21.28,0,0,1,8.51,1.59,15.23,15.23,0,0,1,6.12,4.77,21.68,21.68,0,0,1,3.66,7.83A43.3,43.3,0,0,1,209,171.23v6.12h-34.4V168h21.35v-1.18a17.2,17.2,0,0,0-.67-5.22,6.14,6.14,0,0,0-2.08-3.16,6.2,6.2,0,0,0-3.8-1.06,6.36,6.36,0,0,0-3.37.83,5.76,5.76,0,0,0-2.18,2.53,15.35,15.35,0,0,0-1.18,4.42,46.51,46.51,0,0,0-.38,6.5v4.22a23.37,23.37,0,0,0,.64,5.93,10.45,10.45,0,0,0,1.82,3.91,6.57,6.57,0,0,0,2.94,2.14,12.05,12.05,0,0,0,4.08.64,15.4,15.4,0,0,0,6.34-1.26,14.8,14.8,0,0,0,4.86-3.44l5.31,8.07a20.08,20.08,0,0,1-3.84,3.58,21.82,21.82,0,0,1-5.79,2.94A23.94,23.94,0,0,1,190.86,199.5Z"/><path class="cls-3" d="M123.67,263.42a12.56,12.56,0,0,0-.25-2.56,4.88,4.88,0,0,0-1.06-2.12,10.25,10.25,0,0,0-2.34-1.95,28,28,0,0,0-4-2q-2.92-1.23-5.65-2.61a26,26,0,0,1-4.94-3.23,13.69,13.69,0,0,1-3.47-4.33,12.82,12.82,0,0,1-1.28-5.89,14.47,14.47,0,0,1,1.21-6,13.15,13.15,0,0,1,3.42-4.63,15.72,15.72,0,0,1,5.24-3,20.5,20.5,0,0,1,6.69-1,17.46,17.46,0,0,1,8.73,2.09,14.7,14.7,0,0,1,5.72,5.72,16.8,16.8,0,0,1,2,8.35H123.27a11.23,11.23,0,0,0-.63-3.92,5.49,5.49,0,0,0-2-2.66,6,6,0,0,0-3.53-1,6.22,6.22,0,0,0-3.33.81,5,5,0,0,0-2,2.18,7.34,7.34,0,0,0-.63,3.1,4.25,4.25,0,0,0,.63,2.3,6.88,6.88,0,0,0,1.75,1.84,16.56,16.56,0,0,0,2.65,1.58c1,.5,2.14,1,3.36,1.48a40.21,40.21,0,0,1,6.3,3.07,20.11,20.11,0,0,1,4.57,3.75,14.06,14.06,0,0,1,2.77,4.66,17.19,17.19,0,0,1,.94,5.9,15.26,15.26,0,0,1-1.13,6,12.77,12.77,0,0,1-3.3,4.61,15.15,15.15,0,0,1-5.2,3,20.7,20.7,0,0,1-6.78,1,22.77,22.77,0,0,1-6.88-1,16.45,16.45,0,0,1-5.71-3.13,14.61,14.61,0,0,1-3.87-5.37,19.49,19.49,0,0,1-1.4-7.72h10.55a14.92,14.92,0,0,0,.47,4.05,6,6,0,0,0,1.44,2.66,5.76,5.76,0,0,0,2.39,1.46,10.46,10.46,0,0,0,3.26.47,6.31,6.31,0,0,0,3.33-.77,4.36,4.36,0,0,0,1.78-2.13A8,8,0,0,0,123.67,263.42Z"/><path class="cls-3" d="M150.6,221.91V277.2H140.52V221.91Zm-1.44,34.49-2.74.07a32.49,32.49,0,0,1,.83-7.56,19.34,19.34,0,0,1,2.46-6,12.27,12.27,0,0,1,4-4,9.7,9.7,0,0,1,5.13-1.41,11.38,11.38,0,0,1,4.4.83,8.93,8.93,0,0,1,3.43,2.59,12.43,12.43,0,0,1,2.25,4.66,26.87,26.87,0,0,1,.79,7V277.2H159.56V252.54a12.64,12.64,0,0,0-.5-4,3.7,3.7,0,0,0-1.52-2A4.85,4.85,0,0,0,155,246a4.67,4.67,0,0,0-2.75.79,5.57,5.57,0,0,0-1.82,2.21,12.55,12.55,0,0,0-1,3.33A26.55,26.55,0,0,0,149.16,256.4Z"/><path class="cls-3" d="M177.05,228.14a5.22,5.22,0,0,1,1.5-3.85,5.41,5.41,0,0,1,4-1.52,5.3,5.3,0,0,1,4,1.52,5.25,5.25,0,0,1,1.48,3.85,5.16,5.16,0,0,1-5.47,5.4,5.38,5.38,0,0,1-4-1.53A5.3,5.3,0,0,1,177.05,228.14Zm10.59,10.11V277.2H177.52V238.25Z"/><path class="cls-3" d="M205.71,245.74v46.44h-10V238.25H205Zm20.23,10.66V259a37.06,37.06,0,0,1-.79,8.1,18.52,18.52,0,0,1-2.36,6,10.46,10.46,0,0,1-3.91,3.67,11.47,11.47,0,0,1-5.47,1.24,9,9,0,0,1-5-1.38,11.34,11.34,0,0,1-3.54-3.84,22.41,22.41,0,0,1-2.31-5.72,54,54,0,0,1-1.33-7v-4.07a56.17,56.17,0,0,1,1.26-7.34,21.43,21.43,0,0,1,2.29-5.83,11,11,0,0,1,3.58-3.84,9.1,9.1,0,0,1,5-1.35,12.47,12.47,0,0,1,5.53,1.16,9.84,9.84,0,0,1,3.92,3.49,17.42,17.42,0,0,1,2.36,5.88A38.6,38.6,0,0,1,225.94,256.4ZM215.82,259V256.4a34.3,34.3,0,0,0-.28-4.79,10.68,10.68,0,0,0-.94-3.24,4.28,4.28,0,0,0-1.69-1.84,5.29,5.29,0,0,0-2.56-.57,5.5,5.5,0,0,0-2.57.57,4.55,4.55,0,0,0-1.78,1.68,8.59,8.59,0,0,0-1.05,2.66,17.05,17.05,0,0,0-.39,3.55v7.09a14.89,14.89,0,0,0,.63,4.1,5.86,5.86,0,0,0,1.81,2.86,5.13,5.13,0,0,0,3.42,1.07,4.77,4.77,0,0,0,2.58-.65,4.69,4.69,0,0,0,1.67-1.95,10.29,10.29,0,0,0,.9-3.27A37.65,37.65,0,0,0,215.82,259Z"/><rect class="cls-2" x="60.07" y="245.86" width="23.92" height="100.32"/><rect class="cls-2" x="169.03" y="303.86" width="23.92" height="107.99" transform="translate(-176.87 538.85) rotate(-90)"/><polygon class="cls-3" points="215.38 45.25 128.93 40.15 167.74 117.57 215.38 45.25"/><rect class="cls-3" x="46.92" y="313.94" width="50" height="50" transform="translate(304.46 82.08) rotate(54.13)"/></g></g></svg>